<svg width="665" height="360" viewBox="0 0 665 360" fill="none" xmlns="http://www.w3.org/2000/svg">
<g opacity="0.52">
<path opacity="0.52" d="M658.753 189.765L651.523 189.319C651.523 186.911 651.345 184.503 651.077 182.185L658.217 180.847C661.876 180.223 664.197 176.745 663.572 173.089C662.858 169.433 659.467 167.114 655.807 167.738L648.667 169.076C647.775 165.777 646.704 162.477 645.365 159.267L651.791 156.056C655.093 154.451 656.432 150.438 654.736 147.139C653.041 143.839 649.114 142.502 645.811 144.196L639.296 147.406C637.957 145.177 636.44 142.948 634.834 140.897L640.278 136.081C643.045 133.674 643.312 129.482 640.903 126.718C638.493 123.953 634.298 123.686 631.531 126.094L626.087 130.909C624.302 129.215 622.517 127.61 620.554 126.004L624.659 120.03C626.712 116.998 625.998 112.896 622.963 110.755C619.929 108.704 615.823 109.418 613.681 112.45L609.576 118.425C606.898 116.909 604.221 115.482 601.365 114.233L603.775 107.367C604.935 103.889 603.15 100.144 599.669 98.8952C596.189 97.7359 592.44 99.5194 591.191 102.997L588.781 109.864C586.103 109.15 583.426 108.615 580.659 108.169L581.195 100.946C581.462 97.29 578.696 94.0797 575.036 93.8122C571.377 93.5447 568.164 96.3091 567.896 99.9653L567.361 107.188C563.969 107.188 560.667 107.456 557.454 107.813L555.937 100.679C555.223 97.1117 551.653 94.7931 548.083 95.5065C544.513 96.2199 542.192 99.7869 542.906 103.354L544.424 110.488C542.103 111.201 539.783 112.004 537.551 112.896L534.338 106.386C532.732 103.086 528.716 101.66 525.413 103.265C522.111 104.87 520.683 108.883 522.29 112.182L525.503 118.692C522.825 120.297 520.326 121.992 517.827 123.775L513.008 118.335C510.598 115.571 506.403 115.303 503.636 117.711C500.87 120.119 500.602 124.31 503.012 127.075L507.831 132.514C505.957 134.476 504.083 136.527 502.387 138.667L496.318 134.654C493.283 132.603 489.089 133.406 487.125 136.438C485.073 139.47 485.876 143.661 488.91 145.623L494.89 149.636C493.551 151.954 492.391 154.362 491.32 156.77L484.537 154.362C481.056 153.114 477.308 154.986 476.058 158.464C474.809 161.942 476.683 165.687 480.164 166.936L487.036 169.344C486.233 172.375 485.608 175.407 485.162 178.529L477.933 178.083C474.273 177.815 471.06 180.669 470.882 184.325C470.614 187.981 473.47 191.191 477.129 191.37L484.359 191.816C484.359 194.223 484.537 196.631 484.805 198.95L477.665 200.287C474.006 200.912 471.685 204.389 472.31 208.046C472.935 211.613 476.415 214.02 480.075 213.396L487.215 212.058C488.107 215.358 489.178 218.657 490.517 221.868L484.091 225.078C480.789 226.683 479.45 230.696 481.146 233.996C482.752 237.295 486.768 238.633 490.07 236.938L496.586 233.728C497.925 235.957 499.442 238.187 501.048 240.238L495.604 245.053C492.837 247.461 492.569 251.652 494.979 254.417C497.389 257.181 501.584 257.449 504.35 255.041L509.795 250.225C511.58 251.92 513.365 253.525 515.328 255.13L511.223 261.105C509.17 264.137 509.884 268.239 512.918 270.379C515.953 272.43 520.058 271.717 522.2 268.685L526.306 262.71C528.983 264.226 531.661 265.653 534.517 266.812L532.107 273.678C530.947 277.156 532.732 280.902 536.213 282.15C539.693 283.309 543.442 281.526 544.691 278.048L547.101 271.182C549.779 271.895 552.456 272.43 555.223 272.876L554.687 280.099C554.42 283.755 557.186 286.966 560.846 287.233C564.505 287.501 567.718 284.736 567.986 281.08L568.521 273.857C571.913 273.857 575.215 273.589 578.428 273.233L579.945 280.367C580.659 283.934 584.229 286.252 587.799 285.539C591.369 284.825 593.69 281.258 592.976 277.691L591.458 270.557C593.779 269.844 596.099 269.041 598.331 268.15L601.543 274.659C603.15 277.959 607.166 279.386 610.468 277.781C613.771 276.175 615.199 272.162 613.592 268.863L610.379 262.353C613.057 260.748 615.645 259.054 618.055 257.27L622.874 262.71C625.284 265.474 629.479 265.742 632.245 263.334C635.012 260.926 635.28 256.735 632.87 253.971L628.051 248.531C629.925 246.569 631.799 244.518 633.495 242.378L639.564 246.391C642.598 248.442 646.793 247.639 648.757 244.607C650.809 241.575 650.006 237.384 646.882 235.422L640.903 231.409C642.241 229.091 643.402 226.683 644.473 224.275L651.345 226.683C654.826 227.932 658.574 226.059 659.824 222.581C661.073 219.103 659.199 215.358 655.718 214.109L648.846 211.702C649.649 208.67 650.274 205.638 650.72 202.517L657.949 202.963C661.609 203.23 664.822 200.376 665 196.72C665.179 193.153 662.412 190.032 658.753 189.765ZM580.034 119.138C601.008 122.616 618.858 135.1 629.657 152.311L600.74 166.847C595.207 159.267 587.085 153.738 577.625 151.419L580.034 119.138ZM566.736 118.157L564.326 150.349C554.152 151.241 545.138 155.878 538.533 162.923L511.669 144.91C524.699 128.858 544.513 118.514 566.736 118.157ZM500.423 217.141C497.478 209.562 495.693 201.268 495.425 192.707L496.229 179.42C497.567 171.038 500.245 163.101 504.172 155.967L531.036 173.981C529.965 176.388 529.073 178.885 528.448 181.471L527.645 194.758C527.912 197.434 528.448 200.109 529.251 202.606L500.423 217.141ZM556.026 262.264C535.052 258.786 517.202 246.302 506.403 229.091L535.32 214.555C540.854 222.135 548.975 227.753 558.436 229.983L556.026 262.264ZM567.807 208.759C557.811 208.67 549.779 200.466 549.868 190.478C549.957 180.49 558.168 172.465 568.164 172.554C578.16 172.643 586.193 180.847 586.103 190.835C586.014 200.912 577.803 208.848 567.807 208.759ZM569.324 263.156L571.734 230.964C581.908 230.072 590.923 225.435 597.527 218.39L624.391 236.403C611.272 252.455 591.458 262.799 569.324 263.156ZM639.742 201.892C638.404 210.275 635.726 218.212 631.799 225.346L604.935 207.332C606.006 204.924 607.077 202.428 607.523 199.841C607.969 196.542 608.416 189.854 608.326 186.554C608.237 183.79 607.523 181.204 606.72 178.707L635.637 164.171C638.582 171.751 640.367 180.045 640.635 188.605L639.742 201.892Z" fill="white"/>
</g>
<g opacity="0.47">
<path opacity="0.47" d="M158.329 226.059L152.171 225.702C152.171 223.651 151.993 221.689 151.814 219.638L157.883 218.568C160.918 218.033 162.97 215.09 162.346 212.058C161.81 209.026 158.865 206.975 155.83 207.6L149.851 208.67C149.137 205.816 148.155 203.052 147.084 200.466L152.528 197.701C155.295 196.274 156.455 192.975 155.027 190.211C153.599 187.446 150.297 186.287 147.53 187.714L142.086 190.478C140.926 188.605 139.676 186.733 138.337 184.949L142.978 180.936C145.299 178.885 145.567 175.318 143.514 173C141.461 170.681 137.891 170.414 135.571 172.465L130.93 176.478C129.412 175.051 127.895 173.624 126.289 172.375L129.769 167.293C131.554 164.706 130.84 161.229 128.341 159.445C125.753 157.662 122.272 158.375 120.577 160.872L117.096 165.955C114.865 164.706 112.544 163.458 110.224 162.477L112.187 156.681C113.169 153.738 111.652 150.528 108.706 149.547C105.761 148.566 102.548 150.082 101.566 153.024L99.603 158.821C97.3717 158.197 95.0512 157.751 92.7307 157.394L93.177 151.33C93.4447 148.209 91.1242 145.534 88.0005 145.355C84.8768 145.088 82.1993 147.406 82.0208 150.528L81.5745 156.591C78.7185 156.591 75.9518 156.77 73.185 157.127L71.9355 151.152C71.3108 148.12 68.3655 146.158 65.3311 146.782C62.2966 147.406 60.3331 150.349 60.9578 153.381L62.2073 159.356C60.2438 159.891 58.2803 160.604 56.4061 161.318L53.7286 155.789C52.3898 153.024 48.9983 151.865 46.2316 153.203C43.4649 154.54 42.3046 157.929 43.6434 160.694L46.3209 166.222C44.0896 167.56 41.9476 168.987 39.8056 170.503L35.7894 165.866C33.7366 163.547 30.1666 163.28 27.8462 165.331C25.5257 167.382 25.2579 170.949 27.3107 173.267L31.3269 177.904C29.7204 179.599 28.2032 181.293 26.6859 183.166L21.5987 179.777C19.0104 178.083 15.5297 178.707 13.8339 181.293C12.1382 183.879 12.7629 187.357 15.3512 189.051L20.4384 192.44C19.3674 194.402 18.3857 196.364 17.4039 198.415L11.6027 196.453C8.65745 195.472 5.44446 196.988 4.46271 199.931C3.48097 202.873 4.99821 206.084 7.94346 207.065L13.7447 209.116C13.1199 211.613 12.5844 214.199 12.1382 216.874L6.06921 216.517C2.94547 216.339 0.267975 218.657 0.0894751 221.779C-0.0890244 224.9 2.23147 227.575 5.35521 227.753L11.5134 228.11C11.5134 230.161 11.6919 232.123 11.8704 234.174L5.80146 235.244C2.76697 235.779 0.714224 238.722 1.33897 241.754C1.87447 244.786 4.81971 246.837 7.85421 246.213L13.8339 245.142C14.5479 247.996 15.5297 250.76 16.6007 253.347L11.1564 256.111C8.3897 257.538 7.22946 260.837 8.65745 263.602C10.0855 266.366 13.3877 267.525 16.1544 266.099L21.5987 263.334C22.7589 265.207 24.0084 267.079 25.3472 268.863L20.7062 272.876C18.3857 274.927 18.1179 278.494 20.1707 280.812C22.2234 283.131 25.7934 283.399 28.1139 281.348L32.7549 277.335C34.2721 278.761 35.7894 280.188 37.3959 281.437L33.9151 286.52C32.1301 289.106 32.8441 292.584 35.3431 294.367C37.9314 296.151 41.4121 295.437 43.1079 292.94L46.5886 287.857C48.8199 289.106 51.1403 290.354 53.4608 291.335L51.4973 297.132C50.5156 300.074 52.0328 303.285 54.9781 304.266C57.9233 305.246 61.1363 303.73 62.1181 300.788L64.0816 294.991C66.3128 295.616 68.6333 296.061 70.9538 296.418L70.5075 302.482C70.2398 305.603 72.5603 308.278 75.684 308.457C78.8078 308.724 81.4853 306.406 81.6638 303.285L82.11 297.221C84.966 297.221 87.7328 297.042 90.4995 296.686L91.749 302.66C92.3737 305.692 95.319 307.654 98.3535 307.03C101.388 306.406 103.351 303.463 102.727 300.431L101.477 294.456C103.441 293.921 105.404 293.208 107.278 292.494L109.956 298.023C111.295 300.788 114.686 301.947 117.453 300.609C120.22 299.272 121.38 295.883 120.041 293.119L117.364 287.59C119.595 286.252 121.737 284.825 123.879 283.309L127.895 287.946C129.948 290.265 133.518 290.533 135.838 288.482C138.159 286.43 138.427 282.863 136.374 280.545L132.358 275.908C133.964 274.214 135.481 272.519 136.999 270.646L142.086 274.035C144.674 275.729 148.155 275.105 149.851 272.519C151.546 269.933 150.922 266.455 148.333 264.761L143.246 261.372C144.317 259.41 145.299 257.449 146.281 255.398L152.082 257.359C155.027 258.34 158.24 256.824 159.222 253.882C160.204 250.939 158.686 247.728 155.741 246.748L149.94 244.697C150.565 242.2 151.1 239.614 151.546 236.938L157.615 237.295C160.739 237.473 163.417 235.155 163.595 232.034C163.774 228.913 161.364 226.237 158.329 226.059ZM91.9275 166.401C109.599 169.344 124.682 179.866 133.786 194.402L109.42 206.619C104.779 200.198 97.9072 195.561 89.964 193.599L91.9275 166.401ZM80.682 165.598L78.6293 192.797C70.0613 193.599 62.4751 197.523 56.8523 203.408L34.1829 188.249C45.2499 174.694 62.0288 165.955 80.682 165.598ZM24.7224 249.155C22.2234 242.735 20.7062 235.779 20.5277 228.556L21.2417 217.32C22.3127 210.275 24.6332 203.587 27.9354 197.523L50.6048 212.683C49.7123 214.734 48.9983 216.785 48.4628 219.014L47.7489 230.25C48.0166 232.569 48.4628 234.709 49.0876 236.849L24.7224 249.155ZM71.6678 287.144C53.9963 284.201 38.9131 273.678 29.8096 259.143L54.1748 246.926C58.8158 253.347 65.6881 257.984 73.6313 259.945L71.6678 287.144ZM81.5745 242.021C73.185 241.932 66.4021 234.976 66.4913 226.594C66.5806 218.212 73.542 211.434 81.9315 211.523C90.321 211.613 97.104 218.568 97.0147 226.951C96.9255 235.422 90.0532 242.2 81.5745 242.021ZM82.824 287.946L84.8768 260.748C93.4447 259.945 101.031 256.022 106.654 250.136L129.323 265.296C118.256 278.94 101.566 287.679 82.824 287.946ZM142.264 236.225C141.193 243.27 138.873 249.958 135.571 256.022L112.901 240.862C113.794 238.811 114.508 236.76 115.043 234.531L115.757 223.294C115.489 220.976 115.043 218.836 114.418 216.696L138.784 204.479C141.283 210.899 142.8 217.855 142.978 225.078L142.264 236.225Z" fill="white"/>
</g>
<g opacity="0.52">
<path opacity="0.63" d="M203.311 76.1555L197.599 75.7988C197.599 73.837 197.421 71.9643 197.242 70.0916L202.954 69.0215C205.81 68.4865 207.684 65.7221 207.238 62.8685C206.703 60.0148 203.936 58.1422 201.08 58.6772L195.457 59.7473C194.743 57.0721 193.851 54.486 192.869 51.9891L197.956 49.403C200.544 48.0654 201.615 44.9443 200.277 42.3582C198.938 39.7721 195.814 38.702 193.137 40.0396L187.96 42.6257C186.889 40.8422 185.64 39.1479 184.39 37.4535L188.763 33.619C190.995 31.6572 191.173 28.3577 189.21 26.1283C187.246 23.8989 183.944 23.7206 181.713 25.6824L177.339 29.517C175.911 28.1793 174.483 26.8417 172.966 25.6824L176.268 20.9561C177.964 18.5484 177.339 15.2489 174.93 13.6438C172.52 11.9495 169.218 12.5737 167.611 14.9814L164.309 19.7077C162.167 18.4592 160.025 17.3891 157.794 16.4082L159.668 10.9685C160.65 8.2041 159.132 5.17215 156.366 4.2804C153.599 3.29947 150.564 4.81545 149.672 7.57988L147.798 13.0196C145.656 12.4845 143.514 12.0386 141.372 11.6819L141.818 5.97472C141.996 3.03194 139.854 0.535041 136.909 0.356691C133.964 0.178341 131.465 2.31854 131.286 5.26132L130.84 10.9685C128.163 10.9685 125.574 11.1469 122.986 11.5036L121.826 5.88555C121.201 3.03194 118.434 1.15927 115.579 1.78349C112.723 2.40772 110.848 5.17215 111.473 8.02575L112.633 13.6438C110.759 14.1788 108.974 14.8031 107.1 15.5165L104.601 10.3443C103.351 7.75823 100.138 6.59895 97.5501 7.93658C94.9618 9.18503 93.8016 12.3953 95.1403 14.9814L97.6393 20.1536C95.4973 21.402 93.5338 22.7396 91.5703 24.2556L87.7326 19.886C85.7691 17.6567 82.4668 17.4783 80.2356 19.4402C78.0044 21.402 77.8259 24.7015 79.7894 26.9309L83.6271 31.3005C82.1098 32.9056 80.6819 34.5108 79.2539 36.2051L74.4344 32.9948C72.0246 31.3896 68.7224 32.0139 67.1159 34.4216C65.5094 36.8293 66.1341 40.1288 68.5439 41.734L73.2741 44.9443C72.2031 46.8169 71.3106 48.6896 70.4181 50.5623L65.1524 48.2437C62.3856 47.2628 59.3512 48.7788 58.4587 51.454C57.4769 54.2185 58.9942 57.2504 61.6716 58.1422L67.1159 60.0149C66.4911 62.4226 65.9556 64.8303 65.5986 67.3272L59.8867 66.9705C56.9414 66.7922 54.4424 69.0215 54.2639 71.8751C54.0854 74.8179 56.3167 77.3148 59.1727 77.4932L64.8846 77.8499C64.8846 79.7226 65.0631 81.6844 65.2416 83.5571L59.6189 84.7164C56.7629 85.2514 54.8887 88.0158 55.3349 90.8694C55.8704 93.723 58.6372 95.5957 61.4931 95.0607L67.1159 93.9906C67.8299 96.6658 68.7224 99.2519 69.7041 101.749L64.6169 104.335C62.0286 105.673 60.9577 108.794 62.2964 111.38C63.6351 113.966 66.7589 115.036 69.3471 113.698L74.5236 111.112C75.5946 112.896 76.8441 114.59 78.0936 116.284L73.7204 120.119C71.4891 122.081 71.3106 125.38 73.2741 127.61C75.2376 129.839 78.5399 130.017 80.7711 128.055L85.1443 124.221C86.5723 125.559 88.0003 126.896 89.5176 128.055L86.2153 132.782C84.5196 135.189 85.1443 138.489 87.5541 140.094C89.9638 141.788 93.2661 141.164 94.8726 138.757L98.1748 134.03C100.317 135.279 102.459 136.349 104.69 137.33L102.816 142.769C101.834 145.534 103.351 148.566 106.118 149.458C108.885 150.438 111.919 148.922 112.812 146.158L114.686 140.718C116.828 141.253 118.97 141.699 121.112 142.056L120.666 147.763C120.487 150.706 122.629 153.203 125.574 153.381C128.52 153.56 131.019 151.419 131.197 148.477L131.643 142.769C134.321 142.769 136.909 142.591 139.497 142.234L140.658 147.852C141.282 150.706 144.049 152.579 146.905 151.954C149.761 151.33 151.635 148.566 151.011 145.712L149.85 140.094C151.725 139.559 153.51 138.935 155.384 138.221L157.883 143.394C159.132 145.98 162.345 147.139 164.934 145.801C167.522 144.553 168.682 141.343 167.343 138.757L164.844 133.584C166.986 132.336 168.95 130.998 170.913 129.482L174.751 133.852C176.715 136.081 180.017 136.26 182.248 134.298C184.479 132.336 184.658 129.036 182.694 126.807L178.857 122.437C180.374 120.832 181.802 119.227 183.23 117.533L188.049 120.743C190.459 122.348 193.761 121.724 195.368 119.316C196.974 116.909 196.35 113.609 193.94 112.004L189.21 108.794C190.281 106.921 191.173 105.048 192.066 103.176L197.51 105.048C200.277 106.029 203.311 104.513 204.204 101.838C205.185 99.0736 203.668 96.0416 200.991 95.1498L195.546 93.2772C196.171 90.8694 196.707 88.4617 197.064 85.9648L202.776 86.3215C205.721 86.4999 208.22 84.2705 208.398 81.4169C208.398 78.8308 206.167 76.3339 203.311 76.1555ZM140.747 20.0644C157.347 22.8288 171.538 32.7273 180.106 46.4602L157.258 57.9638C152.885 51.9891 146.37 47.5303 138.873 45.6577L140.747 20.0644ZM130.215 19.2618L128.341 44.8551C120.309 45.5685 113.08 49.3138 107.814 54.8427L86.4831 40.5747C96.9253 27.8226 112.633 19.6185 130.215 19.2618ZM77.5581 97.9143C75.1484 91.8504 73.8096 85.3406 73.6311 78.5633L74.2559 68.0406C75.3269 61.3525 77.4689 55.1102 80.5926 49.403L101.923 63.671C101.031 65.5437 100.406 67.5947 99.8705 69.6458L99.2458 80.1684C99.4243 82.3086 99.8705 84.4488 100.495 86.4107L77.5581 97.9143ZM121.737 133.673C105.136 130.909 90.9456 121.011 82.3776 107.278L105.315 95.7741C109.688 101.749 116.203 106.208 123.7 108.08L121.737 133.673ZM131.108 91.2261C123.165 91.137 116.828 84.6272 116.917 76.6906C117.007 68.754 123.522 62.4226 131.465 62.5117C139.408 62.6009 145.745 69.1107 145.656 77.0473C145.566 84.9839 139.051 91.3153 131.108 91.2261ZM132.268 134.476L134.142 108.883C142.175 108.169 149.404 104.424 154.67 98.8952L176.001 113.163C165.648 125.915 149.85 134.119 132.268 134.476ZM188.228 85.7865C187.157 92.4746 185.015 98.7169 181.891 104.424L160.56 90.156C161.453 88.2834 162.078 86.2323 162.613 84.1813L163.238 73.6586C163.059 71.5184 162.613 69.3782 161.988 67.4164L184.926 55.9128C187.335 61.9767 188.674 68.4865 188.853 75.2638L188.228 85.7865Z" fill="white"/>
<path opacity="0.52" d="M134.856 57.2504C130.929 57.1612 127.716 60.3715 127.627 64.2952C127.627 68.219 130.751 71.4293 134.678 71.5184C138.605 71.5184 141.818 68.3973 141.907 64.4736C141.996 60.5499 138.783 57.3396 134.856 57.2504Z" fill="white"/>
</g>
<path opacity="0.62" d="M395.912 307.922C388.415 296.775 386.451 292.049 386.451 285.45C386.451 278.851 386.451 260.035 386.451 260.035H315.855H281.851C281.851 260.035 281.851 278.851 281.851 285.45C281.851 292.049 279.887 296.775 272.39 307.922C264.893 319.069 254.719 330.483 254.719 331.999C254.719 333.515 254.719 339.311 254.719 339.311H413.494C413.494 339.311 413.494 333.515 413.494 331.999C413.583 330.483 403.498 319.158 395.912 307.922Z" fill="url(#paint0_linear)"/>
<path d="M281.94 280.277L281.851 278.94C281.851 270.736 281.851 261.997 281.851 261.997H352.536H386.451C386.451 261.997 386.451 280.812 386.451 287.411L281.94 280.277Z" fill="url(#paint1_linear)"/>
<path d="M413.762 331.821H306.394H254.808C254.808 331.821 254.719 336.458 254.719 339.311L413.583 339.757L413.762 331.821Z" fill="url(#paint2_linear)"/>
<path d="M547.012 256.289C547.012 264.85 540.05 271.895 531.393 271.895H136.909C128.341 271.895 121.29 264.939 121.29 256.289V27.1984C121.29 18.6376 128.252 11.5928 136.909 11.5928H531.482C540.05 11.5928 547.101 18.5484 547.101 27.1984V256.289H547.012Z" fill="url(#paint3_linear)" fill-opacity="0.48"/>
<path d="M546.722 39.1479H121V237.652H546.722V39.1479Z" fill="url(#paint4_linear)"/>
<path d="M292.635 111.024C290.684 112.721 288.163 113.57 285.073 113.57C281.982 113.57 279.449 112.721 277.473 111.024C275.522 109.327 274.547 107.072 274.547 104.26V86.4H281.349V103.614C281.349 105.843 282.59 106.958 285.073 106.958C287.555 106.958 288.797 105.843 288.797 103.614V86.4H295.599V104.26C295.599 107.072 294.611 109.327 292.635 111.024ZM325.795 113H318.195L314.015 105.932L309.835 113H302.197L310.215 99.434L302.501 86.4H310.139L314.015 92.974L317.891 86.4H325.529L317.815 99.472L325.795 113ZM334.566 116.8H331.906L347.106 82.6H349.766L334.566 116.8ZM375.55 111.024C373.6 112.721 371.079 113.57 367.988 113.57C364.898 113.57 362.364 112.721 360.388 111.024C358.438 109.327 357.462 107.072 357.462 104.26V86.4H364.264V103.614C364.264 105.843 365.506 106.958 367.988 106.958C370.471 106.958 371.712 105.843 371.712 103.614V86.4H378.514V104.26C378.514 107.072 377.526 109.327 375.55 111.024ZM387.383 86.4H394.185V113H387.383V86.4ZM267.327 135.4C271 135.4 274.066 136.679 276.523 139.238C279.006 141.771 280.247 144.925 280.247 148.7C280.247 152.475 279.006 155.641 276.523 158.2C274.066 160.733 271 162 267.327 162H256.497V135.4H267.327ZM267.327 155.426C269.176 155.426 270.684 154.818 271.849 153.602C273.014 152.361 273.597 150.727 273.597 148.7C273.597 146.673 273.014 145.052 271.849 143.836C270.684 142.595 269.176 141.974 267.327 141.974H263.489V155.426H267.327ZM295.143 155.616H305.441V162H288.341V135.4H305.251V141.746H295.143V145.432H304.301V151.702H295.143V155.616ZM323.079 162.57C320.267 162.57 317.937 161.975 316.087 160.784C314.238 159.593 312.946 157.985 312.211 155.958L318.025 152.576C319.013 154.932 320.761 156.11 323.269 156.11C325.347 156.11 326.385 155.515 326.385 154.324C326.385 153.539 325.79 152.905 324.599 152.424C324.093 152.221 322.978 151.879 321.255 151.398C318.823 150.689 316.898 149.701 315.479 148.434C314.061 147.142 313.351 145.356 313.351 143.076C313.351 140.619 314.225 138.63 315.973 137.11C317.747 135.59 319.951 134.83 322.585 134.83C324.815 134.83 326.791 135.349 328.513 136.388C330.236 137.427 331.553 138.934 332.465 140.91L326.765 144.254C325.929 142.278 324.549 141.29 322.623 141.29C321.813 141.29 321.192 141.455 320.761 141.784C320.356 142.113 320.153 142.531 320.153 143.038C320.153 143.621 320.457 144.115 321.065 144.52C321.699 144.925 322.915 145.394 324.713 145.926C326.005 146.306 327.044 146.661 327.829 146.99C328.615 147.319 329.476 147.801 330.413 148.434C331.351 149.042 332.047 149.84 332.503 150.828C332.959 151.791 333.187 152.931 333.187 154.248C333.187 156.857 332.263 158.897 330.413 160.366C328.564 161.835 326.119 162.57 323.079 162.57ZM340.6 135.4H347.402V162H340.6V135.4ZM382.935 146.762V149.46C382.935 153.361 381.706 156.528 379.249 158.96C376.817 161.367 373.65 162.57 369.749 162.57C365.594 162.57 362.174 161.24 359.489 158.58C356.829 155.92 355.499 152.639 355.499 148.738C355.499 144.837 356.829 141.543 359.489 138.858C362.149 136.173 365.442 134.83 369.369 134.83C371.851 134.83 374.119 135.387 376.171 136.502C378.248 137.617 379.869 139.099 381.035 140.948L375.259 144.254C374.727 143.418 373.941 142.747 372.903 142.24C371.889 141.733 370.737 141.48 369.445 141.48C367.342 141.48 365.619 142.164 364.277 143.532C362.934 144.9 362.263 146.648 362.263 148.776C362.263 150.828 362.921 152.563 364.239 153.982C365.581 155.401 367.456 156.11 369.863 156.11C372.953 156.11 374.993 154.945 375.981 152.614H369.521V146.762H382.935ZM405.709 135.4H412.473V162H407.229L397.843 148.624V162H391.041V135.4H396.323L405.709 148.776V135.4Z" fill="white"/>
<mask id="mask0" mask-type="alpha" maskUnits="userSpaceOnUse" x="219" y="184" width="217" height="9">
<path d="M431.522 192.172H223.392C221.339 192.172 219.644 190.478 219.644 188.427C219.644 186.376 221.339 184.682 223.392 184.682H431.522C433.575 184.682 435.271 186.376 435.271 188.427C435.271 190.478 433.575 192.172 431.522 192.172Z" fill="url(#paint5_linear)"/>
</mask>
<g mask="url(#mask0)">
<path d="M431.522 192.172H223.392C221.339 192.172 219.644 190.478 219.644 188.427C219.644 186.376 221.339 184.682 223.392 184.682H431.522C433.575 184.682 435.271 186.376 435.271 188.427C435.271 190.478 433.575 192.172 431.522 192.172Z" fill="url(#paint6_linear)"/>
</g>
<path d="M598.331 296.507C598.331 296.507 584.408 317.463 598.331 331.999H427.774C427.774 331.999 410.281 328.164 410.281 314.253C410.281 300.342 415.904 291.068 441.072 291.959C466.33 292.762 598.331 296.507 598.331 296.507Z" fill="url(#paint7_linear)"/>
<path d="M598.33 342.165H433.218C417.689 342.165 405.016 329.68 405.016 314.253C405.016 298.826 417.689 286.341 433.218 286.341H598.33V296.507H433.218C423.312 296.507 415.279 304.444 415.279 314.253C415.279 324.062 423.312 331.999 433.218 331.999H598.33V342.165Z" fill="url(#paint8_linear)" fill-opacity="0.47"/>
<path d="M598.687 286.609H424.115C421.348 286.609 419.206 284.379 419.206 281.704V245.142C419.206 242.378 421.437 240.238 424.115 240.238H598.687C601.454 240.238 603.596 242.467 603.596 245.142V281.704C603.685 284.379 601.454 286.609 598.687 286.609Z" fill="url(#paint9_linear)"/>
<g opacity="0.67">
<path opacity="0.67" d="M579.767 276.621H443.304V250.493H579.767V276.621ZM444.732 275.016H578.339V252.187H444.732V275.016Z" fill="#FFE0AE"/>
</g>
<g opacity="0.67">
<path opacity="0.67" d="M562.988 262.71H458.208V264.404H562.988V262.71Z" fill="#FFE0AE"/>
</g>
<path d="M452.496 350.102L444.642 339.401L436.878 350.102V324.419H452.496V350.102Z" fill="url(#paint10_linear)"/>
<path d="M78.5399 320.495H198.313C203.4 331.91 215.003 340.203 228.569 340.203C242.135 340.203 253.737 331.821 258.824 320.495H235.798C229.551 320.495 224.285 315.323 224.285 308.992V305.157C224.285 298.915 229.461 293.654 235.798 293.654H258.824C253.737 282.239 242.135 273.946 228.569 273.946C215.092 273.946 203.49 282.239 198.313 293.654H78.5399C73.4527 282.239 61.8502 273.946 48.2842 273.946C34.7183 273.946 23.2051 282.328 18.0286 293.654H41.9475C48.3735 293.654 53.7285 299.004 53.7285 305.425V308.635C53.7285 315.056 48.3735 320.406 41.9475 320.406H18.0286C23.1158 331.821 34.7183 340.114 48.2842 340.114C61.761 340.203 73.4527 331.91 78.5399 320.495Z" fill="url(#paint11_linear)"/>
<path d="M74.7913 320.674H192.779C197.777 332.088 209.201 340.381 222.5 340.381C235.798 340.381 247.222 331.999 252.22 320.674H229.55C223.392 320.674 218.305 315.502 218.305 309.17V305.336C218.305 299.093 223.392 293.832 229.55 293.832H252.22C247.222 282.418 235.798 274.124 222.5 274.124C209.201 274.124 197.777 282.418 192.779 293.832H74.7913C69.7933 282.418 58.3694 274.124 45.0711 274.124C31.7729 274.124 20.349 282.507 15.351 293.832H38.8237C45.1604 293.832 50.4261 299.183 50.4261 305.603V308.813C50.4261 315.234 45.1604 320.585 38.8237 320.585H15.2617C20.2597 331.999 31.6837 340.292 44.9819 340.292C58.2801 340.471 69.7041 332.088 74.7913 320.674Z" fill="url(#paint12_linear)"/>
<path d="M74.7913 320.674H192.779C197.777 332.088 209.201 340.381 222.5 340.381C235.798 340.381 247.222 331.999 252.22 320.674H229.55C223.392 320.674 218.305 315.502 218.305 309.17V305.336C218.305 299.093 223.392 293.832 229.55 293.832H252.22C247.222 282.418 235.798 274.124 222.5 274.124C209.201 274.124 197.777 282.418 192.779 293.832H74.7913C69.7933 282.418 58.3694 274.124 45.0711 274.124C31.7729 274.124 20.349 282.507 15.351 293.832H38.8237C45.1604 293.832 50.4261 299.183 50.4261 305.603V308.813C50.4261 315.234 45.1604 320.585 38.8237 320.585H15.2617C20.2597 331.999 31.6837 340.292 44.9819 340.292C58.2801 340.471 69.7041 332.088 74.7913 320.674Z" fill="url(#paint13_linear)"/>
<path d="M123.254 329.413V335.388L132.804 341.095V329.413H123.254Z" fill="url(#paint14_linear)"/>
<path d="M158.24 328.432V337.082L167.7 340.114V328.432H158.24Z" fill="url(#paint15_linear)"/>
<path d="M121.201 333.426C124.86 332.356 129.234 332.445 129.948 332.98L135.213 334.139C135.66 333.337 136.909 324.954 136.641 323.438L135.124 303.374C135.392 299.539 135.927 293.208 135.927 287.322C135.927 279.475 136.552 271.984 136.552 270.914C136.82 270.201 138.069 263.067 138.248 260.213C138.426 257.894 142.442 222.135 143.96 212.95L150.921 266.634C150.921 266.723 153.509 279.207 153.242 282.953C152.974 286.787 153.509 296.061 153.688 297.667L154.134 310.597C154.134 313.005 155.294 325.757 155.384 326.292L156.098 332.623L167.343 332.267C168.682 332.445 169.842 333.337 170.021 331.999L170.556 326.47C170.913 325.578 170.467 321.655 170.467 320.852L171.895 309.259C172.073 305.603 170.467 268.239 170.467 266.634C170.467 266.634 170.556 256.557 170.913 253.257C171.002 252.366 171.716 244.964 171.984 238.811C172.252 232.39 172.787 209.026 172.787 208.848C172.787 208.759 173.144 206.173 172.966 204.389C172.787 202.071 173.144 198.504 173.234 198.861L173.144 198.415L115.935 195.918H115.757L115.578 196.096C115.4 196.185 114.15 197.345 114.329 198.593L113.258 215.625L117.274 265.92L117.185 283.131C117.185 284.469 117.542 316.572 117.81 318.534L119.952 326.916C120.398 328.254 120.309 331.018 120.309 331.018C120.666 331.821 121.201 333.426 121.201 333.426Z" fill="url(#paint16_linear)"/>
<path d="M113.169 197.79C113.347 198.058 118.881 202.16 125.753 204.033C132.536 205.816 146.727 206.173 147.351 206.173C147.619 206.173 154.67 205.727 156.723 205.37C163.059 204.3 166.897 203.319 168.236 202.428C170.021 201.268 173.055 199.574 173.055 199.574L173.412 199.396L173.323 199.039C173.323 198.861 170.11 177.459 170.11 174.783L168.95 164.439C170.913 164.528 178.053 164.885 180.195 163.993C182.694 163.012 185.104 160.604 184.212 150.617C184.033 148.387 183.855 146.069 183.676 143.483C183.141 135.546 180.463 126.807 179.392 120.208C177.696 109.864 176.179 108.526 170.556 105.583C167.343 103.889 157.972 100.144 154.313 98.3602C153.42 97.9143 152.349 97.2901 151.278 97.1117L134.321 96.1308C132.268 95.9525 131.197 96.8442 128.787 97.736C128.341 97.9143 126.378 98.8952 126.288 98.9844L111.83 105.851C111.562 106.029 105.94 109.507 105.315 112.985C104.69 116.552 109.509 159.802 110.223 161.853C111.205 164.35 114.15 166.312 115.221 167.114L113.169 197.79Z" fill="url(#paint17_linear)"/>
<path d="M184.39 156.592C184.39 156.502 184.39 156.502 184.39 156.413C184.301 154.719 184.033 141.521 182.337 133.673C180.463 125.291 178.321 112.361 177.161 110.399C176 108.526 172.698 108.615 172.698 108.615C172.698 108.615 168.771 116.463 168.771 119.316C168.771 122.17 167.7 131.712 168.771 136.26C169.485 139.113 168.593 145.801 167.879 150.438C159.311 150.973 150.832 149.636 150.832 149.636L145.031 159.623C145.031 159.623 158.061 164.706 160.471 166.668C162.881 168.63 175.108 168.63 180.195 167.203C185.193 165.777 184.39 157.751 184.39 156.592Z" fill="url(#paint18_linear)"/>
<path d="M133.25 98.3602C133.16 100.5 134.321 102.551 136.195 103.532C137.891 104.424 140.3 105.048 143.424 105.048C144.941 105.048 146.369 104.87 147.53 104.602C150.118 103.978 151.992 101.66 151.903 98.8952L151.724 92.653C151.724 92.3855 151.457 92.1179 151.189 92.1179L133.16 91.9396C132.982 91.9396 132.893 92.0288 132.803 92.1179C132.714 92.2071 132.625 92.3854 132.625 92.4746L133.16 95.6849L133.25 98.3602Z" fill="url(#paint19_linear)"/>
<path d="M155.652 154.362L158.597 155.7V156.681C158.597 156.681 156.723 157.394 155.919 157.394C155.116 157.483 149.226 157.662 149.226 157.662H106.743L99.4243 156.413H153.777L155.652 154.362Z" fill="url(#paint20_linear)"/>
<g opacity="0.52">
<g opacity="0.52">
<g opacity="0.52">
<path opacity="0.52" d="M166.183 114.59C166.451 114.679 166.361 115.303 166.361 115.482C166.361 115.839 166.272 116.195 166.183 116.463C166.004 116.998 166.808 117.176 166.986 116.641C167.254 115.839 167.432 114.323 166.54 113.787C166.094 113.609 165.737 114.323 166.183 114.59Z" fill="white"/>
</g>
<g opacity="0.52">
<path opacity="0.52" d="M160.025 108.526C160.293 108.08 160.828 107.902 161.364 107.991C161.899 108.08 162.078 107.278 161.542 107.188C160.65 107.01 159.757 107.456 159.311 108.169C159.043 108.615 159.757 108.972 160.025 108.526Z" fill="white"/>
</g>
<g opacity="0.52">
<path opacity="0.52" d="M172.698 101.214C171.449 101.303 171.181 102.551 171.092 103.622C171.092 104.157 171.895 104.335 171.895 103.8C171.895 103.176 171.984 102.195 172.787 102.106C173.323 102.016 173.234 101.125 172.698 101.214Z" fill="white"/>
</g>
<g opacity="0.52">
<path opacity="0.52" d="M145.745 105.405C146.369 105.405 146.905 105.762 147.083 106.386C147.262 106.921 148.065 106.653 147.887 106.118C147.619 105.137 146.637 104.513 145.655 104.602C145.12 104.602 145.209 105.494 145.745 105.405Z" fill="white"/>
</g>
<g opacity="0.52">
<path opacity="0.52" d="M155.384 98.0927C154.67 98.1818 154.134 98.8061 154.134 99.5195C154.134 99.787 154.402 99.8762 154.581 99.8762C154.848 99.8762 154.938 99.6978 154.938 99.4303C154.938 99.1628 155.205 98.8952 155.473 98.8952C155.652 98.8952 155.919 98.7169 155.83 98.4494C155.83 98.271 155.562 98.0927 155.384 98.0927Z" fill="white"/>
</g>
<g opacity="0.52">
<path opacity="0.52" d="M176.804 121.546C177.25 121.011 177.607 120.386 177.785 119.673C177.875 119.138 177.071 118.96 176.982 119.495C176.893 120.03 176.625 120.565 176.179 120.921C175.822 121.367 176.447 121.992 176.804 121.546Z" fill="white"/>
</g>
<g opacity="0.52">
<path opacity="0.52" d="M174.394 130.642C173.144 130.731 172.877 131.979 172.787 133.049C172.787 133.584 173.591 133.763 173.591 133.228C173.591 132.603 173.68 131.622 174.483 131.533C175.019 131.444 174.929 130.642 174.394 130.642Z" fill="white"/>
</g>
<g opacity="0.52">
<path opacity="0.52" d="M164.041 122.17C164.219 122.17 164.13 122.527 164.13 122.616C164.13 122.883 164.041 123.151 164.041 123.418C164.041 123.953 164.933 123.864 164.844 123.329C164.844 122.883 164.933 122.527 164.844 122.081C164.755 121.724 164.487 121.367 164.13 121.278C163.684 121.189 163.505 121.992 164.041 122.17Z" fill="white"/>
</g>
<g opacity="0.52">
<path opacity="0.52" d="M187.96 149.368C188.138 149.368 188.049 149.725 188.049 149.814C188.049 150.082 187.96 150.349 187.96 150.617C187.96 151.152 188.852 151.063 188.763 150.528C188.763 150.082 188.852 149.725 188.763 149.279C188.674 148.922 188.406 148.566 188.049 148.477C187.603 148.387 187.424 149.19 187.96 149.368Z" fill="white"/>
</g>
<g opacity="0.52">
<path opacity="0.52" d="M144.317 119.138C144.941 119.316 145.566 119.049 146.013 118.692C146.548 118.246 147.083 117.8 147.173 117.087C147.262 116.552 146.459 116.374 146.37 116.909C146.28 117.355 145.923 117.711 145.566 117.979C145.299 118.246 144.941 118.514 144.495 118.335C143.96 118.157 143.781 119.049 144.317 119.138Z" fill="white"/>
</g>
<g opacity="0.52">
<path opacity="0.52" d="M156.098 124.756C155.384 124.845 154.848 125.469 154.848 126.183C154.848 126.45 155.116 126.539 155.294 126.539C155.562 126.539 155.651 126.361 155.651 126.094C155.651 125.826 155.919 125.559 156.187 125.559C156.365 125.559 156.633 125.38 156.544 125.113C156.544 124.934 156.365 124.756 156.098 124.756Z" fill="white"/>
</g>
<g opacity="0.52">
<path opacity="0.52" d="M148.244 144.375C147.53 144.464 146.994 145.088 146.994 145.801C146.994 146.069 147.262 146.158 147.44 146.158C147.708 146.158 147.797 145.98 147.797 145.712C147.797 145.445 148.065 145.177 148.333 145.177C148.511 145.177 148.779 144.999 148.69 144.731C148.69 144.553 148.511 144.285 148.244 144.375Z" fill="white"/>
</g>
<g opacity="0.52">
<path opacity="0.52" d="M179.303 143.929C179.749 143.394 180.106 142.769 180.284 142.056C180.374 141.521 179.57 141.343 179.481 141.878C179.392 142.413 179.124 142.948 178.678 143.304C178.41 143.75 178.946 144.285 179.303 143.929Z" fill="white"/>
</g>
<g opacity="0.52">
<path opacity="0.52" d="M133.964 117.265C134.232 117.354 134.142 117.979 134.142 118.157C134.142 118.514 134.053 118.87 133.964 119.138C133.785 119.673 134.589 119.851 134.767 119.316C135.035 118.514 135.213 116.998 134.321 116.463C133.875 116.284 133.518 116.998 133.964 117.265Z" fill="white"/>
</g>
<g opacity="0.52">
<path opacity="0.52" d="M120.665 116.017C120.933 115.571 121.469 115.393 122.004 115.482C122.54 115.571 122.718 114.768 122.183 114.679C121.29 114.501 120.398 114.947 119.951 115.66C119.594 116.017 120.398 116.463 120.665 116.017Z" fill="white"/>
</g>
<g opacity="0.52">
<path opacity="0.52" d="M135.659 106.832C134.41 106.921 134.142 108.169 134.053 109.24C134.053 109.775 134.856 109.953 134.856 109.418C134.856 108.794 134.945 107.813 135.749 107.724C136.284 107.634 136.195 106.743 135.659 106.832Z" fill="white"/>
</g>
<g opacity="0.52">
<path opacity="0.52" d="M126.199 101.035C126.378 101.035 126.288 101.392 126.288 101.481C126.288 101.749 126.199 102.016 126.199 102.284C126.199 102.819 127.092 102.73 127.002 102.195C127.002 101.749 127.092 101.392 127.002 100.946C126.913 100.59 126.645 100.233 126.288 100.144C125.842 100.144 125.664 100.946 126.199 101.035Z" fill="white"/>
</g>
<g opacity="0.52">
<path opacity="0.52" d="M107.635 108.08C108.26 108.08 108.795 108.437 108.974 109.061C109.152 109.596 109.956 109.329 109.777 108.794C109.509 107.813 108.528 107.189 107.546 107.278C107.1 107.278 107.1 108.169 107.635 108.08Z" fill="white"/>
</g>
<g opacity="0.52">
<path opacity="0.52" d="M117.274 100.768C116.56 100.857 116.025 101.481 116.025 102.195C116.025 102.462 116.292 102.551 116.471 102.551C116.739 102.551 116.828 102.373 116.828 102.106C116.828 101.838 117.096 101.57 117.363 101.57C117.542 101.57 117.81 101.392 117.72 101.125C117.72 100.946 117.542 100.768 117.274 100.768Z" fill="white"/>
</g>
<g opacity="0.52">
<path opacity="0.52" d="M125.931 124.845C126.11 124.845 126.021 125.202 126.021 125.291C126.021 125.559 125.931 125.826 125.931 126.094C125.931 126.629 126.824 126.539 126.735 126.004C126.735 125.559 126.824 125.202 126.735 124.756C126.645 124.399 126.378 124.043 126.021 123.953C125.574 123.864 125.485 124.667 125.931 124.845Z" fill="white"/>
</g>
<g opacity="0.52">
<path opacity="0.52" d="M108.349 134.744C108.974 134.744 109.509 135.1 109.688 135.725C109.866 136.26 110.67 135.992 110.491 135.457C110.223 134.476 109.242 133.852 108.26 133.941C107.814 133.941 107.814 134.833 108.349 134.744Z" fill="white"/>
</g>
<g opacity="0.52">
<path opacity="0.52" d="M106.296 121.813C106.921 121.992 107.546 121.724 107.992 121.367C108.528 120.921 109.063 120.476 109.152 119.762C109.242 119.227 108.438 119.049 108.349 119.584C108.26 120.03 107.903 120.386 107.546 120.654C107.278 120.921 106.921 121.189 106.475 121.011C105.939 120.832 105.761 121.724 106.296 121.813Z" fill="white"/>
</g>
<g opacity="0.52">
<path opacity="0.52" d="M118.077 127.431C117.363 127.52 116.828 128.145 116.828 128.858C116.828 129.126 117.096 129.215 117.274 129.215C117.542 129.215 117.631 129.036 117.631 128.769C117.631 128.501 117.899 128.234 118.167 128.234C118.345 128.234 118.613 128.056 118.524 127.788C118.524 127.61 118.256 127.431 118.077 127.431Z" fill="white"/>
</g>
<g opacity="0.52">
<path opacity="0.52" d="M176.804 155.343C177.25 154.808 177.607 154.184 177.785 153.47C177.875 152.935 177.071 152.757 176.982 153.292C176.893 153.827 176.625 154.362 176.179 154.719C175.822 155.254 176.447 155.789 176.804 155.343Z" fill="white"/>
</g>
<g opacity="0.52">
<path opacity="0.52" d="M168.414 142.769C168.593 142.769 168.503 143.126 168.503 143.215C168.503 143.483 168.414 143.75 168.414 144.018C168.414 144.553 169.307 144.464 169.218 143.929C169.218 143.483 169.307 143.126 169.218 142.68C169.128 142.324 168.86 141.967 168.503 141.878C168.057 141.789 167.968 142.591 168.414 142.769Z" fill="white"/>
</g>
<g opacity="0.52">
<path opacity="0.52" d="M159.846 137.33C160.292 136.795 160.649 136.17 160.828 135.457C160.917 134.922 160.114 134.744 160.025 135.279C159.935 135.814 159.668 136.349 159.221 136.705C158.864 137.151 159.489 137.686 159.846 137.33Z" fill="white"/>
</g>
<g opacity="0.52">
<path opacity="0.52" d="M162.524 150.795C162.97 150.26 163.327 149.636 163.505 148.922C163.595 148.387 162.791 148.209 162.702 148.744C162.613 149.279 162.345 149.814 161.899 150.171C161.542 150.706 162.167 151.241 162.524 150.795Z" fill="white"/>
</g>
<g opacity="0.52">
<path opacity="0.52" d="M162.345 160.872C162.524 160.872 162.435 161.229 162.435 161.318C162.435 161.585 162.345 161.853 162.345 162.12C162.345 162.655 163.238 162.566 163.149 162.031C163.149 161.585 163.238 161.229 163.149 160.783C163.059 160.426 162.792 160.069 162.435 159.98C161.988 159.891 161.81 160.694 162.345 160.872Z" fill="white"/>
</g>
<g opacity="0.52">
<path opacity="0.52" d="M153.777 155.432C154.223 154.897 154.58 154.273 154.759 153.56C154.848 153.025 154.045 152.846 153.956 153.381C153.866 153.916 153.599 154.451 153.152 154.808C152.795 155.254 153.42 155.789 153.777 155.432Z" fill="white"/>
</g>
<g opacity="0.52">
<path opacity="0.52" d="M151.189 166.936C151.635 166.401 151.992 165.777 152.171 165.063C152.26 164.528 151.457 164.35 151.367 164.885C151.278 165.42 151.01 165.955 150.564 166.312C150.207 166.757 150.832 167.293 151.189 166.936Z" fill="white"/>
</g>
<g opacity="0.52">
<path opacity="0.52" d="M142.889 154.273C143.067 154.273 142.978 154.63 142.978 154.719C142.978 154.986 142.889 155.254 142.889 155.521C142.889 156.056 143.781 155.967 143.692 155.432C143.692 154.986 143.781 154.63 143.692 154.184C143.603 153.827 143.335 153.47 142.978 153.381C142.532 153.292 142.353 154.095 142.889 154.273Z" fill="white"/>
</g>
<g opacity="0.52">
<path opacity="0.52" d="M143.424 171.216C143.603 171.216 143.513 171.573 143.513 171.662C143.513 171.93 143.424 172.197 143.424 172.465C143.424 173 144.317 172.911 144.227 172.375C144.227 171.93 144.317 171.573 144.227 171.127C144.138 170.77 143.87 170.414 143.513 170.324C143.067 170.324 142.889 171.127 143.424 171.216Z" fill="white"/>
</g>
<g opacity="0.52">
<path opacity="0.52" d="M159.935 169.968C160.114 169.968 160.025 170.324 160.025 170.414C160.025 170.681 159.935 170.949 159.935 171.216C159.935 171.751 160.828 171.662 160.739 171.127C160.739 170.681 160.828 170.324 160.739 169.879C160.649 169.522 160.382 169.165 160.025 169.076C159.578 169.076 159.4 169.879 159.935 169.968Z" fill="white"/>
</g>
<g opacity="0.52">
<path opacity="0.52" d="M103.708 166.222C102.994 166.312 102.459 166.936 102.459 167.649C102.459 167.917 102.726 168.006 102.905 168.006C103.173 168.006 103.262 167.828 103.262 167.56C103.262 167.293 103.53 167.025 103.797 167.025C103.976 167.025 104.244 166.847 104.154 166.579C104.154 166.401 103.976 166.222 103.708 166.222Z" fill="white"/>
</g>
<g opacity="0.52">
<path opacity="0.52" d="M134.767 165.777C135.213 165.241 135.57 164.617 135.749 163.904C135.838 163.369 135.035 163.19 134.945 163.726C134.856 164.261 134.588 164.796 134.142 165.152C133.785 165.687 134.41 166.222 134.767 165.777Z" fill="white"/>
</g>
<g opacity="0.52">
<path opacity="0.52" d="M132.268 177.28C132.714 176.745 133.071 176.121 133.25 175.407C133.339 174.872 132.536 174.694 132.446 175.229C132.357 175.764 132.089 176.299 131.643 176.656C131.286 177.102 131.911 177.637 132.268 177.28Z" fill="white"/>
</g>
<g opacity="0.52">
<path opacity="0.52" d="M123.879 164.617C124.057 164.617 123.968 164.974 123.968 165.063C123.968 165.331 123.879 165.598 123.879 165.866C123.879 166.401 124.771 166.312 124.682 165.777C124.682 165.331 124.771 164.974 124.682 164.528C124.593 164.171 124.325 163.815 123.968 163.726C123.522 163.726 123.432 164.528 123.879 164.617Z" fill="white"/>
</g>
<g opacity="0.52">
<path opacity="0.52" d="M110.848 160.872C111.027 160.872 110.937 161.229 110.937 161.318C110.937 161.585 110.848 161.853 110.848 162.12C110.848 162.655 111.741 162.566 111.651 162.031C111.651 161.585 111.741 161.229 111.651 160.783C111.562 160.426 111.294 160.069 110.937 159.98C110.491 159.891 110.313 160.694 110.848 160.872Z" fill="white"/>
</g>
<g opacity="0.52">
<path opacity="0.52" d="M117.988 172.732C118.434 172.197 118.791 171.573 118.97 170.86C119.059 170.325 118.256 170.146 118.167 170.681C118.077 171.216 117.81 171.751 117.363 172.108C117.006 172.554 117.631 173.178 117.988 172.732Z" fill="white"/>
</g>
<g opacity="0.52">
<path opacity="0.52" d="M117.809 182.809C117.988 182.809 117.899 183.166 117.899 183.255C117.899 183.522 117.809 183.79 117.809 184.057C117.809 184.593 118.702 184.503 118.613 183.968C118.613 183.522 118.702 183.166 118.613 182.72C118.523 182.363 118.256 182.006 117.899 181.917C117.452 181.828 117.274 182.631 117.809 182.809Z" fill="white"/>
</g>
<g opacity="0.52">
<path opacity="0.52" d="M109.242 177.369C109.688 176.834 110.045 176.21 110.223 175.497C110.313 174.962 109.509 174.783 109.42 175.318C109.331 175.853 109.063 176.388 108.617 176.745C108.26 177.191 108.885 177.726 109.242 177.369Z" fill="white"/>
</g>
<g opacity="0.52">
<path opacity="0.52" d="M106.653 188.784C107.099 188.249 107.456 187.624 107.635 186.911C107.724 186.376 106.921 186.198 106.832 186.733C106.742 187.268 106.475 187.803 106.028 188.16C105.671 188.695 106.296 189.23 106.653 188.784Z" fill="white"/>
</g>
<g opacity="0.52">
<path opacity="0.52" d="M109.242 203.141C109.688 202.606 110.045 201.982 110.223 201.268C110.313 200.733 109.509 200.555 109.42 201.09C109.331 201.625 109.063 202.16 108.617 202.517C108.26 203.052 108.885 203.587 109.242 203.141Z" fill="white"/>
</g>
<g opacity="0.52">
<path opacity="0.52" d="M98.3537 176.21C98.5322 176.21 98.4429 176.567 98.4429 176.656C98.4429 176.923 98.3537 177.191 98.3537 177.458C98.3537 177.994 99.2462 177.904 99.1569 177.369C99.1569 176.923 99.2462 176.567 99.1569 176.121C99.0677 175.764 98.7999 175.407 98.4429 175.318C97.9967 175.229 97.8182 176.032 98.3537 176.21Z" fill="white"/>
</g>
<g opacity="0.52">
<path opacity="0.52" d="M120.844 206.351C121.023 206.351 120.933 206.708 120.933 206.797C120.933 207.065 120.844 207.332 120.844 207.6C120.844 208.135 121.737 208.046 121.647 207.51C121.647 207.065 121.737 206.708 121.647 206.262C121.558 205.905 121.29 205.549 120.933 205.459C120.487 205.37 120.309 206.173 120.844 206.351Z" fill="white"/>
</g>
<g opacity="0.52">
<path opacity="0.52" d="M131.286 186.465C130.572 186.554 130.037 187.179 130.037 187.892C130.037 188.16 130.305 188.249 130.483 188.249C130.751 188.249 130.84 188.07 130.84 187.803C130.84 187.535 131.108 187.268 131.376 187.268C131.554 187.268 131.822 187.089 131.733 186.822C131.733 186.644 131.554 186.465 131.286 186.465Z" fill="white"/>
</g>
<g opacity="0.52">
<path opacity="0.52" d="M117.72 191.37C117.006 191.459 116.471 192.083 116.471 192.797C116.471 193.064 116.739 193.153 116.917 193.153C117.185 193.153 117.274 192.975 117.274 192.707C117.274 192.44 117.542 192.172 117.81 192.172C117.988 192.172 118.256 191.994 118.167 191.727C118.167 191.548 117.899 191.37 117.72 191.37Z" fill="white"/>
</g>
<g opacity="0.52">
<path opacity="0.52" d="M144.227 185.484C144.674 184.949 145.031 184.325 145.209 183.612C145.298 183.077 144.495 182.898 144.406 183.433C144.317 183.968 144.049 184.503 143.603 184.86C143.246 185.306 143.87 185.93 144.227 185.484Z" fill="white"/>
</g>
<g opacity="0.52">
<path opacity="0.52" d="M150.207 196.096C150.386 196.096 150.296 196.453 150.296 196.542C150.296 196.809 150.207 197.077 150.207 197.345C150.207 197.88 151.1 197.79 151.01 197.255C151.01 196.809 151.1 196.453 151.01 196.007C150.921 195.65 150.653 195.294 150.296 195.204C149.85 195.115 149.672 195.918 150.207 196.096Z" fill="white"/>
</g>
<g opacity="0.52">
<path opacity="0.52" d="M136.82 197.612C137.266 197.077 137.623 196.453 137.801 195.739C137.891 195.204 137.087 195.026 136.998 195.561C136.909 196.096 136.641 196.631 136.195 196.988C135.838 197.434 136.463 197.969 136.82 197.612Z" fill="white"/>
</g>
<g opacity="0.52">
<path opacity="0.52" d="M134.232 209.026C134.678 208.491 135.035 207.867 135.213 207.154C135.303 206.619 134.499 206.44 134.41 206.975C134.321 207.511 134.053 208.046 133.607 208.402C133.25 208.937 133.875 209.472 134.232 209.026Z" fill="white"/>
</g>
<g opacity="0.52">
<path opacity="0.52" d="M145.477 209.026C145.923 208.491 146.28 207.867 146.459 207.154C146.548 206.619 145.745 206.44 145.655 206.975C145.566 207.511 145.298 208.046 144.852 208.402C144.495 208.937 145.12 209.472 145.477 209.026Z" fill="white"/>
</g>
<g opacity="0.52">
<path opacity="0.52" d="M125.931 196.453C126.11 196.453 126.021 196.81 126.021 196.899C126.021 197.166 125.931 197.434 125.931 197.701C125.931 198.236 126.824 198.147 126.735 197.612C126.735 197.166 126.824 196.81 126.735 196.364C126.645 196.007 126.378 195.65 126.021 195.561C125.574 195.472 125.396 196.274 125.931 196.453Z" fill="white"/>
</g>
<g opacity="0.52">
<path opacity="0.52" d="M174.483 200.377C174.93 199.841 175.287 199.217 175.465 198.504C175.554 197.969 174.751 197.79 174.662 198.325C174.573 198.861 174.305 199.396 173.859 199.752C173.502 200.198 174.126 200.733 174.483 200.377Z" fill="white"/>
</g>
<g opacity="0.52">
<path opacity="0.52" d="M171.895 211.88C172.341 211.345 172.698 210.721 172.877 210.007C172.966 209.472 172.163 209.294 172.073 209.829C171.984 210.364 171.716 210.899 171.27 211.256C170.913 211.702 171.538 212.237 171.895 211.88Z" fill="white"/>
</g>
<g opacity="0.52">
<path opacity="0.52" d="M163.595 199.217C163.773 199.217 163.684 199.574 163.684 199.663C163.684 199.931 163.595 200.198 163.595 200.466C163.595 201.001 164.487 200.912 164.398 200.377C164.398 199.931 164.487 199.574 164.398 199.128C164.309 198.771 164.041 198.415 163.684 198.325C163.238 198.236 163.059 199.039 163.595 199.217Z" fill="white"/>
</g>
<g opacity="0.52">
<path opacity="0.52" d="M192.155 161.139C192.601 160.604 192.958 159.98 193.136 159.267C193.226 158.732 192.422 158.553 192.333 159.088C192.244 159.623 191.976 160.159 191.53 160.515C191.173 160.961 191.798 161.496 192.155 161.139Z" fill="white"/>
</g>
<g opacity="0.52">
<path opacity="0.52" d="M191.976 171.127C192.155 171.127 192.065 171.484 192.065 171.573C192.065 171.84 191.976 172.108 191.976 172.375C191.976 172.911 192.869 172.821 192.779 172.286C192.779 171.84 192.869 171.484 192.779 171.038C192.69 170.681 192.422 170.324 192.065 170.235C191.619 170.235 191.441 171.038 191.976 171.127Z" fill="white"/>
</g>
<g opacity="0.52">
<path opacity="0.52" d="M183.319 165.687C183.765 165.152 184.122 164.528 184.301 163.815C184.39 163.28 183.587 163.101 183.498 163.636C183.408 164.171 183.14 164.706 182.694 165.063C182.337 165.598 182.962 166.133 183.319 165.687Z" fill="white"/>
</g>
<g opacity="0.52">
<path opacity="0.52" d="M180.82 177.191C181.266 176.656 181.623 176.032 181.802 175.318C181.891 174.783 181.088 174.605 180.998 175.14C180.909 175.675 180.641 176.21 180.195 176.567C179.838 177.013 180.463 177.637 180.82 177.191Z" fill="white"/>
</g>
<g opacity="0.52">
<path opacity="0.52" d="M172.43 164.528C172.609 164.528 172.52 164.885 172.52 164.974C172.52 165.241 172.43 165.509 172.43 165.777C172.43 166.312 173.323 166.222 173.234 165.687C173.234 165.242 173.323 164.885 173.234 164.439C173.144 164.082 172.877 163.726 172.52 163.636C172.073 163.636 171.984 164.439 172.43 164.528Z" fill="white"/>
</g>
<g opacity="0.52">
<path opacity="0.52" d="M175.733 186.108C175.911 186.108 175.822 186.465 175.822 186.554C175.822 186.822 175.733 187.089 175.733 187.357C175.733 187.892 176.625 187.803 176.536 187.268C176.536 186.822 176.625 186.465 176.536 186.019C176.447 185.663 176.179 185.306 175.822 185.217C175.376 185.128 175.197 185.93 175.733 186.108Z" fill="white"/>
</g>
<g opacity="0.52">
<path opacity="0.52" d="M188.585 188.516C188.763 188.516 188.674 188.873 188.674 188.962C188.674 189.23 188.585 189.497 188.585 189.765C188.585 190.3 189.477 190.211 189.388 189.675C189.388 189.23 189.477 188.873 189.388 188.427C189.299 188.07 189.031 187.714 188.674 187.624C188.228 187.624 188.049 188.427 188.585 188.516Z" fill="white"/>
</g>
<g opacity="0.52">
<path opacity="0.52" d="M167.968 178.885C168.414 178.35 168.771 177.726 168.95 177.013C169.039 176.478 168.236 176.299 168.146 176.834C168.057 177.369 167.789 177.904 167.343 178.261C166.986 178.707 167.611 179.331 167.968 178.885Z" fill="white"/>
</g>
<g opacity="0.52">
<path opacity="0.52" d="M160.114 191.191C160.56 190.656 160.917 190.032 161.096 189.319C161.185 188.784 160.382 188.605 160.292 189.14C160.203 189.675 159.935 190.211 159.489 190.567C159.132 191.102 159.757 191.637 160.114 191.191Z" fill="white"/>
</g>
<g opacity="0.52">
<path opacity="0.52" d="M151.814 178.618C151.992 178.618 151.903 178.975 151.903 179.064C151.903 179.331 151.814 179.599 151.814 179.866C151.814 180.401 152.706 180.312 152.617 179.777C152.617 179.331 152.706 178.975 152.617 178.529C152.528 178.172 152.26 177.815 151.903 177.726C151.457 177.637 151.278 178.439 151.814 178.618Z" fill="white"/>
</g>
<g opacity="0.52">
<path opacity="0.52" d="M131.733 155.789C132.179 155.254 132.536 154.63 132.714 153.916C132.804 153.381 132 153.203 131.911 153.738C131.822 154.273 131.554 154.808 131.108 155.165C130.751 155.611 131.376 156.146 131.733 155.789Z" fill="white"/>
</g>
<g opacity="0.52">
<path opacity="0.52" d="M146.994 135.725C147.173 135.725 147.084 136.081 147.084 136.17C147.084 136.438 146.994 136.706 146.994 136.973C146.994 137.508 147.887 137.419 147.798 136.884C147.798 136.438 147.887 136.081 147.798 135.635C147.708 135.279 147.441 134.922 147.084 134.833C146.637 134.833 146.459 135.635 146.994 135.725Z" fill="white"/>
</g>
<g opacity="0.52">
<path opacity="0.52" d="M138.426 130.285C138.872 129.75 139.229 129.126 139.408 128.412C139.497 127.877 138.694 127.699 138.605 128.234C138.515 128.769 138.248 129.304 137.801 129.661C137.444 130.196 138.069 130.731 138.426 130.285Z" fill="white"/>
</g>
<g opacity="0.52">
<path opacity="0.52" d="M135.838 141.788C136.284 141.253 136.641 140.629 136.82 139.916C136.909 139.381 136.106 139.202 136.017 139.737C135.927 140.272 135.66 140.808 135.213 141.164C134.856 141.61 135.481 142.234 135.838 141.788Z" fill="white"/>
</g>
<g opacity="0.52">
<g opacity="0.52">
<path opacity="0.52" d="M98.3535 151.687C98.9782 151.687 99.5137 152.044 99.6922 152.668C99.8707 153.203 100.674 152.935 100.495 152.4C100.228 151.419 99.246 150.795 98.2642 150.884C97.818 150.884 97.818 151.687 98.3535 151.687Z" fill="white"/>
</g>
<g opacity="0.52">
<path opacity="0.52" d="M98.0854 138.757C98.7101 138.935 99.3349 138.667 99.7811 138.311C100.317 137.865 100.852 137.419 100.941 136.706C101.031 136.17 100.227 135.992 100.138 136.527C100.049 136.973 99.6919 137.33 99.3349 137.597C99.0671 137.865 98.7101 138.132 98.2639 137.954C97.8176 137.776 97.6391 138.578 98.0854 138.757Z" fill="white"/>
</g>
<g opacity="0.52">
<path opacity="0.52" d="M108.974 143.394C108.26 143.483 107.724 144.107 107.724 144.82C107.724 145.088 107.992 145.177 108.171 145.177C108.438 145.177 108.528 144.999 108.528 144.731C108.528 144.464 108.795 144.196 109.063 144.196C109.242 144.196 109.509 144.018 109.42 143.75C109.42 143.572 109.152 143.394 108.974 143.394Z" fill="white"/>
</g>
</g>
<g opacity="0.52">
<path opacity="0.52" d="M125.396 136.616C126.021 136.616 126.556 136.973 126.735 137.597C126.913 138.132 127.716 137.865 127.538 137.33C127.27 136.349 126.288 135.725 125.307 135.814C124.771 135.814 124.86 136.616 125.396 136.616Z" fill="white"/>
</g>
<g opacity="0.52">
<g opacity="0.52">
<path opacity="0.52" d="M115.4 153.47C116.025 153.47 116.561 153.827 116.739 154.451C116.918 154.986 117.721 154.719 117.542 154.184C117.275 153.203 116.293 152.579 115.311 152.668C114.776 152.757 114.865 153.56 115.4 153.47Z" fill="white"/>
</g>
<g opacity="0.52">
<path opacity="0.52" d="M115.132 140.54C115.757 140.718 116.382 140.451 116.828 140.094C117.363 139.648 117.899 139.202 117.988 138.489C118.077 137.954 117.274 137.776 117.185 138.311C117.096 138.756 116.739 139.113 116.382 139.381C116.114 139.648 115.757 139.916 115.311 139.737C114.775 139.648 114.597 140.451 115.132 140.54Z" fill="white"/>
</g>
<g opacity="0.52">
<path opacity="0.52" d="M125.931 145.266C125.217 145.355 124.682 145.98 124.682 146.693C124.682 146.961 124.95 147.05 125.128 147.05C125.396 147.05 125.485 146.871 125.485 146.604C125.485 146.336 125.753 146.069 126.021 146.069C126.199 146.069 126.467 145.89 126.378 145.623C126.378 145.445 126.199 145.177 125.931 145.266Z" fill="white"/>
</g>
</g>
</g>
</g>
<path d="M154.134 156.502H99.4242C98.4425 156.502 97.6392 155.789 97.6392 154.808L95.765 118.157C95.6757 117.087 96.5682 116.284 97.55 116.284H152.26C153.242 116.284 154.045 116.998 154.045 117.979L155.919 154.63C156.009 155.611 155.116 156.502 154.134 156.502Z" fill="url(#paint21_linear)"/>
<path opacity="0.75" d="M125.664 139.47C127.29 139.47 128.609 138.152 128.609 136.527C128.609 134.902 127.29 133.584 125.664 133.584C124.037 133.584 122.718 134.902 122.718 136.527C122.718 138.152 124.037 139.47 125.664 139.47Z" fill="white"/>
<path d="M131.822 79.6334L130.305 74.1937L134.678 75.353L131.822 79.6334Z" fill="#000105"/>
<path d="M137.534 71.9643C142.71 69.4674 148.958 71.6968 151.457 76.869C151.546 77.0473 151.635 77.1365 151.635 77.3148C153.063 77.0473 154.491 77.7607 155.116 79.0983C155.919 80.7035 155.205 82.5762 153.599 83.3788C153.153 83.6463 152.617 83.7355 152.171 83.6463C151.457 86.6782 149.493 89.2643 146.548 90.6911C141.372 93.188 135.124 90.9586 132.625 85.7865C130.126 80.7035 132.357 74.4612 137.534 71.9643Z" fill="url(#paint22_linear)"/>
<path d="M132.893 66.703C136.552 65.3654 142.264 65.6329 146.727 65.187C148.958 65.0087 151.1 65.6329 151.992 67.1489C152.796 68.5757 154.313 74.5504 153.777 77.5824C153.51 77.404 152.974 77.404 152.706 77.404C151.814 77.5824 151.368 78.0282 150.921 78.7416C150.029 77.3148 151.011 74.1045 144.317 74.4612C141.996 75.888 139.676 76.6014 138.516 77.0473C135.303 78.2066 131.197 77.404 130.126 74.4612C128.966 71.5184 129.769 67.8623 132.893 66.703Z" fill="url(#paint23_linear)"/>
<path d="M132.179 84.3597C132.804 85.9648 132.625 85.6081 133.161 86.3215C133.875 87.4808 136.017 88.5509 137.534 87.1241C138.159 86.589 138.873 86.2323 139.587 86.1432C140.301 86.054 141.015 86.3215 141.639 86.7674C143.781 88.3725 147.084 87.0349 148.779 84.8947C149.315 84.2705 149.583 83.8246 150.118 83.1112C150.207 82.9329 150.386 82.8437 150.386 82.8437C151.1 83.6463 152.082 83.5571 153.153 83.5571L153.242 89.0859C153.242 95.5066 147.976 100.144 141.015 100.679C137.445 100.946 134.321 99.5194 133.161 94.4365C131.733 88.6401 132.179 86.4999 132.179 84.3597Z" fill="url(#paint24_linear)"/>
<path d="M125.128 166.579C128.698 167.471 131.286 166.222 132.536 164.706C132.893 164.261 133.785 163.101 134.142 161.585C134.41 161.318 134.767 161.05 134.946 160.872C135.749 160.337 136.731 160.159 137.266 156.681C137.266 156.681 137.712 153.292 137.266 153.025C136.82 152.757 135.838 153.381 135.57 154.362C135.303 155.343 135.124 156.413 135.124 156.413C134.946 157.84 134.232 157.84 134.142 157.84C134.053 155.967 133.875 155.165 133.518 153.738C133.428 153.381 133.339 153.114 133.25 152.935C133.071 152.489 132.893 152.133 132.714 151.865C132.179 151.063 130.394 150.171 128.877 149.458C128.341 149.19 127.716 149.012 127.181 148.833C126.645 148.655 126.199 148.566 126.021 148.655C125.574 148.922 125.396 154.184 125.307 155.878C125.307 155.789 125.307 155.7 125.217 155.7C125.039 153.649 124.593 148.031 123.165 149.012C122.004 149.814 122.272 154.451 122.183 156.77C122.094 157.216 121.915 157.572 121.558 157.84H119.238H116.917H118.077C118.077 157.84 115.935 157.751 114.954 157.84C113.972 157.929 113.883 158.821 113.883 159.088C113.883 159.356 114.329 159.891 115.489 160.337C116.471 160.694 117.899 161.05 118.434 161.318C119.595 161.942 120.041 162.388 120.844 163.28C121.826 164.171 123.789 166.222 125.128 166.579Z" fill="url(#paint25_linear)"/>
<path d="M169.842 344.127C170.556 343.592 171.002 341.63 170.467 340.917C169.039 339.133 166.629 335.923 163.862 335.655C159.935 335.299 154.491 339.401 154.402 342.076C154.313 344.038 156.544 346.267 161.542 346.267C165.647 346.267 168.146 345.286 169.842 344.127Z" fill="#2B2B2B"/>
<path d="M169.842 343.057C170.556 342.522 171.002 340.56 170.467 339.846C169.039 338.063 166.629 334.853 163.862 334.585C159.936 334.228 155.562 338.509 154.402 341.095C153.956 342.165 156.544 345.197 161.542 345.197C165.647 345.197 168.146 344.216 169.842 343.057Z" fill="url(#paint26_linear)"/>
<path d="M118.077 343.413C117.363 342.878 117.988 341.006 118.524 340.292C119.952 338.509 122.004 335.566 124.771 335.299C128.698 334.942 134.142 339.401 134.232 341.808C134.232 343.592 131.822 345.821 126.735 345.821C122.629 345.821 119.684 344.662 118.077 343.413Z" fill="#2B2B2B"/>
<path d="M118.077 342.254C117.363 341.719 117.988 339.846 118.524 339.133C119.952 337.35 122.004 334.407 124.771 334.139C128.698 333.783 133.518 338.063 134.232 340.649C134.589 341.808 132.09 344.573 127.092 344.573C122.897 344.573 119.684 343.503 118.077 342.254Z" fill="url(#paint27_linear)"/>
<path d="M525.413 328.789C525.413 328.789 525.86 325.846 526.038 324.508C526.217 323.082 531.125 322.101 532.553 322.101C533.981 322.101 534.16 321.744 534.338 322.101C534.517 322.457 535.409 322.814 535.588 324.33C535.766 325.846 535.945 329.859 535.945 329.859C535.945 329.859 535.231 333.337 533.178 333.515C531.036 333.693 527.198 333.337 526.663 332.267C526.038 331.286 525.413 328.789 525.413 328.789Z" fill="#3A3936"/>
<path d="M517.649 235.957L493.64 247.728L504.618 326.381H487.571L469.454 245.767C468.65 242.289 470.168 238.722 473.202 236.849L497.21 222.314L517.649 235.957Z" fill="url(#paint28_linear)"/>
<path d="M473.738 203.587C472.935 202.428 472.756 201.09 473.113 199.752C476.058 188.16 486.947 161.318 487.839 160.159C489.267 158.464 495.336 157.751 495.336 157.751L499.352 177.548L489.714 197.166C488.464 198.593 488.196 200.644 489.089 202.338L494.355 232.39L486.501 234.531L473.738 203.587Z" fill="url(#paint29_linear)"/>
<path d="M530.858 222.224L554.866 236.76C557.9 238.633 559.418 242.2 558.614 245.677L538.087 325.935L523.004 325.489L534.428 247.639L509.795 236.76L530.858 222.224Z" fill="url(#paint30_linear)"/>
<path d="M565.665 205.905C563.344 194.58 549.422 163.101 548.529 161.942C548.529 160.159 541.835 157.662 535.588 155.967C535.231 155.789 534.963 155.7 534.963 155.7V155.789C530.768 154.63 526.931 153.827 525.681 153.827C525.681 153.827 500.959 153.827 493.016 156.77C489.803 157.929 487.393 159.356 487.393 162.388L495.515 229.269L542.549 228.645L544.781 193.599L546.298 196.364C547.369 197.79 551.921 206.44 551.207 208.046L538.533 232.123L549.332 233.728L564.951 209.294C565.665 208.313 565.933 207.154 565.665 205.905Z" fill="url(#paint31_linear)"/>
<path d="M498.371 235.779C498.371 239.346 491.32 238.454 487.661 238.454C484.002 238.454 481.056 235.512 481.056 231.945C481.056 228.378 484.805 226.237 488.375 226.237C492.034 226.148 498.371 232.212 498.371 235.779Z" fill="url(#paint32_linear)"/>
<path d="M551.742 233.104C551.92 229.537 549.154 226.416 545.584 226.237C541.924 226.059 535.945 232.747 535.766 236.314C535.588 239.881 540.229 238.098 543.888 238.365C547.458 238.543 551.474 236.671 551.742 233.104Z" fill="url(#paint33_linear)"/>
<path d="M545.227 240.238H486.233C485.162 240.238 484.358 239.614 484.269 238.722L482.216 206.619C482.127 205.727 483.02 204.924 484.18 204.924H543.174C544.245 204.924 545.048 205.549 545.138 206.44L547.19 238.543C547.28 239.435 546.387 240.238 545.227 240.238Z" fill="url(#paint34_linear)"/>
<path d="M509.259 155.7C509.17 158.91 510.152 161.942 511.669 163.369C513.097 164.706 514.971 165.598 517.559 165.598C518.809 165.598 519.969 165.42 520.951 164.974C523.093 164.082 524.521 160.515 524.521 156.502L524.432 147.139C524.432 146.693 524.253 146.336 523.985 146.336L509.348 146.069C509.259 146.069 509.081 146.158 508.991 146.336C508.902 146.515 508.902 146.693 508.902 146.961L509.348 151.776L509.259 155.7Z" fill="url(#paint35_linear)"/>
<path d="M504.083 141.432L502.387 135.368L507.296 136.705L504.083 141.432Z" fill="#000105"/>
<path d="M510.509 132.871C516.399 130.107 523.361 132.514 526.217 138.311C526.306 138.489 526.395 138.667 526.484 138.846C528.091 138.489 529.697 139.292 530.501 140.808C531.393 142.591 530.59 144.731 528.805 145.623C528.269 145.891 527.734 145.98 527.198 145.98C526.395 149.368 524.164 152.311 520.862 153.916C514.971 156.681 508.01 154.273 505.154 148.477C502.208 142.591 504.618 135.635 510.509 132.871Z" fill="url(#paint36_linear)"/>
<path d="M503.904 125.291C503.904 125.291 515.953 125.826 520.951 125.38C523.539 125.113 525.949 125.915 526.841 127.61C527.734 129.215 529.519 135.814 528.805 139.292C528.448 139.113 527.912 139.024 527.555 139.113C526.574 139.381 526.038 139.827 525.503 140.54C524.521 138.935 525.592 135.279 518.006 135.725C515.417 137.33 512.74 138.132 511.49 138.578C507.92 139.827 503.19 138.935 502.03 135.725C500.87 132.425 503.904 125.291 503.904 125.291Z" fill="url(#paint37_linear)"/>
<path d="M535.409 326.203L534.874 332.623L526.127 332.534L527.377 323.706L535.409 326.203Z" fill="url(#paint38_linear)"/>
<path d="M501.673 323.349L501.137 330.305L498.549 340.649L492.302 338.865L490.07 320.852L501.673 323.349Z" fill="url(#paint39_linear)"/>
<path d="M535.766 331.553C535.766 331.553 537.373 345.821 536.659 348.853C535.945 351.885 532.107 358.93 527.734 358.93C522.468 358.93 522.111 348.318 523.182 342.165C524.342 335.566 525.503 329.68 525.503 329.68C525.503 329.68 526.663 331.018 530.768 330.572C532.286 330.483 533.892 332.802 535.766 331.553Z" fill="#3A3936"/>
<path d="M535.856 328.61C535.856 328.61 537.462 344.305 536.748 347.337C536.034 350.369 532.196 357.414 527.823 357.414C522.557 357.414 522.2 346.802 523.271 340.649C524.432 334.05 525.681 326.916 525.681 326.916C525.681 326.916 525.949 328.967 527.109 329.145C528.002 329.324 529.34 329.056 530.858 329.056C532.286 329.145 535.142 331.107 535.856 328.61Z" fill="url(#paint40_linear)"/>
<path d="M504.351 342.254C504.351 342.254 503.191 342.789 502.388 343.592C501.585 344.305 498.907 349.031 494.802 352.598C490.696 356.165 487.394 359.376 483.824 360C483.824 360 483.11 359.911 482.485 358.93L482.664 358.751C483.556 358.573 489.536 356.076 494.802 350.369C495.159 349.923 495.516 349.566 495.873 349.121C498.193 346.178 499.443 344.662 500.067 343.592C500.424 342.968 500.603 342.611 500.871 342.343C501.138 341.987 501.585 341.808 502.656 341.541L502.834 341.452L502.923 341.273L508.814 334.585C509.349 334.853 510.063 335.298 510.242 335.923C510.51 336.993 504.351 342.254 504.351 342.254Z" fill="#3A3936"/>
<path d="M488.107 348.407C487.929 348.853 487.75 349.477 486.857 350.458C486.143 351.261 485.162 352.153 484.001 353.401C481.592 355.987 482.306 358.573 482.306 358.573C482.306 358.573 482.663 358.484 483.377 358.395C485.697 357.86 490.338 355.006 494.533 350.547C494.89 350.191 495.247 349.745 495.604 349.299C499.174 344.751 499.709 343.235 500.513 342.343C500.959 341.897 501.494 341.719 502.565 341.362L508.367 334.853L508.545 334.585C508.545 334.585 505.6 331.375 500.959 329.859C500.959 329.859 500.423 333.693 498.192 336.101C497.121 337.26 495.604 338.241 493.73 338.598L492.926 337.795C492.569 337.439 492.212 337.171 491.766 337.082C491.32 337.974 490.963 338.776 490.606 339.757C489.981 341.719 489 346.267 488.107 348.407Z" fill="url(#paint41_linear)"/>
<path d="M503.726 327.094H486.768C486.054 327.094 485.429 326.559 485.34 325.846L484.894 321.209C484.805 320.406 485.429 319.693 486.322 319.693H503.279C503.993 319.693 504.618 320.228 504.707 320.941L505.154 325.578C505.243 326.381 504.618 327.094 503.726 327.094Z" fill="url(#paint42_linear)"/>
<path opacity="0.65" d="M514.168 226.327C516.041 226.327 517.559 224.809 517.559 222.938C517.559 221.066 516.041 219.549 514.168 219.549C512.295 219.549 510.776 221.066 510.776 222.938C510.776 224.809 512.295 226.327 514.168 226.327Z" fill="white"/>
<path d="M521.933 326.916H538.89C539.604 326.916 540.229 326.381 540.318 325.668L540.764 321.03C540.854 320.228 540.229 319.514 539.336 319.514H522.379C521.665 319.514 521.04 320.05 520.951 320.763L520.505 325.4C520.505 326.203 521.129 326.916 521.933 326.916Z" fill="url(#paint43_linear)"/>
<g opacity="0.52">
<g opacity="0.52">
<g opacity="0.52">
<path opacity="0.52" d="M544.87 189.319H490.784V190.032H544.87V189.319Z" fill="#E2E2E2"/>
</g>
<g opacity="0.52">
<path opacity="0.52" d="M544.87 193.51H490.784V194.223H544.87V193.51Z" fill="#E2E2E2"/>
</g>
<g opacity="0.52">
<path opacity="0.52" d="M545.405 197.701H490.784V198.415H545.405V197.701Z" fill="#E2E2E2"/>
</g>
<g opacity="0.52">
<path opacity="0.52" d="M545.405 201.893H490.784V202.606H545.405V201.893Z" fill="#E2E2E2"/>
</g>
</g>
</g>
<path d="M363.068 217.855C363.068 219.906 361.551 221.511 359.677 221.511C357.802 221.511 356.285 219.906 356.285 217.855C356.285 215.804 357.802 214.199 359.677 214.199C361.551 214.288 363.068 215.893 363.068 217.855Z" fill="url(#paint44_linear)"/>
<path d="M376.456 252.276L343.076 252.901L344.504 237.919C344.683 236.047 345.04 233.282 345.664 231.499C348.074 224.9 353.429 219.995 360.034 219.995C367.888 220.084 374.581 226.951 375.385 235.333C375.92 240.594 376.456 252.276 376.456 252.276Z" fill="url(#paint45_linear)"/>
<path d="M377.884 339.401H333.348C331.831 339.401 330.581 338.152 330.581 336.636C330.581 335.12 331.831 333.872 333.348 333.872H377.884C379.401 333.872 380.65 335.12 380.65 336.636C380.65 338.152 379.401 339.401 377.884 339.401Z" fill="url(#paint46_linear)"/>
<path d="M375.385 308.1L379.133 285.806C383.863 281.348 384.131 274.303 384.131 271.182C384.131 268.06 384.131 259.41 384.131 259.41C384.131 259.41 367.709 251.831 358.873 251.741C352.001 252.187 343.255 255.308 338.257 257.181C335.936 257.984 334.419 259.946 334.419 262.442V271.003C332.812 280.188 339.952 286.163 339.952 286.163L340.934 308.903L375.385 308.1Z" fill="url(#paint47_linear)"/>
<path d="M370.565 308.278H346.021V311.4H370.565V308.278Z" fill="#8C0E0E"/>
<path d="M335.401 296.596V258.34C332.098 260.57 326.833 267.169 325.315 272.252C324.066 276.621 314.784 288.303 311.928 293.832C310.589 296.329 308.983 298.826 308.983 301.858C308.983 304.979 310.411 307.654 312.106 310.062C313.356 311.845 315.409 313.272 318.354 313.896C319.336 314.164 320.407 314.342 321.478 314.342C321.567 314.342 321.745 314.342 321.835 314.342C323.709 314.431 325.405 314.253 326.654 313.896C331.384 312.648 334.954 309.438 334.954 309.438L335.401 299.628V296.596Z" fill="#A6A6E2"/>
<path d="M328.975 329.68L351.376 331.107L344.504 254.417C344.504 254.417 335.936 257.092 332.723 260.124C329.51 263.156 328.975 302.215 328.171 318.444L328.975 329.68Z" fill="#A6A6E2"/>
<path d="M390.289 314.164C389.575 297.934 387.255 262.264 384.131 259.321C380.918 256.289 371.814 254.417 371.814 254.417L365.656 329.68L389.397 328.343L390.289 314.164Z" fill="#A6A6E2"/>
<path d="M387.165 312.915C383.685 311.578 381.275 309.794 381.275 309.794L380.829 299.985L380.74 297.131L384.22 259.321C387.612 261.551 389.664 267.704 391.182 272.697C392.52 277.067 397.965 287.411 400.91 292.94C402.249 295.437 403.944 297.934 403.944 300.966C403.944 304.087 403.677 307.208 401.892 309.616C400.642 311.4 397.251 312.38 394.216 313.005L392.253 313.361C390.557 313.629 388.772 313.54 387.165 312.915Z" fill="#A6A6E2"/>
<path d="M325.137 304.711C325.137 304.711 330.67 298.647 336.204 299.45L335.49 301.769C335.49 301.769 343.879 303.195 344.326 303.909C345.307 305.425 337.007 304.266 337.007 304.266C337.007 304.266 344.058 305.692 344.236 306.138C344.504 306.584 343.433 310.954 341.827 311.4C340.22 311.935 327.457 311.489 326.119 310.24C324.869 309.081 323.798 307.565 325.137 304.711Z" fill="url(#paint48_linear)"/>
<path d="M387.344 306.406C387.344 305.692 386.898 305.068 386.451 304.444C385.827 303.641 384.756 302.393 383.417 301.234C381.096 299.093 378.33 296.864 377.973 295.972C377.794 295.437 376.634 296.418 376.812 296.864C376.812 296.864 377.08 298.112 377.437 298.647C377.705 299.093 379.311 300.699 379.311 300.699C379.311 300.699 370.029 299.628 369.405 300.253C367.887 301.858 376.277 302.304 376.277 302.304C376.277 302.304 369.137 301.679 368.78 302.125C368.423 302.482 368.244 306.941 369.583 307.922C371.011 308.813 381.275 311.31 384.934 310.775C386.63 310.686 387.433 308.903 387.344 306.406Z" fill="url(#paint49_linear)"/>
<path d="M360.033 265.385C360.033 265.385 354.054 261.818 354.054 258.786V243.983H365.835V258.786C365.835 261.818 360.033 265.385 360.033 265.385Z" fill="url(#paint50_linear)"/>
<path d="M371.279 237.473C371.279 243.805 366.013 248.888 359.677 248.888C353.34 248.888 348.253 243.805 348.253 237.473C348.253 231.142 353.34 226.059 359.677 226.059C366.013 226.059 371.279 231.142 371.279 237.473Z" fill="url(#paint51_linear)"/>
<path d="M331.741 318.088L331.652 290.889C331.741 289.017 333.259 287.59 335.133 287.59H381.632C383.506 287.59 385.113 289.106 385.113 291.068L384.934 323.349H331.652L331.741 318.088Z" fill="url(#paint52_linear)"/>
<path d="M327.011 331.732L322.459 332.088L322.549 338.241L328.796 337.35L327.011 331.732Z" fill="url(#paint53_linear)"/>
<path d="M323.977 331.999C323.977 331.999 311.125 330.394 308.715 330.929C306.306 331.464 302.557 331.018 303.003 336.279C303.45 341.541 310.679 341.452 315.498 340.649C320.318 339.936 325.494 338.955 325.494 338.955C325.494 338.955 321.746 336.279 323.977 331.999Z" fill="#878686"/>
<path d="M312.463 331.018C312.463 331.018 307.108 330.661 305.413 331.196C304.342 331.553 302.646 332.267 303.003 336.279C303.449 341.541 306.662 341.184 308.983 341.184C311.125 341.184 313.713 340.738 313.713 340.738C313.713 340.738 311.66 335.12 312.463 331.018Z" fill="#BFBFBF"/>
<path d="M322.013 337.26C322.192 337.171 322.281 337.082 322.192 336.904C321.388 335.209 322.102 332.891 322.102 332.891C322.102 332.802 322.102 332.623 321.924 332.623C321.835 332.623 321.656 332.623 321.656 332.802C321.656 332.891 320.942 335.388 321.745 337.171C321.745 337.26 321.835 337.26 322.013 337.26Z" fill="white"/>
<path d="M320.05 337.439C320.228 337.349 320.317 337.26 320.228 337.082C319.425 335.388 320.139 333.069 320.139 333.069C320.139 332.98 320.139 332.802 319.96 332.802C319.871 332.802 319.693 332.802 319.693 332.98C319.693 333.069 318.979 335.566 319.782 337.349C319.782 337.439 319.871 337.439 320.05 337.439Z" fill="white"/>
<path d="M318.086 337.617C318.265 337.528 318.354 337.439 318.265 337.26C317.461 335.566 318.175 333.247 318.175 333.247C318.175 333.158 318.175 332.98 317.997 332.98C317.908 332.98 317.729 332.98 317.729 333.158C317.729 333.247 317.015 335.744 317.818 337.528C317.818 337.528 317.908 337.617 318.086 337.617Z" fill="white"/>
<path d="M316.123 337.795C316.301 337.706 316.39 337.617 316.301 337.439C315.498 335.744 316.212 333.426 316.212 333.426C316.212 333.337 316.212 333.158 316.033 333.158C315.944 333.158 315.766 333.158 315.766 333.337C315.766 333.426 315.052 335.923 315.855 337.706C315.855 337.706 315.944 337.795 316.123 337.795Z" fill="white"/>
<path d="M391.539 332.802H396.091L396.537 338.955L390.289 338.598L391.539 332.802Z" fill="url(#paint54_linear)"/>
<path d="M400.731 332.267L326.654 338.955L323.263 329.056L396.269 313.361C402.07 312.826 410.192 316.215 410.727 322.011C411.263 327.719 406.443 331.731 400.731 332.267Z" fill="url(#paint55_linear)"/>
<path d="M316.123 332.356L331.027 335.477L391.717 340.381L393.056 332.802L319.96 313.005C314.159 312.291 306.484 316.126 305.77 321.922C305.056 327.629 310.411 331.642 316.123 332.356Z" fill="url(#paint56_linear)"/>
<path d="M394.573 332.802C394.573 332.802 407.247 330.126 409.656 330.394C412.066 330.751 415.815 329.948 415.815 335.209C415.815 340.471 408.675 341.006 403.766 340.649C398.857 340.292 393.681 339.757 393.681 339.757C393.681 339.757 397.162 336.904 394.573 332.802Z" fill="#878686"/>
<path d="M397.072 337.974C396.983 337.974 396.983 337.885 397.072 337.974C396.894 337.885 396.804 337.795 396.804 337.617C397.429 335.923 396.537 333.604 396.537 333.604C396.447 333.515 396.537 333.337 396.715 333.247C396.804 333.158 396.983 333.247 397.072 333.426C397.072 333.515 398.054 335.923 397.34 337.795C397.251 337.885 397.161 337.974 397.072 337.974Z" fill="white"/>
<path d="M399.036 337.974C398.946 337.974 398.946 337.885 399.036 337.974C398.857 337.885 398.768 337.795 398.768 337.617C399.393 335.923 398.5 333.604 398.5 333.604C398.411 333.515 398.5 333.337 398.679 333.247C398.768 333.158 398.946 333.247 399.036 333.426C399.036 333.515 400.017 335.923 399.303 337.795C399.214 337.885 399.125 337.974 399.036 337.974Z" fill="white"/>
<path d="M400.999 337.974C400.91 337.974 400.91 337.885 400.999 337.974C400.821 337.885 400.731 337.795 400.731 337.617C401.356 335.923 400.464 333.604 400.464 333.604C400.374 333.515 400.464 333.337 400.642 333.247C400.731 333.158 400.91 333.247 400.999 333.426C400.999 333.515 401.981 335.923 401.267 337.795C401.178 337.885 401.088 337.974 400.999 337.974Z" fill="white"/>
<path d="M402.963 337.974C402.963 337.974 402.873 337.885 402.963 337.974C402.784 337.885 402.695 337.795 402.695 337.617C403.32 335.923 402.427 333.604 402.427 333.604C402.338 333.515 402.427 333.337 402.606 333.247C402.695 333.158 402.873 333.247 402.963 333.426C402.963 333.515 403.944 335.923 403.23 337.795C403.141 337.885 403.052 337.974 402.963 337.974Z" fill="white"/>
<path d="M338.346 273.322C338.346 273.946 337.9 274.481 337.364 274.481C336.829 274.481 336.382 273.946 336.382 273.322C336.382 272.698 336.829 272.162 337.364 272.162C337.9 272.252 338.346 272.698 338.346 273.322Z" fill="white"/>
<path d="M330.313 298.648C330.313 299.272 329.867 299.807 329.332 299.807C328.796 299.807 328.35 299.272 328.35 298.648C328.35 298.023 328.796 297.488 329.332 297.488C329.867 297.488 330.313 298.023 330.313 298.648Z" fill="white"/>
<path d="M321.478 300.877C322.02 300.877 322.459 300.358 322.459 299.718C322.459 299.077 322.02 298.558 321.478 298.558C320.936 298.558 320.496 299.077 320.496 299.718C320.496 300.358 320.936 300.877 321.478 300.877Z" fill="white"/>
<path d="M322.192 309.616C322.192 310.24 321.746 310.775 321.21 310.775C320.675 310.775 320.228 310.24 320.228 309.616C320.228 308.992 320.675 308.457 321.21 308.457C321.746 308.457 322.192 308.992 322.192 309.616Z" fill="white"/>
<path d="M343.255 268.596C343.255 269.22 342.808 269.755 342.273 269.755C341.737 269.755 341.291 269.22 341.291 268.596C341.291 267.971 341.737 267.436 342.273 267.436C342.808 267.525 343.255 267.971 343.255 268.596Z" fill="white"/>
<path d="M342.184 259.41C342.184 260.035 341.737 260.57 341.202 260.57C340.666 260.57 340.22 260.035 340.22 259.41C340.22 258.786 340.666 258.251 341.202 258.251C341.737 258.34 342.184 258.786 342.184 259.41Z" fill="white"/>
<path d="M336.382 283.577C336.382 284.201 335.936 284.736 335.401 284.736C334.865 284.736 334.419 284.201 334.419 283.577C334.419 282.953 334.865 282.418 335.401 282.418C335.936 282.418 336.382 282.953 336.382 283.577Z" fill="white"/>
<path d="M326.119 290.978C326.119 290.354 326.565 289.819 327.1 289.819C327.636 289.819 328.082 290.354 328.082 290.978C328.082 291.603 327.636 292.138 327.1 292.138C326.565 292.049 326.119 291.603 326.119 290.978Z" fill="white"/>
<path d="M324.691 284.647C324.691 285.271 324.245 285.806 323.709 285.806C323.174 285.806 322.727 285.271 322.727 284.647C322.727 284.023 323.174 283.488 323.709 283.488C324.245 283.488 324.691 284.023 324.691 284.647Z" fill="white"/>
<path d="M344.95 281.972C344.95 282.596 344.504 283.131 343.969 283.131C343.433 283.131 342.987 282.596 342.987 281.972C342.987 281.348 343.433 280.812 343.969 280.812C344.504 280.902 344.95 281.437 344.95 281.972Z" fill="white"/>
<path d="M331.742 267.258C332.284 267.258 332.723 266.739 332.723 266.099C332.723 265.458 332.284 264.939 331.742 264.939C331.199 264.939 330.76 265.458 330.76 266.099C330.76 266.739 331.199 267.258 331.742 267.258Z" fill="white"/>
<path d="M329.421 279.029C328.885 279.296 328.261 279.207 327.993 278.761C327.725 278.316 327.904 277.691 328.439 277.335C328.975 277.067 329.599 277.156 329.867 277.602C330.224 278.137 329.956 278.761 329.421 279.029Z" fill="white"/>
<path d="M317.194 292.048C316.658 292.316 316.033 292.227 315.766 291.781C315.498 291.335 315.676 290.711 316.212 290.354C316.747 289.997 317.372 290.176 317.64 290.622C317.997 291.157 317.729 291.781 317.194 292.048Z" fill="white"/>
<path d="M314.338 301.769C313.802 302.036 313.177 301.947 312.91 301.501C312.642 301.055 312.821 300.431 313.356 300.074C313.891 299.807 314.516 299.896 314.784 300.342C315.052 300.877 314.873 301.501 314.338 301.769Z" fill="white"/>
<path d="M378.865 272.787C378.865 273.411 379.311 273.946 379.847 273.946C380.382 273.946 380.829 273.411 380.829 272.787C380.829 272.162 380.382 271.627 379.847 271.627C379.311 271.627 378.865 272.162 378.865 272.787Z" fill="white"/>
<path d="M388.772 300.966C388.772 301.59 389.218 302.125 389.754 302.125C390.289 302.125 390.735 301.59 390.735 300.966C390.735 300.342 390.289 299.807 389.754 299.807C389.129 299.807 388.772 300.342 388.772 300.966Z" fill="white"/>
<path d="M398.679 300.342C399.221 300.342 399.66 299.823 399.66 299.183C399.66 298.542 399.221 298.023 398.679 298.023C398.136 298.023 397.697 298.542 397.697 299.183C397.697 299.823 398.136 300.342 398.679 300.342Z" fill="white"/>
<path d="M395.109 309.081C395.109 309.705 395.555 310.24 396.09 310.24C396.626 310.24 397.072 309.705 397.072 309.081C397.072 308.457 396.626 307.922 396.09 307.922C395.555 307.922 395.109 308.457 395.109 309.081Z" fill="white"/>
<path d="M374.046 268.06C374.046 268.685 374.492 269.22 375.028 269.22C375.563 269.22 376.009 268.685 376.009 268.06C376.009 267.436 375.563 266.901 375.028 266.901C374.492 266.99 374.046 267.436 374.046 268.06Z" fill="white"/>
<path d="M375.117 258.875C375.117 259.5 375.563 260.035 376.098 260.035C376.634 260.035 377.08 259.5 377.08 258.875C377.08 258.251 376.634 257.716 376.098 257.716C375.563 257.805 375.117 258.251 375.117 258.875Z" fill="white"/>
<path d="M380.918 283.042C380.918 283.666 381.364 284.201 381.9 284.201C382.435 284.201 382.882 283.666 382.882 283.042C382.882 282.418 382.435 281.883 381.9 281.883C381.275 281.972 380.918 282.418 380.918 283.042Z" fill="white"/>
<path d="M391.093 290.443C391.093 289.819 390.646 289.284 390.111 289.284C389.575 289.284 389.129 289.819 389.129 290.443C389.129 291.068 389.575 291.603 390.111 291.603C390.646 291.513 391.093 291.068 391.093 290.443Z" fill="white"/>
<path d="M392.61 284.112C392.61 284.736 393.056 285.271 393.591 285.271C394.127 285.271 394.573 284.736 394.573 284.112C394.573 283.488 394.127 282.953 393.591 282.953C393.056 283.042 392.61 283.488 392.61 284.112Z" fill="white"/>
<path d="M372.35 281.526C372.35 282.15 372.796 282.685 373.332 282.685C373.867 282.685 374.313 282.15 374.313 281.526C374.313 280.902 373.867 280.367 373.332 280.367C372.796 280.367 372.35 280.902 372.35 281.526Z" fill="white"/>
<path d="M384.577 265.564C384.577 266.188 385.024 266.723 385.559 266.723C386.095 266.723 386.541 266.188 386.541 265.564C386.541 264.939 386.095 264.404 385.559 264.404C385.024 264.493 384.577 265.028 384.577 265.564Z" fill="white"/>
<path d="M387.79 278.494C388.326 278.761 388.95 278.672 389.218 278.226C389.486 277.781 389.307 277.156 388.772 276.8C388.236 276.532 387.612 276.621 387.344 277.067C387.076 277.602 387.255 278.226 387.79 278.494Z" fill="white"/>
<path d="M362.533 305.871C362.533 307.654 361.105 309.081 359.32 309.081C357.535 309.081 356.107 307.654 356.107 305.871C356.107 304.087 357.535 302.66 359.32 302.66C361.105 302.66 362.533 304.087 362.533 305.871Z" fill="white"/>
<path d="M371.815 237.83C367.263 237.028 364.585 236.849 359.23 236.849L360.212 224.097L369.94 229.269L371.815 237.83Z" fill="url(#paint57_linear)"/>
<path d="M351.644 237.117L346.646 237.473L351.912 227.486C353.518 224.454 358.606 223.83 360.926 226.505L361.819 228.823L356.642 234.263C355.482 235.957 353.608 237.027 351.644 237.117Z" fill="url(#paint58_linear)"/>
<defs>
<linearGradient id="paint0_linear" x1="254.77" y1="299.685" x2="413.57" y2="299.685" gradientUnits="userSpaceOnUse">
<stop stop-color="#C2D3EC"/>
<stop offset="0.6236" stop-color="#CBD9F6"/>
<stop offset="1" stop-color="#D3DEFF"/>
</linearGradient>
<linearGradient id="paint1_linear" x1="386.476" y1="274.663" x2="281.864" y2="274.663" gradientUnits="userSpaceOnUse">
<stop stop-color="#7D8FDE"/>
<stop offset="0.4013" stop-color="#A1ACE9"/>
<stop offset="0.7798" stop-color="#BDC3F1"/>
<stop offset="1" stop-color="#C7CBF4"/>
</linearGradient>
<linearGradient id="paint2_linear" x1="254.77" y1="335.8" x2="413.729" y2="335.8" gradientUnits="userSpaceOnUse">
<stop stop-color="#D5D9F4"/>
<stop offset="0.2974" stop-color="#CCCFEF"/>
<stop offset="0.8068" stop-color="#B4B3E3"/>
<stop offset="1" stop-color="#A9A7DE"/>
</linearGradient>
<linearGradient id="paint3_linear" x1="121.503" y1="141.683" x2="547.894" y2="141.293" gradientUnits="userSpaceOnUse">
<stop stop-color="#011B46"/>
<stop offset="1" stop-color="#029DB1"/>
</linearGradient>
<linearGradient id="paint4_linear" x1="121.213" y1="138.354" x2="547.514" y2="137.842" gradientUnits="userSpaceOnUse">
<stop stop-color="#011B46"/>
<stop offset="1" stop-color="#029DB1"/>
</linearGradient>
<linearGradient id="paint5_linear" x1="219.631" y1="188.362" x2="435.311" y2="188.362" gradientUnits="userSpaceOnUse">
<stop stop-color="white"/>
<stop offset="0.00933915" stop-color="#FEFEFE"/>
<stop offset="0.6562" stop-color="#DADADA"/>
<stop offset="1" stop-color="#CCCCCC"/>
</linearGradient>
<linearGradient id="paint6_linear" x1="219.751" y1="188.425" x2="435.617" y2="184.944" gradientUnits="userSpaceOnUse">
<stop stop-color="#9AAECF"/>
<stop offset="1" stop-color="#05E2FF"/>
</linearGradient>
<linearGradient id="paint7_linear" x1="505.349" y1="331.445" x2="503.583" y2="285.485" gradientUnits="userSpaceOnUse">
<stop offset="0.271" stop-color="#97B2D1"/>
<stop offset="1"/>
</linearGradient>
<linearGradient id="paint8_linear" x1="405.112" y1="314.24" x2="598.69" y2="313.865" gradientUnits="userSpaceOnUse">
<stop stop-color="#011B46"/>
<stop offset="1" stop-color="#029DB1"/>
</linearGradient>
<linearGradient id="paint9_linear" x1="419.298" y1="263.413" x2="603.941" y2="263.001" gradientUnits="userSpaceOnUse">
<stop stop-color="#011B46"/>
<stop offset="1" stop-color="#029DB1"/>
</linearGradient>
<linearGradient id="paint10_linear" x1="444.647" y1="324.752" x2="444.647" y2="346.228" gradientUnits="userSpaceOnUse">
<stop offset="0.0401042" stop-color="#1C78B3"/>
<stop offset="1" stop-color="#0B0146"/>
</linearGradient>
<linearGradient id="paint11_linear" x1="206.808" y1="375.517" x2="70.1062" y2="238.701" gradientUnits="userSpaceOnUse">
<stop stop-color="#35449E"/>
<stop offset="1" stop-color="#89ADF8"/>
</linearGradient>
<linearGradient id="paint12_linear" x1="201.294" y1="374.828" x2="66.3413" y2="239.763" gradientUnits="userSpaceOnUse">
<stop stop-color="#89ADF8"/>
<stop offset="1" stop-color="#12289B"/>
</linearGradient>
<linearGradient id="paint13_linear" x1="15.3799" y1="307.238" x2="252.66" y2="306.762" gradientUnits="userSpaceOnUse">
<stop stop-color="#011B46"/>
<stop offset="1" stop-color="#029DB1"/>
</linearGradient>
<linearGradient id="paint14_linear" x1="123.286" y1="335.261" x2="132.784" y2="335.261" gradientUnits="userSpaceOnUse">
<stop offset="8.013e-05" stop-color="#FE330A"/>
<stop offset="0.3801" stop-color="#CB1B29"/>
<stop offset="0.7272" stop-color="#A20841"/>
<stop offset="0.9062" stop-color="#93014A"/>
</linearGradient>
<linearGradient id="paint15_linear" x1="158.211" y1="334.276" x2="167.71" y2="334.276" gradientUnits="userSpaceOnUse">
<stop offset="8.013e-05" stop-color="#FE330A"/>
<stop offset="0.3801" stop-color="#CB1B29"/>
<stop offset="0.7272" stop-color="#A20841"/>
<stop offset="0.9062" stop-color="#93014A"/>
</linearGradient>
<linearGradient id="paint16_linear" x1="143.343" y1="205.335" x2="143.343" y2="328.583" gradientUnits="userSpaceOnUse">
<stop stop-color="#35449E"/>
<stop offset="1" stop-color="#89ADF8"/>
</linearGradient>
<linearGradient id="paint17_linear" x1="144.109" y1="105.183" x2="146.709" y2="201.013" gradientUnits="userSpaceOnUse">
<stop offset="0.0364183" stop-color="#3B78CD"/>
<stop offset="1" stop-color="#0B0146"/>
</linearGradient>
<linearGradient id="paint18_linear" x1="154.071" y1="125.434" x2="187.602" y2="171.287" gradientUnits="userSpaceOnUse">
<stop offset="0.0401042" stop-color="#3B78CD"/>
<stop offset="1" stop-color="#0B0146"/>
</linearGradient>
<linearGradient id="paint19_linear" x1="142.413" y1="105.861" x2="142.413" y2="93.1307" gradientUnits="userSpaceOnUse">
<stop offset="0.0679902" stop-color="#ECDFCF"/>
<stop offset="0.8039" stop-color="#E58057"/>
</linearGradient>
<linearGradient id="paint20_linear" x1="106.65" y1="157.903" x2="158.091" y2="155.562" gradientUnits="userSpaceOnUse">
<stop offset="0.0679902" stop-color="#E6E7E8"/>
<stop offset="0.8039" stop-color="#6D6E71"/>
</linearGradient>
<linearGradient id="paint21_linear" x1="125.564" y1="120.384" x2="126.148" y2="156.006" gradientUnits="userSpaceOnUse">
<stop offset="0.0679902" stop-color="#E6E7E8"/>
<stop offset="0.8039" stop-color="#6D6E71"/>
</linearGradient>
<linearGradient id="paint22_linear" x1="146.151" y1="90.8874" x2="141.766" y2="75.0056" gradientUnits="userSpaceOnUse">
<stop offset="0.0679902" stop-color="#ECDFCF"/>
<stop offset="0.8039" stop-color="#E58057"/>
</linearGradient>
<linearGradient id="paint23_linear" x1="134.311" y1="66.0621" x2="152.597" y2="79.7068" gradientUnits="userSpaceOnUse">
<stop offset="0.0290577" stop-color="#C2000B"/>
<stop offset="0.2189" stop-color="#890008"/>
<stop offset="0.4077" stop-color="#580005"/>
<stop offset="0.5848" stop-color="#320003"/>
<stop offset="0.7477" stop-color="#160001"/>
<stop offset="0.8912" stop-color="#060000"/>
<stop offset="1"/>
</linearGradient>
<linearGradient id="paint24_linear" x1="134.942" y1="85.6713" x2="156.171" y2="98.5364" gradientUnits="userSpaceOnUse">
<stop offset="0.0290577" stop-color="#C2000B"/>
<stop offset="0.2189" stop-color="#890008"/>
<stop offset="0.4077" stop-color="#580005"/>
<stop offset="0.5848" stop-color="#320003"/>
<stop offset="0.7477" stop-color="#160001"/>
<stop offset="0.8912" stop-color="#060000"/>
<stop offset="1"/>
</linearGradient>
<linearGradient id="paint25_linear" x1="124.673" y1="149.985" x2="127.007" y2="164.198" gradientUnits="userSpaceOnUse">
<stop offset="0.0679902" stop-color="#ECDFCF"/>
<stop offset="0.8039" stop-color="#E58057"/>
</linearGradient>
<linearGradient id="paint26_linear" x1="168.812" y1="338.206" x2="154.749" y2="342.57" gradientUnits="userSpaceOnUse">
<stop offset="0.05" stop-color="#808080"/>
<stop offset="0.4091" stop-color="#ADB1B3"/>
<stop offset="0.7371" stop-color="#D1D7DC"/>
<stop offset="0.9062" stop-color="#DFE6EB"/>
</linearGradient>
<linearGradient id="paint27_linear" x1="119.894" y1="337.767" x2="133.798" y2="342.081" gradientUnits="userSpaceOnUse">
<stop offset="0.0937622" stop-color="#DFE6EB"/>
<stop offset="0.2629" stop-color="#D1D7DC"/>
<stop offset="0.5909" stop-color="#ADB1B3"/>
<stop offset="0.95" stop-color="#808080"/>
</linearGradient>
<linearGradient id="paint28_linear" x1="469.24" y1="274.327" x2="517.668" y2="274.327" gradientUnits="userSpaceOnUse">
<stop offset="0.0401042" stop-color="#3B78CD"/>
<stop offset="1" stop-color="#0B0146"/>
</linearGradient>
<linearGradient id="paint29_linear" x1="480.042" y1="166.418" x2="493.464" y2="210.221" gradientUnits="userSpaceOnUse">
<stop offset="0.0290577" stop-color="#664C85"/>
<stop offset="0.2852" stop-color="#443186"/>
<stop offset="0.5416" stop-color="#281B86"/>
<stop offset="0.7687" stop-color="#180E87"/>
<stop offset="0.9411" stop-color="#120987"/>
</linearGradient>
<linearGradient id="paint30_linear" x1="509.851" y1="274.122" x2="558.879" y2="274.122" gradientUnits="userSpaceOnUse">
<stop offset="0.0401042" stop-color="#3B78CD"/>
<stop offset="1" stop-color="#0B0146"/>
</linearGradient>
<linearGradient id="paint31_linear" x1="487.432" y1="193.833" x2="565.748" y2="193.833" gradientUnits="userSpaceOnUse">
<stop offset="0.0290577" stop-color="#664C85"/>
<stop offset="0.2852" stop-color="#443186"/>
<stop offset="0.5416" stop-color="#281B86"/>
<stop offset="0.7687" stop-color="#180E87"/>
<stop offset="0.9411" stop-color="#120987"/>
</linearGradient>
<linearGradient id="paint32_linear" x1="491.071" y1="226.772" x2="488.932" y2="237.676" gradientUnits="userSpaceOnUse">
<stop offset="0.0679902" stop-color="#ECDFCF"/>
<stop offset="0.8039" stop-color="#E58057"/>
</linearGradient>
<linearGradient id="paint33_linear" x1="542.587" y1="225.935" x2="543.949" y2="236.448" gradientUnits="userSpaceOnUse">
<stop offset="0.0679902" stop-color="#ECDFCF"/>
<stop offset="0.8039" stop-color="#E58057"/>
</linearGradient>
<linearGradient id="paint34_linear" x1="514.42" y1="207.428" x2="515.094" y2="239.491" gradientUnits="userSpaceOnUse">
<stop offset="0.0679902" stop-color="#E6E7E8"/>
<stop offset="0.8039" stop-color="#6D6E71"/>
</linearGradient>
<linearGradient id="paint35_linear" x1="516.613" y1="166.844" x2="516.613" y2="147.9" gradientUnits="userSpaceOnUse">
<stop offset="0.0679902" stop-color="#ECDFCF"/>
<stop offset="0.8039" stop-color="#E58057"/>
</linearGradient>
<linearGradient id="paint36_linear" x1="520.235" y1="154.055" x2="515.325" y2="136.276" gradientUnits="userSpaceOnUse">
<stop offset="0.0679902" stop-color="#ECDFCF"/>
<stop offset="0.8039" stop-color="#E58057"/>
</linearGradient>
<linearGradient id="paint37_linear" x1="501.745" y1="133.48" x2="528.772" y2="132.243" gradientUnits="userSpaceOnUse">
<stop offset="0.0290577" stop-color="#884C59"/>
<stop offset="0.124" stop-color="#6D3C4D"/>
<stop offset="0.2757" stop-color="#47263D"/>
<stop offset="0.4162" stop-color="#2B1631"/>
<stop offset="0.5401" stop-color="#1B0C2A"/>
<stop offset="0.6341" stop-color="#150927"/>
<stop offset="0.9464"/>
</linearGradient>
<linearGradient id="paint38_linear" x1="527.653" y1="328.216" x2="533.837" y2="328.8" gradientUnits="userSpaceOnUse">
<stop stop-color="#FF052A"/>
<stop offset="0.9001" stop-color="#AC1622"/>
</linearGradient>
<linearGradient id="paint39_linear" x1="490.724" y1="330.395" x2="499.112" y2="331.187" gradientUnits="userSpaceOnUse">
<stop stop-color="#FF052A"/>
<stop offset="0.9001" stop-color="#AC1622"/>
</linearGradient>
<linearGradient id="paint40_linear" x1="522.757" y1="342.163" x2="536.878" y2="342.163" gradientUnits="userSpaceOnUse">
<stop offset="0.0937622" stop-color="#DFE6EB"/>
<stop offset="0.2629" stop-color="#D1D7DC"/>
<stop offset="0.5909" stop-color="#ADB1B3"/>
<stop offset="0.95" stop-color="#808080"/>
</linearGradient>
<linearGradient id="paint41_linear" x1="480.826" y1="350.313" x2="508.956" y2="335.438" gradientUnits="userSpaceOnUse">
<stop offset="0.0937622" stop-color="#DFE6EB"/>
<stop offset="0.2629" stop-color="#D1D7DC"/>
<stop offset="0.5909" stop-color="#ADB1B3"/>
<stop offset="0.95" stop-color="#808080"/>
</linearGradient>
<linearGradient id="paint42_linear" x1="484.952" y1="323.37" x2="505.156" y2="323.37" gradientUnits="userSpaceOnUse">
<stop offset="0.0401042" stop-color="#3B78CD"/>
<stop offset="1" stop-color="#0B0146"/>
</linearGradient>
<linearGradient id="paint43_linear" x1="520.561" y1="323.197" x2="540.765" y2="323.197" gradientUnits="userSpaceOnUse">
<stop offset="0.0401042" stop-color="#3B78CD"/>
<stop offset="1" stop-color="#0B0146"/>
</linearGradient>
<linearGradient id="paint44_linear" x1="356.257" y1="217.892" x2="363.059" y2="217.892" gradientUnits="userSpaceOnUse">
<stop stop-color="#92525D"/>
<stop offset="0.1996" stop-color="#6D3C4D"/>
<stop offset="0.4376" stop-color="#47263C"/>
<stop offset="0.6581" stop-color="#2B1631"/>
<stop offset="0.8525" stop-color="#1B0C2A"/>
<stop offset="1" stop-color="#150927"/>
</linearGradient>
<linearGradient id="paint45_linear" x1="360.824" y1="258.932" x2="357.165" y2="225.057" gradientUnits="userSpaceOnUse">
<stop stop-color="#92525D"/>
<stop offset="0.1996" stop-color="#6D3C4D"/>
<stop offset="0.4376" stop-color="#47263C"/>
<stop offset="0.6581" stop-color="#2B1631"/>
<stop offset="0.8525" stop-color="#1B0C2A"/>
<stop offset="1" stop-color="#150927"/>
</linearGradient>
<linearGradient id="paint46_linear" x1="355.794" y1="321.081" x2="355.553" y2="344.952" gradientUnits="userSpaceOnUse">
<stop stop-color="#032B6B"/>
<stop offset="0.951" stop-color="#030C43"/>
</linearGradient>
<linearGradient id="paint47_linear" x1="359.114" y1="251.845" x2="359.114" y2="303.118" gradientUnits="userSpaceOnUse">
<stop stop-color="#0541C4"/>
<stop offset="0.951" stop-color="#052381"/>
</linearGradient>
<linearGradient id="paint48_linear" x1="321.267" y1="306.404" x2="335.791" y2="305.597" gradientUnits="userSpaceOnUse">
<stop offset="0.0679902" stop-color="#ECDFCF"/>
<stop offset="0.8039" stop-color="#E58057"/>
</linearGradient>
<linearGradient id="paint49_linear" x1="371.323" y1="301.775" x2="388.588" y2="305.167" gradientUnits="userSpaceOnUse">
<stop offset="0.0679902" stop-color="#ECDFCF"/>
<stop offset="0.8039" stop-color="#E58057"/>
</linearGradient>
<linearGradient id="paint50_linear" x1="360.366" y1="267.817" x2="359.744" y2="244.146" gradientUnits="userSpaceOnUse">
<stop offset="0.0679902" stop-color="#ECDFCF"/>
<stop offset="0.8039" stop-color="#E58057"/>
</linearGradient>
<linearGradient id="paint51_linear" x1="359.588" y1="249.633" x2="359.812" y2="234.414" gradientUnits="userSpaceOnUse">
<stop offset="0.0679902" stop-color="#ECDFCF"/>
<stop offset="0.8039" stop-color="#E58057"/>
</linearGradient>
<linearGradient id="paint52_linear" x1="358.315" y1="288.375" x2="358.168" y2="326.591" gradientUnits="userSpaceOnUse">
<stop offset="0.0679902" stop-color="#E6E7E8"/>
<stop offset="0.8039" stop-color="#6D6E71"/>
</linearGradient>
<linearGradient id="paint53_linear" x1="328.514" y1="334.645" x2="322.284" y2="335.187" gradientUnits="userSpaceOnUse">
<stop stop-color="#FF052A"/>
<stop offset="0.9001" stop-color="#AC1622"/>
</linearGradient>
<linearGradient id="paint54_linear" x1="390.287" y1="335.877" x2="396.54" y2="335.877" gradientUnits="userSpaceOnUse">
<stop stop-color="#FF052A"/>
<stop offset="0.9001" stop-color="#AC1622"/>
</linearGradient>
<linearGradient id="paint55_linear" x1="367.694" y1="318.652" x2="365.761" y2="339.936" gradientUnits="userSpaceOnUse">
<stop stop-color="#032B6B"/>
<stop offset="0.951" stop-color="#030C43"/>
</linearGradient>
<linearGradient id="paint56_linear" x1="350.472" y1="315.651" x2="348.781" y2="334.274" gradientUnits="userSpaceOnUse">
<stop stop-color="#0541C4"/>
<stop offset="0.951" stop-color="#052381"/>
</linearGradient>
<linearGradient id="paint57_linear" x1="369.292" y1="272.339" x2="364.077" y2="224.063" gradientUnits="userSpaceOnUse">
<stop stop-color="#92525D"/>
<stop offset="0.1996" stop-color="#6D3C4D"/>
<stop offset="0.4376" stop-color="#47263C"/>
<stop offset="0.6581" stop-color="#2B1631"/>
<stop offset="0.8525" stop-color="#1B0C2A"/>
<stop offset="1" stop-color="#150927"/>
</linearGradient>
<linearGradient id="paint58_linear" x1="358.629" y1="274.112" x2="353.495" y2="226.577" gradientUnits="userSpaceOnUse">
<stop stop-color="#92525D"/>
<stop offset="0.1996" stop-color="#6D3C4D"/>
<stop offset="0.4376" stop-color="#47263C"/>
<stop offset="0.6581" stop-color="#2B1631"/>
<stop offset="0.8525" stop-color="#1B0C2A"/>
<stop offset="1" stop-color="#150927"/>
</linearGradient>
</defs>
</svg>
