<svg width="497" height="413" viewBox="0 0 497 413" fill="none" xmlns="http://www.w3.org/2000/svg">
<g opacity="0.88">
<g opacity="0.79">
<path opacity="0.36" d="M490.71 275.908L483.386 275.477C483.386 273.061 483.214 270.646 482.955 268.23L490.107 266.936C493.726 266.246 496.139 262.795 495.449 259.085C494.76 255.461 491.313 253.046 487.608 253.736L480.456 255.03C479.595 251.665 478.475 248.387 477.182 245.194L483.645 241.916C486.919 240.277 488.297 236.222 486.66 232.943C485.023 229.665 480.973 228.285 477.699 229.924L471.151 233.202C469.772 230.959 468.307 228.716 466.67 226.645L472.185 221.814C474.942 219.398 475.287 215.171 472.788 212.324C470.375 209.563 466.153 209.218 463.31 211.72L457.795 216.551C455.986 214.826 454.176 213.186 452.281 211.633L456.416 205.594C458.484 202.574 457.709 198.347 454.693 196.276C451.677 194.206 447.455 194.982 445.387 198.002L441.251 204.041C438.58 202.488 435.823 201.108 432.98 199.9L435.392 192.998C436.598 189.461 434.789 185.665 431.256 184.457C427.723 183.249 423.932 185.061 422.726 188.598L420.313 195.5C417.642 194.81 414.885 194.206 412.128 193.774L412.645 186.527C412.903 182.817 410.146 179.625 406.441 179.366C402.736 179.108 399.547 181.868 399.289 185.578L398.772 192.912C395.412 192.912 392.051 193.17 388.777 193.602L387.312 186.441C386.537 182.817 383.004 180.488 379.385 181.264C375.766 182.041 373.439 185.578 374.215 189.202L375.68 196.363C373.353 197.053 371.027 197.829 368.7 198.778L365.512 192.221C363.875 188.857 359.912 187.476 356.551 189.116C353.191 190.755 351.812 194.723 353.449 198.088L356.637 204.645C353.966 206.198 351.381 207.924 348.882 209.822L344.057 204.3C341.645 201.539 337.422 201.28 334.579 203.696C331.822 206.112 331.563 210.426 333.976 213.186L338.801 218.708C336.906 220.692 335.01 222.763 333.287 224.92L327.255 220.865C324.153 218.794 320.017 219.657 317.949 222.677C315.881 225.783 316.743 229.924 319.759 231.994L325.79 236.049C324.498 238.379 323.291 240.794 322.257 243.21L315.364 240.794C311.831 239.587 308.04 241.398 306.834 244.936C305.628 248.473 307.437 252.269 310.97 253.477L317.863 255.893C317.088 258.912 316.398 262.018 315.967 265.124L308.643 264.693C304.938 264.434 301.75 267.281 301.492 270.991C301.233 274.701 304.077 277.893 307.782 278.065L315.106 278.497C315.106 280.912 315.278 283.328 315.537 285.744L308.385 287.038C304.766 287.728 302.353 291.179 303.043 294.889C303.732 298.513 307.179 300.928 310.884 300.238L318.035 298.944C318.897 302.309 320.017 305.587 321.31 308.779L314.847 312.058C311.573 313.697 310.194 317.752 311.831 321.031C313.469 324.309 317.518 325.689 320.793 324.05L327.341 320.772C328.72 323.015 330.271 325.258 331.822 327.329L326.307 332.16C323.55 334.576 323.291 338.803 325.704 341.65C328.117 344.411 332.339 344.67 335.182 342.254L340.697 337.423C342.506 339.148 344.316 340.788 346.211 342.34L342.075 348.38C340.007 351.399 340.783 355.627 343.799 357.698C346.814 359.768 351.037 358.992 353.105 355.972L357.24 349.933C359.912 351.486 362.669 352.866 365.512 354.074L363.1 360.976C361.893 364.513 363.703 368.309 367.236 369.517C370.768 370.725 374.56 368.913 375.766 365.376L378.179 358.474C380.85 359.164 383.607 359.768 386.364 360.199L385.847 367.447C385.589 371.156 388.346 374.349 392.051 374.607C395.756 374.866 398.944 372.105 399.203 368.396L399.72 361.062C403.08 361.062 406.441 360.803 409.715 360.372L411.18 367.533C411.955 371.156 415.488 373.486 419.107 372.709C422.726 371.933 425.052 368.396 424.277 364.772L422.812 357.611C425.139 356.921 427.465 356.145 429.791 355.196L432.98 361.752C434.617 365.117 438.58 366.498 441.941 364.858C445.301 363.219 446.68 359.25 445.043 355.886L442.027 349.415C444.698 347.862 447.283 346.137 449.782 344.239L454.607 349.76C457.02 352.521 461.242 352.78 464.085 350.364C466.842 347.948 467.101 343.635 464.688 340.874L459.863 335.352C461.759 333.368 463.654 331.297 465.378 329.14L471.409 333.195C474.511 335.266 478.647 334.403 480.715 331.384C482.783 328.278 481.921 324.136 478.906 322.066L472.874 318.011C474.166 315.681 475.373 313.266 476.407 310.85L483.3 313.266C486.833 314.474 490.624 312.662 491.83 309.124C493.037 305.587 491.227 301.791 487.694 300.583L480.801 298.168C481.577 295.148 482.266 292.042 482.697 288.936L490.021 289.367C493.726 289.626 496.914 286.779 497.173 283.069C497.259 279.36 494.415 276.167 490.71 275.908ZM411.524 204.645C432.635 208.182 450.557 220.692 461.414 238.12L432.29 252.787C426.689 245.108 418.504 239.5 409.026 237.171L411.524 204.645ZM398.169 203.696L395.756 236.222C385.589 237.171 376.455 241.83 369.821 248.904L342.765 230.787C355.862 214.567 375.852 204.127 398.169 203.696ZM331.391 303.603C328.375 295.924 326.652 287.642 326.393 278.928L327.255 265.555C328.547 257.1 331.305 249.163 335.268 241.916L362.324 260.034C361.204 262.45 360.342 264.952 359.739 267.626L358.878 280.999C359.136 283.76 359.653 286.348 360.515 288.936L331.391 303.603ZM387.312 349.07C366.202 345.533 348.279 333.023 337.423 315.595L366.546 300.928C372.147 308.607 380.333 314.215 389.811 316.544L387.312 349.07ZM399.203 295.062C389.122 294.975 381.108 286.693 381.194 276.599C381.281 266.505 389.552 258.481 399.634 258.567C409.715 258.653 417.728 266.936 417.642 277.03C417.556 287.124 409.284 295.234 399.203 295.062ZM400.754 350.019L403.166 317.493C413.334 316.544 422.467 311.885 429.102 304.811L456.158 322.929C442.975 339.148 423.071 349.588 400.754 350.019ZM471.668 288.16C470.375 296.615 467.618 304.552 463.654 311.799L436.598 293.681C437.719 291.266 438.58 288.764 439.183 286.089L440.045 272.716C439.787 269.956 439.27 267.367 438.408 264.779L467.532 250.112C470.547 257.791 472.271 266.073 472.529 274.787L471.668 288.16Z" fill="#1A5EFF"/>
</g>
<g opacity="0.77">
<path opacity="0.36" d="M259.788 151.327L255.566 151.068C255.566 149.688 255.48 148.307 255.307 146.927L259.443 146.15C261.511 145.805 262.89 143.735 262.545 141.664C262.2 139.594 260.132 138.213 258.064 138.558L253.929 139.335C253.412 137.437 252.808 135.539 252.033 133.641L255.738 131.742C257.634 130.793 258.409 128.464 257.461 126.566C256.514 124.668 254.187 123.891 252.291 124.84L248.586 126.738C247.811 125.444 246.949 124.15 246.001 122.942L249.189 120.182C250.827 118.801 250.913 116.385 249.534 114.746C248.156 113.107 245.743 113.021 244.106 114.401L240.918 117.162C239.884 116.213 238.85 115.264 237.73 114.315L240.142 110.864C241.348 109.138 240.918 106.723 239.194 105.515C237.471 104.307 235.058 104.738 233.852 106.464L231.439 109.915C229.889 109.052 228.338 108.189 226.7 107.499L228.079 103.53C228.768 101.546 227.734 99.3029 225.666 98.6127C223.685 97.9225 221.444 98.9578 220.755 101.028L219.376 104.997C217.825 104.566 216.274 104.221 214.637 104.048L214.982 99.9069C215.154 97.75 213.517 95.9382 211.449 95.7657C209.295 95.5931 207.486 97.2323 207.313 99.3029L206.969 103.53C204.987 103.53 203.091 103.703 201.196 103.876L200.334 99.7343C199.903 97.6637 197.835 96.2833 195.767 96.7147C193.699 97.1461 192.321 99.2167 192.751 101.287L193.613 105.428C192.234 105.86 190.942 106.291 189.649 106.809L187.84 103.013C186.892 101.115 184.652 100.338 182.67 101.201C180.774 102.15 179.999 104.393 180.861 106.378L182.67 110.174C181.119 111.123 179.654 112.072 178.276 113.107L175.518 109.915C174.14 108.362 171.727 108.189 170.09 109.57C168.539 110.95 168.367 113.366 169.745 115.005L172.503 118.197C171.382 119.319 170.348 120.527 169.314 121.821L165.868 119.491C164.145 118.284 161.732 118.801 160.526 120.527C159.319 122.252 159.836 124.668 161.56 125.876L165.006 128.205C164.231 129.499 163.541 130.88 162.938 132.346L158.975 130.966C156.993 130.276 154.753 131.311 154.063 133.295C153.374 135.28 154.408 137.523 156.39 138.213L160.353 139.594C159.922 141.319 159.578 143.131 159.319 144.856L155.097 144.597C152.943 144.425 151.134 146.064 151.047 148.221C150.875 150.378 152.512 152.19 154.666 152.276L158.888 152.535C158.888 153.915 158.975 155.296 159.147 156.676L155.011 157.453C152.943 157.798 151.564 159.868 151.909 161.939C152.254 164.009 154.322 165.39 156.39 165.045L160.526 164.268C161.043 166.166 161.646 168.064 162.421 169.962L158.716 171.86C156.821 172.81 156.045 175.139 156.993 177.037C157.941 178.935 160.267 179.712 162.163 178.763L165.868 176.864C166.643 178.159 167.505 179.453 168.453 180.661L165.265 183.421C163.628 184.802 163.541 187.217 164.92 188.857C166.299 190.496 168.711 190.582 170.348 189.202L173.537 186.441C174.571 187.39 175.605 188.339 176.725 189.288L174.312 192.739C173.106 194.465 173.537 196.88 175.26 198.088C176.983 199.296 179.396 198.865 180.602 197.139L183.015 193.688C184.566 194.551 186.117 195.414 187.754 196.104L186.375 200.073C185.686 202.057 186.72 204.3 188.788 204.99C190.77 205.68 193.01 204.645 193.699 202.575L195.078 198.606C196.629 199.037 198.18 199.382 199.817 199.555L199.472 203.696C199.3 205.853 200.937 207.665 203.005 207.837C205.159 208.01 206.969 206.371 207.141 204.3L207.486 200.073C209.467 200.073 211.363 199.9 213.259 199.727L214.12 203.869C214.551 205.939 216.619 207.32 218.687 206.888C220.755 206.457 222.134 204.386 221.703 202.316L220.841 198.174C222.22 197.743 223.512 197.312 224.805 196.794L226.614 200.59C227.562 202.488 229.802 203.265 231.784 202.402C233.68 201.453 234.455 199.21 233.594 197.225L231.784 193.429C233.335 192.48 234.8 191.531 236.265 190.496L239.022 193.688C240.401 195.241 242.813 195.414 244.45 194.033C246.088 192.653 246.174 190.151 244.795 188.598L242.038 185.406C243.158 184.284 244.192 183.076 245.226 181.782L248.673 184.112C250.396 185.319 252.808 184.802 254.015 183.076C255.221 181.351 254.704 178.935 252.981 177.727L249.534 175.398C250.31 174.104 250.999 172.723 251.602 171.257L255.566 172.637C257.548 173.327 259.788 172.292 260.477 170.308C261.166 168.323 260.132 166.08 258.151 165.39L254.187 164.009C254.618 162.284 254.963 160.472 255.221 158.747L259.443 159.005C261.597 159.178 263.407 157.539 263.493 155.382C263.493 153.311 261.942 151.413 259.788 151.327ZM214.293 110.432C226.356 112.417 236.696 119.664 242.986 129.672L226.27 138.041C223.081 133.641 218.342 130.448 212.914 129.068L214.293 110.432ZM206.624 109.829L205.245 128.464C199.386 128.982 194.13 131.656 190.339 135.711L174.829 125.272C182.412 116.04 193.785 110.087 206.624 109.829ZM168.367 167.202C166.643 162.802 165.609 158.056 165.523 153.052L166.04 145.374C166.816 140.543 168.367 135.97 170.607 131.829L186.117 142.268C185.514 143.648 184.997 145.115 184.652 146.582L184.135 154.26C184.307 155.813 184.566 157.366 185.083 158.833L168.367 167.202ZM200.42 193.257C188.357 191.272 178.017 184.025 171.727 174.017L188.443 165.649C191.631 170.049 196.37 173.241 201.799 174.621L200.42 193.257ZM207.313 162.284C201.54 162.198 196.887 157.453 196.973 151.672C197.06 145.892 201.799 141.233 207.572 141.319C213.345 141.405 217.998 146.15 217.912 151.931C217.739 157.711 213.086 162.37 207.313 162.284ZM208.089 193.861L209.467 175.225C215.327 174.708 220.583 172.033 224.374 167.978L239.884 178.417C232.387 187.649 220.927 193.602 208.089 193.861ZM248.845 158.315C248.069 163.147 246.518 167.719 244.278 171.86L228.768 161.421C229.372 160.041 229.889 158.574 230.233 157.107L230.75 149.429C230.578 147.876 230.319 146.323 229.802 144.856L246.518 136.488C248.242 140.888 249.276 145.633 249.362 150.637L248.845 158.315Z" fill="#1A5EFF"/>
</g>
<g opacity="0.74">
<path opacity="0.74" d="M113.135 289.885C107.017 289.109 101.33 293.509 100.555 299.634C99.7793 305.76 104.174 311.454 110.291 312.23C116.409 313.007 122.096 308.607 122.872 302.481C123.647 296.356 119.339 290.662 113.135 289.885Z" fill="url(#paint0_linear)"/>
<path opacity="0.36" d="M216.533 306.191L204.815 304.725C205.074 297.736 204.643 290.92 203.436 284.277L214.81 281.171C219.032 279.963 221.531 275.65 220.411 271.336C219.291 267.108 214.896 264.606 210.588 265.728L199.214 268.834C196.802 262.363 193.7 256.152 189.995 250.371L199.3 243.124C202.747 240.449 203.436 235.359 200.679 231.908C198.008 228.457 192.924 227.767 189.478 230.528L180.172 237.775C175.519 232.771 170.349 228.285 164.748 224.402L170.607 214.135C172.762 210.339 171.469 205.422 167.592 203.265C163.8 201.108 158.889 202.402 156.735 206.284L150.876 216.551C144.672 213.704 138.123 211.547 131.23 210.08L132.695 198.347C133.212 193.947 130.11 189.978 125.802 189.461C121.407 188.943 117.444 192.049 116.927 196.363L115.462 208.096C108.482 207.837 101.675 208.269 95.0408 209.477L91.9388 198.088C90.7325 193.861 86.3381 191.359 82.116 192.48C77.8939 193.688 75.3951 198.002 76.5153 202.316L79.6172 213.704C73.1548 216.12 66.951 219.226 61.1779 222.935L53.94 213.618C51.2689 210.167 46.1852 209.477 42.7386 212.237C39.292 214.912 38.6026 220.002 41.3599 223.453L48.5978 232.771C43.6002 237.43 39.1196 242.606 35.2422 248.214L24.9886 242.347C21.1973 240.191 16.2859 241.485 14.1318 245.367C11.9776 249.163 13.2701 254.081 17.1476 256.238L27.4012 262.104C24.5577 268.316 22.4036 274.873 20.9388 281.689L9.22037 280.222C4.82595 279.705 0.862357 282.811 0.345367 287.124C-0.171624 291.524 2.93032 295.493 7.23857 296.011L18.957 297.477C18.6985 304.466 19.1293 311.281 20.3357 317.925L8.96187 321.031C4.73978 322.238 2.241 326.552 3.36114 330.866C4.56745 335.093 8.87571 337.595 13.184 336.474L24.5577 333.368C26.9704 339.839 30.0723 346.05 33.7774 351.831L24.4716 359.078C21.025 361.752 20.3357 366.843 23.0929 370.294C25.7641 373.745 30.8478 374.435 34.2944 371.674L43.6002 364.427C48.2531 369.431 53.423 373.917 59.0238 377.8L53.1645 388.066C51.0104 391.863 52.3029 396.78 56.1803 398.937C59.9716 401.094 64.883 399.8 67.0371 395.917L72.8963 385.651C79.1002 388.498 85.6488 390.655 92.542 392.121L91.0772 403.855C90.5602 408.255 93.6621 412.224 98.0565 412.741C102.451 413.259 106.415 410.153 106.932 405.839L108.396 394.106C115.376 394.365 122.183 393.933 128.817 392.725L131.919 404.114C133.126 408.341 137.52 410.843 141.742 409.722C145.964 408.6 148.463 404.2 147.343 399.886L144.241 388.498C150.703 386.082 156.907 382.976 162.68 379.266L169.918 388.584C172.589 392.035 177.673 392.725 181.12 389.965C184.566 387.29 185.256 382.2 182.498 378.749L175.26 369.431C180.258 364.772 184.739 359.596 188.616 353.988L198.87 359.854C202.747 362.011 207.572 360.717 209.726 356.835C211.881 353.039 210.588 348.121 206.711 345.964L196.457 340.097C199.3 333.886 201.455 327.329 202.919 320.427L214.638 321.893C219.032 322.411 222.996 319.305 223.513 314.991C224.03 310.677 220.928 306.709 216.533 306.191ZM53.3369 261.155C58.5929 253.477 69.1051 251.493 76.7738 256.755C84.4425 262.018 86.4242 272.544 81.1682 280.222C75.9121 287.901 65.4 289.885 57.7313 284.622C50.0626 279.273 48.0808 268.834 53.3369 261.155ZM70.0529 339.235C61.6087 343.203 51.6136 339.58 47.65 331.125C43.6864 322.67 47.3053 312.662 55.7495 308.693C64.1937 304.724 74.1888 308.348 78.1524 316.803C82.116 325.258 78.4971 335.266 70.0529 339.235ZM120.546 230.787C129.765 231.908 136.314 240.363 135.194 249.595C134.074 258.826 125.629 265.383 116.41 264.261C107.19 263.14 100.641 254.685 101.762 245.453C102.882 236.222 111.326 229.665 120.546 230.787ZM102.968 371.415C93.7483 370.294 87.1997 361.839 88.3199 352.607C89.44 343.376 97.8842 336.819 107.104 337.941C116.324 339.062 122.872 347.517 121.752 356.749C120.632 365.98 112.188 372.537 102.968 371.415ZM109.172 321.98C97.6257 320.513 89.5262 309.987 90.9048 298.513C92.3696 286.952 102.882 278.842 114.342 280.222C125.888 281.689 133.987 292.215 132.609 303.689C131.144 315.25 120.632 323.36 109.172 321.98ZM153.461 262.967C161.905 258.999 171.9 262.622 175.864 271.077C179.827 279.532 176.208 289.54 167.764 293.509C159.32 297.477 149.325 293.854 145.361 285.399C141.398 276.944 145.016 266.85 153.461 262.967ZM170.177 341.046C164.921 348.725 154.408 350.709 146.74 345.446C139.071 340.184 137.089 329.658 142.345 321.98C147.601 314.301 158.114 312.317 165.782 317.58C173.451 322.842 175.433 333.368 170.177 341.046Z" fill="#1A5EFF"/>
</g>
</g>
<path d="M198.352 335.18L162.938 333.799L184.824 257.963L217.395 264.348L198.352 335.18Z" fill="url(#paint1_linear)"/>
<path d="M359.05 246.316C359.05 214.394 333.2 188.512 301.319 188.512H235.748C203.867 188.512 178.017 214.394 178.017 246.316V271.163L214.379 276.685V379.87L344.488 371.243V269.179L359.05 272.371V246.316Z" fill="url(#paint2_linear)"/>
<path d="M265.992 210.857C275.039 210.857 282.277 203.265 281.846 194.206L280.295 160.127L250.999 162.974L250.137 194.465C249.793 203.437 257.031 210.857 265.992 210.857Z" fill="url(#paint3_linear)"/>
<path d="M295.115 148.652C295.115 152.621 291.927 155.813 287.964 155.813C287.447 155.813 287.016 155.727 286.499 155.641C286.413 155.641 286.327 155.641 286.24 155.554C286.154 155.554 285.982 155.468 285.896 155.468C285.723 155.468 285.637 155.382 285.465 155.296C285.206 155.209 284.948 155.123 284.689 154.951C283.311 154.26 282.191 153.139 281.501 151.758C281.243 151.931 280.984 152.19 280.812 152.449C279.692 153.656 278.486 154.692 277.193 155.727C272.54 159.178 263.321 158.747 259.96 154.347C259.012 153.139 257.72 152.276 256.255 152.017C254.704 151.758 253.067 152.017 251.602 152.88C249.017 154.347 247.466 153.743 246.518 152.276C246.26 151.845 246.001 151.413 245.829 150.982C245.312 149.86 244.795 148.739 244.45 147.617C243.761 145.46 243.416 143.131 243.416 140.629C243.416 127.774 253.756 117.421 266.595 117.421C279.433 117.421 289.773 127.774 289.773 140.629C289.773 140.974 289.773 141.405 289.773 141.75C292.789 142.527 295.115 145.288 295.115 148.652Z" fill="url(#paint4_linear)"/>
<path d="M284.689 155.037C280.467 160.386 273.919 163.837 266.509 163.837C257.978 163.837 250.482 159.178 246.432 152.276C247.466 153.743 248.931 154.347 251.516 152.88C252.981 152.103 254.618 151.758 256.169 152.017C257.72 152.276 259.012 153.139 259.874 154.347C263.234 158.747 272.454 159.178 277.107 155.727C278.399 154.778 279.606 153.656 280.726 152.449C280.984 152.19 281.157 152.017 281.415 151.758C282.277 153.225 283.397 154.347 284.689 155.037Z" fill="url(#paint5_linear)"/>
<path d="M286.499 155.641L283.914 166.339C280.553 179.194 266.25 187.476 252.033 184.802C244.795 183.421 240.573 177.296 240.831 166.598C241.09 155.813 243.158 151.413 244.45 147.617C244.795 148.825 245.312 149.947 245.829 150.982C246.001 151.413 246.26 151.931 246.518 152.276C247.552 153.743 249.017 154.347 251.602 152.88C253.067 152.103 254.704 151.758 256.255 152.017C257.806 152.276 259.098 153.139 259.96 154.347C263.32 158.747 272.54 159.178 277.193 155.727C278.486 154.778 279.692 153.656 280.812 152.449C281.07 152.19 281.243 152.017 281.501 151.758C282.191 153.139 283.311 154.26 284.689 154.951C284.948 155.037 285.206 155.209 285.465 155.296C285.551 155.382 285.723 155.382 285.896 155.468C285.982 155.468 286.154 155.555 286.24 155.555C286.327 155.555 286.413 155.641 286.499 155.641Z" fill="#020203"/>
<path d="M251.516 111.295C259.443 110.26 272.196 113.452 281.157 114.574C285.723 115.178 289.687 117.421 290.635 120.786C291.583 123.978 292.1 135.711 289.515 141.664C288.998 141.578 288.481 141.492 287.878 141.492C286.068 141.492 284.345 142.182 283.139 143.303C282.018 140.111 282.966 133.641 269.524 131.397C264.268 133.209 259.357 133.554 256.944 133.899C250.137 134.762 242.21 131.225 241.521 125.013C240.745 118.715 244.795 112.158 251.516 111.295Z" fill="#020203"/>
<path d="M309.677 273.148H214.465V276.254H309.677V273.148Z" fill="url(#paint6_linear)"/>
<path d="M309.677 284.105H214.465V287.211H309.677V284.105Z" fill="url(#paint7_linear)"/>
<path d="M309.677 294.975H214.465V298.081H309.677V294.975Z" fill="url(#paint8_linear)"/>
<path d="M309.677 305.932H214.465V309.038H309.677V305.932Z" fill="url(#paint9_linear)"/>
<path d="M432.032 401.871H294.771V318.701C294.771 294.63 296.322 275.132 320.276 275.132H398.6C417.039 275.132 431.945 290.058 431.945 308.521V401.871H432.032Z" fill="url(#paint10_linear)"/>
<path d="M315.45 205.594C315.45 205.594 307.868 207.665 308.557 217.241C309.16 225.351 308.729 268.834 308.557 282.12C308.557 285.83 309.333 289.799 312.09 292.387C314.33 294.458 314.761 296.011 329.151 296.787C351.553 297.909 342.161 248.3 342.161 248.3L315.45 205.594Z" fill="#020202"/>
<path d="M411.611 401.094H278.744V337.854C278.744 303.171 306.834 275.132 341.386 275.132H348.969C383.607 275.132 411.611 303.258 411.611 337.854V401.094Z" fill="url(#paint11_linear)"/>
<path d="M411.611 401.612H387.571V330.866H410.577C411.18 330.866 411.697 331.383 411.697 331.987V401.612H411.611Z" fill="url(#paint12_linear)"/>
<path d="M319.069 256.928C314.244 256.928 310.367 253.045 310.367 248.214C310.367 243.814 313.727 240.104 318.035 239.5C318.035 239.5 318.035 239.5 318.122 239.5C318.208 239.587 318.294 239.673 318.38 239.759C318.466 239.845 318.466 239.845 318.552 239.932C318.466 239.932 318.208 240.018 318.122 240.018C313.986 240.536 310.798 244.073 310.798 248.3C310.798 252.873 314.503 256.583 319.069 256.583C323.636 256.583 327.341 252.873 327.341 248.3C327.341 244.418 324.756 241.139 320.965 240.19C320.879 240.19 320.793 240.018 320.793 239.932C320.793 239.845 320.965 239.759 321.051 239.759C325.015 240.708 327.772 244.159 327.772 248.3C327.772 252.959 323.895 256.928 319.069 256.928Z" fill="url(#paint13_linear)"/>
<path d="M299.337 329.054H275.039V383.062H299.337V329.054Z" fill="url(#paint14_linear)"/>
<path d="M330.357 284.45C330.357 291.524 336.13 297.305 343.196 297.305H345.091C352.157 297.305 357.93 291.524 357.93 284.45V277.375V246.057H330.357V277.289V284.45Z" fill="url(#paint15_linear)"/>
<path d="M337.164 254.512C352.202 254.512 364.392 242.306 364.392 227.249C364.392 212.192 352.202 199.986 337.164 199.986C322.126 199.986 309.936 212.192 309.936 227.249C309.936 242.306 322.126 254.512 337.164 254.512Z" fill="url(#paint16_linear)"/>
<path d="M358.791 202.833C363.978 202.833 368.183 198.623 368.183 193.429C368.183 188.236 363.978 184.025 358.791 184.025C353.604 184.025 349.399 188.236 349.399 193.429C349.399 198.623 353.604 202.833 358.791 202.833Z" fill="url(#paint17_linear)"/>
<path d="M312.693 206.284C312.693 206.284 322.257 224.143 340.783 226.214C359.308 228.285 341.731 244.677 342.162 254.34C342.937 271.595 349.744 299.548 377.834 298.168C388.949 297.65 395.412 292.646 399.031 286.865C404.459 278.324 403.942 267.367 398.341 258.999C387.657 243.21 360.773 204.041 356.551 201.453C351.123 198.002 313.382 197.312 312.693 206.284Z" fill="url(#paint18_linear)"/>
<path d="M345.263 256.928C340.438 256.928 336.561 253.045 336.561 248.214C336.561 243.814 339.921 240.104 344.229 239.5C344.229 239.5 344.229 239.5 344.316 239.5C344.402 239.587 344.488 239.673 344.574 239.759C344.66 239.845 344.66 239.845 344.746 239.932C344.66 239.932 344.402 240.018 344.316 240.018C340.18 240.536 336.992 244.073 336.992 248.3C336.992 252.873 340.697 256.583 345.263 256.583C349.83 256.583 353.535 252.873 353.535 248.3C353.535 244.418 350.95 241.139 347.159 240.19C347.073 240.19 346.987 240.018 346.987 239.932C346.987 239.845 347.159 239.759 347.245 239.759C351.209 240.708 353.966 244.159 353.966 248.3C353.966 252.959 350.089 256.928 345.263 256.928Z" fill="url(#paint19_linear)"/>
<path d="M344.919 307.399C345.49 307.399 345.953 306.935 345.953 306.364C345.953 305.792 345.49 305.328 344.919 305.328C344.348 305.328 343.885 305.792 343.885 306.364C343.885 306.935 344.348 307.399 344.919 307.399Z" fill="white"/>
<path d="M344.919 316.458C345.49 316.458 345.953 315.994 345.953 315.423C345.953 314.851 345.49 314.387 344.919 314.387C344.348 314.387 343.885 314.851 343.885 315.423C343.885 315.994 344.348 316.458 344.919 316.458Z" fill="white"/>
<path d="M344.919 325.431C345.49 325.431 345.953 324.967 345.953 324.395C345.953 323.823 345.49 323.36 344.919 323.36C344.348 323.36 343.885 323.823 343.885 324.395C343.885 324.967 344.348 325.431 344.919 325.431Z" fill="white"/>
<g opacity="0.44">
<path opacity="0.44" d="M387.57 361.149H300.113V362.702H387.57V361.149Z" fill="url(#paint20_linear)"/>
</g>
<g opacity="0.44">
<path opacity="0.44" d="M387.57 371.156H300.113V372.709H387.57V371.156Z" fill="url(#paint21_linear)"/>
</g>
<g opacity="0.44">
<path opacity="0.44" d="M387.57 381.251H300.113V382.804H387.57V381.251Z" fill="url(#paint22_linear)"/>
</g>
<g opacity="0.44">
<path opacity="0.44" d="M387.57 391.259H300.113V392.812H387.57V391.259Z" fill="url(#paint23_linear)"/>
</g>
<path d="M227.993 375.211C230.836 375.211 233.68 374.435 236.265 372.882C243.761 368.309 246.174 358.474 241.607 350.882L193.785 272.544C189.219 265.038 179.31 262.622 171.813 267.195C164.317 271.767 161.904 281.603 166.471 289.195L214.293 367.533C217.308 372.537 222.564 375.211 227.993 375.211Z" fill="url(#paint24_linear)"/>
<path d="M174.226 263.571H118.477C101.589 263.571 94.0062 279.877 94.6093 290.23L107.448 395.486C107.965 400.404 112.187 404.114 117.098 404.114L183.101 403.596C188.185 403.596 192.32 399.627 192.665 394.537L196.887 292.473C198.094 276.426 192.665 263.571 174.226 263.571Z" fill="url(#paint25_linear)"/>
<path d="M169.056 381.682C164.92 380.561 160.956 379.266 156.821 380.474C155.614 380.819 153.288 381.078 153.288 381.078L133.211 377.196L133.901 392.812L152.598 392.639L158.113 392.725H188.098C188.098 389.447 179.137 384.529 169.056 381.682Z" fill="url(#paint26_linear)"/>
<path d="M135.107 401.094L68.4151 400.749C64.4515 400.663 60.4879 399.455 57.5583 396.78C52.3884 392.121 50.9236 384.874 53.5086 378.835L96.8496 278.324C100.124 270.732 108.827 267.108 116.495 270.128C124.509 273.32 128.386 282.465 125.026 290.403L91.6797 369.431L135.365 377.109L135.107 401.094Z" fill="url(#paint27_linear)"/>
<path d="M141.225 401.094H206.452V392.725H149.152C144.757 392.725 141.225 396.263 141.225 400.663V401.094Z" fill="#7F8080"/>
<path d="M201.195 401.094H299.51C305.197 401.094 310.108 397.298 311.659 391.863L330.788 322.929C332.511 316.803 327.944 310.764 321.568 310.764H232.56C228.768 310.764 225.494 313.352 224.546 316.976L201.195 401.094Z" fill="url(#paint28_linear)"/>
<path d="M278.78 362.231C280.46 357.368 277.886 352.061 273.029 350.378C268.172 348.696 262.872 351.274 261.192 356.137C259.511 361 262.086 366.306 266.943 367.989C271.8 369.672 277.099 367.094 278.78 362.231Z" fill="white"/>
<path d="M180.688 255.548L115.461 256.842L118.391 223.108C118.649 219.312 119.425 213.963 120.717 210.339C125.456 197.139 136.141 187.39 149.238 187.39C164.92 187.563 176.725 199.727 178.534 218.018C179.568 228.285 180.688 255.548 180.688 255.548Z" fill="url(#paint29_linear)"/>
<path d="M150.617 280.912H149.066C142.259 280.912 136.658 275.391 136.658 268.489V232.081H162.938V268.489C162.938 275.391 157.424 280.912 150.617 280.912Z" fill="url(#paint30_linear)"/>
<path d="M170.262 232.857L163.972 243.383H175.777L170.262 232.857Z" fill="url(#paint31_linear)"/>
<path d="M150.875 246.834C164.342 246.834 175.26 235.902 175.26 222.418C175.26 208.933 164.342 198.002 150.875 198.002C137.408 198.002 126.49 208.933 126.49 222.418C126.49 235.902 137.408 246.834 150.875 246.834Z" fill="url(#paint32_linear)"/>
<path d="M175.777 216.982C166.729 215.429 162.68 214.308 152.081 214.308L152.34 196.621L172.072 199.296L175.777 216.982Z" fill="url(#paint33_linear)"/>
<path d="M137.002 198.778C133.987 200.159 129.334 204.904 127.783 207.665C126.232 210.339 124.681 216.465 124.078 219.484C122.785 226.214 121.924 246.92 121.924 246.92L134.504 247.61C134.504 247.61 133.384 238.206 133.556 235.014C133.556 234.583 133.642 234.151 133.642 233.634C130.023 232.512 127.524 229.061 127.869 225.092C128.214 220.606 132.177 217.155 136.744 217.5C137.089 217.5 137.433 217.586 137.778 217.673C141.828 216.551 147.256 211.978 148.979 208.786C150.444 206.112 154.235 197.829 154.235 197.829C154.235 197.829 141.138 196.88 137.002 198.778Z" fill="url(#paint34_linear)"/>
<path d="M134.073 231.39C134.073 232.685 133.039 233.806 131.66 233.806C130.368 233.806 129.248 232.771 129.248 231.39C129.248 230.096 130.282 228.975 131.66 228.975C132.953 228.975 134.073 230.096 134.073 231.39Z" fill="url(#paint35_linear)"/>
<path d="M131.66 232.081L125.37 242.693H137.175L131.66 232.081Z" fill="url(#paint36_linear)"/>
<g opacity="0.72">
<path opacity="0.72" d="M140.018 309.124C140.018 310.074 139.243 310.764 138.381 310.764C137.52 310.764 136.744 309.987 136.744 309.124C136.744 308.175 137.52 307.485 138.381 307.485C139.243 307.485 140.018 308.175 140.018 309.124Z" fill="white"/>
<path opacity="0.72" d="M118.822 348.293C118.822 349.242 118.046 349.933 117.184 349.933C116.237 349.933 115.547 349.156 115.547 348.293C115.547 347.344 116.323 346.654 117.184 346.654C118.046 346.654 118.822 347.344 118.822 348.293Z" fill="white"/>
<path opacity="0.72" d="M177.242 330.693C178.146 330.693 178.879 329.959 178.879 329.054C178.879 328.149 178.146 327.415 177.242 327.415C176.337 327.415 175.604 328.149 175.604 329.054C175.604 329.959 176.337 330.693 177.242 330.693Z" fill="white"/>
<path opacity="0.72" d="M150.789 342.686C150.789 343.635 150.013 344.325 149.152 344.325C148.204 344.325 147.515 343.548 147.515 342.686C147.515 341.736 148.29 341.046 149.152 341.046C150.1 341.046 150.789 341.736 150.789 342.686Z" fill="white"/>
<path opacity="0.72" d="M180.516 372.364C180.516 373.313 179.74 374.004 178.879 374.004C178.017 374.004 177.242 373.227 177.242 372.364C177.242 371.502 178.017 370.725 178.879 370.725C179.74 370.725 180.516 371.415 180.516 372.364Z" fill="white"/>
<path opacity="0.72" d="M94.6954 328.191C94.6954 329.14 93.9199 329.83 93.0583 329.83C92.1105 329.83 91.4211 329.054 91.4211 328.191C91.4211 327.242 92.1966 326.552 93.0583 326.552C93.9199 326.552 94.6954 327.242 94.6954 328.191Z" fill="white"/>
<path opacity="0.72" d="M108.568 289.454C108.568 290.403 107.792 291.093 106.931 291.093C105.983 291.093 105.294 290.316 105.294 289.454C105.294 288.591 106.069 287.814 106.931 287.814C107.792 287.814 108.568 288.505 108.568 289.454Z" fill="white"/>
<path opacity="0.72" d="M180.516 283.759C180.516 284.709 179.74 285.399 178.879 285.399C178.017 285.399 177.242 284.622 177.242 283.759C177.242 282.81 178.017 282.12 178.879 282.12C179.74 282.12 180.516 282.897 180.516 283.759Z" fill="white"/>
<path opacity="0.72" d="M207.399 310.764C207.399 311.713 206.624 312.403 205.762 312.403C204.814 312.403 204.125 311.626 204.125 310.764C204.125 309.815 204.9 309.124 205.762 309.124C206.624 309.124 207.399 309.901 207.399 310.764Z" fill="white"/>
<path opacity="0.72" d="M68.5013 357.611C69.4054 357.611 70.1384 356.877 70.1384 355.972C70.1384 355.067 69.4054 354.333 68.5013 354.333C67.5971 354.333 66.8641 355.067 66.8641 355.972C66.8641 356.877 67.5971 357.611 68.5013 357.611Z" fill="white"/>
<path opacity="0.72" d="M89.5255 387.808C89.5255 388.757 88.75 389.447 87.8884 389.447C86.9405 389.447 86.2512 388.67 86.2512 387.808C86.2512 386.859 87.0267 386.168 87.8884 386.168C88.8362 386.082 89.5255 386.859 89.5255 387.808Z" fill="white"/>
<path opacity="0.72" d="M115.461 378.662C115.461 379.611 114.686 380.302 113.824 380.302C112.876 380.302 112.187 379.525 112.187 378.662C112.187 377.713 112.962 377.023 113.824 377.023C114.772 377.023 115.461 377.713 115.461 378.662Z" fill="white"/>
</g>
<path d="M11.0293 412.569H479.767C482.524 412.569 484.765 409.98 484.765 406.874C484.765 403.682 482.524 401.18 479.767 401.18H11.0293C8.27203 401.18 6.03174 403.768 6.03174 406.874C6.03174 409.98 8.27203 412.569 11.0293 412.569Z" fill="url(#paint37_linear)"/>
<path d="M11.0293 412.569H479.767C482.524 412.569 484.765 409.98 484.765 406.874C484.765 403.682 482.524 401.18 479.767 401.18H11.0293C8.27203 401.18 6.03174 403.768 6.03174 406.874C6.03174 409.98 8.27203 412.569 11.0293 412.569Z" fill="url(#paint38_linear)"/>
<path d="M436.598 113.797H372.319C364.651 113.797 358.361 120.872 358.361 129.672V152.017C358.361 160.731 364.564 167.892 372.319 167.892H387.657L387.743 181.437L402.132 167.719C403.166 167.547 440.476 167.288 441.424 166.856C446.68 164.613 450.471 158.833 450.471 152.017V129.672C450.557 120.872 444.267 113.797 436.598 113.797Z" fill="url(#paint39_linear)"/>
<g opacity="0.25">
<path opacity="0.25" d="M422.744 141.943C423.777 131.512 416.17 122.22 405.752 121.189C395.333 120.158 386.05 127.779 385.016 138.21C383.982 148.641 391.59 157.933 402.008 158.963C412.427 159.994 421.71 152.374 422.744 141.943Z" fill="#F8FCFF"/>
</g>
<mask id="mask0" mask-type="alpha" maskUnits="userSpaceOnUse" x="392" y="128" width="25" height="21">
<path d="M415.919 147.358H413.765V141.492C413.765 140.197 412.817 139.162 411.611 139.162C410.404 139.162 409.457 140.197 409.457 141.492V147.358H406.527V138.731C406.527 137.437 405.579 136.401 404.373 136.401C403.166 136.401 402.219 137.437 402.219 138.731V147.358H399.289V130.621C399.289 129.327 398.341 128.291 397.135 128.291C395.929 128.291 394.981 129.327 394.981 130.621V147.358H392.827C392.482 147.358 392.224 147.617 392.224 147.962C392.224 148.307 392.482 148.566 392.827 148.566H416.177C416.522 148.566 416.781 148.307 416.781 147.962C416.522 147.617 416.264 147.358 415.919 147.358Z" fill="url(#paint40_linear)"/>
</mask>
<g mask="url(#mask0)">
<path d="M415.919 147.358H413.765V141.492C413.765 140.197 412.817 139.162 411.611 139.162C410.404 139.162 409.457 140.197 409.457 141.492V147.358H406.527V138.731C406.527 137.437 405.579 136.401 404.373 136.401C403.166 136.401 402.219 137.437 402.219 138.731V147.358H399.289V130.621C399.289 129.327 398.341 128.291 397.135 128.291C395.929 128.291 394.981 129.327 394.981 130.621V147.358H392.827C392.482 147.358 392.224 147.617 392.224 147.962C392.224 148.307 392.482 148.566 392.827 148.566H416.177C416.522 148.566 416.781 148.307 416.781 147.962C416.522 147.617 416.264 147.358 415.919 147.358Z" fill="url(#paint41_linear)"/>
</g>
<path d="M13.3558 173.672H85.3898C89.3534 173.672 92.5415 177.727 92.5415 182.731V217.931C92.5415 222.935 89.3534 226.99 85.3898 226.99H75.6531L76.601 242.261L55.8352 226.99H13.3558C9.39221 226.99 6.2041 222.935 6.2041 217.931V182.731C6.29027 177.727 9.47837 173.672 13.3558 173.672Z" fill="url(#paint42_linear)"/>
<mask id="mask1" mask-type="alpha" maskUnits="userSpaceOnUse" x="15" y="208" width="69" height="4">
<path d="M83.6665 208.355H15.3376V211.374H83.6665V208.355Z" fill="url(#paint43_linear)"/>
</mask>
<g mask="url(#mask1)">
<path opacity="0.47" d="M83.6665 208.355H15.3376V211.374H83.6665V208.355Z" fill="url(#paint44_linear)"/>
</g>
<mask id="mask2" mask-type="alpha" maskUnits="userSpaceOnUse" x="15" y="198" width="69" height="4">
<path d="M83.6665 198.433H15.3376V201.453H83.6665V198.433Z" fill="url(#paint45_linear)"/>
</mask>
<g mask="url(#mask2)">
<path opacity="0.47" d="M83.6665 198.433H15.3376V201.453H83.6665V198.433Z" fill="url(#paint46_linear)"/>
</g>
<mask id="mask3" mask-type="alpha" maskUnits="userSpaceOnUse" x="15" y="188" width="69" height="4">
<path d="M83.6665 188.425H15.3376V191.445H83.6665V188.425Z" fill="url(#paint47_linear)"/>
</mask>
<g mask="url(#mask3)">
<path opacity="0.47" d="M83.6665 188.425H15.3376V191.445H83.6665V188.425Z" fill="url(#paint48_linear)"/>
</g>
<path opacity="0.85" d="M355.086 49.8671C355.086 30.6277 338.887 15.1845 319.414 16.5649C302.784 17.6865 289.429 31.318 288.481 47.9691C287.791 59.7888 293.306 70.4007 302.095 76.785C306.145 79.7184 308.643 84.3773 308.643 89.3812V96.0244H334.148V90.0714C334.148 84.9812 336.561 80.2361 340.697 77.389C349.399 71.3497 355.086 61.2555 355.086 49.8671Z" fill="#F6EC0C"/>
<path d="M334.234 99.3029H307.696C306.834 99.3029 306.145 98.6127 306.145 97.7499V97.5774C306.145 96.7146 306.834 96.0244 307.696 96.0244H334.234C335.096 96.0244 335.785 96.7146 335.785 97.5774V97.7499C335.785 98.6127 335.096 99.3029 334.234 99.3029Z" fill="url(#paint49_linear)"/>
<path d="M334.234 102.581H307.696C306.834 102.581 306.145 101.891 306.145 101.028V100.856C306.145 99.9932 306.834 99.303 307.696 99.303H334.234C335.096 99.303 335.785 99.9932 335.785 100.856V101.028C335.785 101.891 335.096 102.581 334.234 102.581Z" fill="url(#paint50_linear)"/>
<path d="M334.234 105.86H307.696C306.834 105.86 306.145 105.17 306.145 104.307V104.134C306.145 103.272 306.834 102.581 307.696 102.581H334.234C335.096 102.581 335.785 103.272 335.785 104.134V104.307C335.785 105.17 335.096 105.86 334.234 105.86Z" fill="url(#paint51_linear)"/>
<path d="M334.234 109.225H307.696C306.834 109.225 306.145 108.534 306.145 107.672V107.499C306.145 106.636 306.834 105.946 307.696 105.946H334.234C335.096 105.946 335.785 106.636 335.785 107.499V107.672C335.785 108.448 335.096 109.225 334.234 109.225Z" fill="url(#paint52_linear)"/>
<path d="M327.341 118.456H314.589C310.367 118.456 307.006 115.005 307.006 110.864V110.346C307.006 109.828 307.437 109.397 307.954 109.397H334.148C334.665 109.397 335.096 109.828 335.096 110.346V110.864C334.924 115.091 331.477 118.456 327.341 118.456Z" fill="url(#paint53_linear)"/>
<g opacity="0.56">
<path opacity="0.55" d="M291.583 20.9648C291.41 20.9648 291.238 20.8786 291.066 20.7923L284.862 14.4079C284.603 14.1491 284.603 13.7177 284.862 13.4589C285.12 13.2001 285.551 13.2001 285.81 13.4589L292.014 19.8433C292.272 20.1021 292.272 20.5335 292.014 20.7923C291.927 20.8786 291.755 20.9648 291.583 20.9648Z" fill="url(#paint54_linear)"/>
</g>
<g opacity="0.56">
<path opacity="0.55" d="M355.086 88.4322C354.914 88.4322 354.742 88.3459 354.569 88.1734L348.624 81.7027C348.365 81.4439 348.365 81.0125 348.624 80.7537C348.882 80.4949 349.313 80.4949 349.572 80.7537L355.517 87.2243C355.776 87.4832 355.776 87.9145 355.517 88.1734C355.345 88.4322 355.259 88.4322 355.086 88.4322Z" fill="url(#paint55_linear)"/>
</g>
<g opacity="0.56">
<path opacity="0.55" d="M280.382 40.0317C280.296 40.0317 280.296 40.0317 280.209 40.0317L271.765 37.616C271.421 37.5297 271.162 37.0984 271.334 36.7533C271.421 36.4082 271.851 36.1493 272.196 36.3219L280.64 38.7376C280.985 38.8239 281.243 39.2553 281.071 39.6004C280.899 39.8592 280.64 40.0317 280.382 40.0317Z" fill="url(#paint56_linear)"/>
</g>
<g opacity="0.56">
<path opacity="0.55" d="M369.045 66.6909C368.959 66.6909 368.873 66.6909 368.873 66.6909L360.515 64.0163C360.17 63.93 359.998 63.4987 360.084 63.1536C360.17 62.8085 360.601 62.6359 360.945 62.7222L369.304 65.3967C369.648 65.483 369.821 65.9144 369.734 66.2595C369.562 66.5183 369.304 66.6909 369.045 66.6909Z" fill="url(#paint57_linear)"/>
</g>
<g opacity="0.56">
<path opacity="0.55" d="M271.765 64.1889C271.42 64.1889 271.162 64.0163 271.075 63.6712C270.989 63.3261 271.162 62.981 271.592 62.8085L280.123 60.6516C280.467 60.5653 280.812 60.7378 280.984 61.1692C281.071 61.5143 280.898 61.8594 280.467 62.032L271.937 64.1889C271.937 64.1889 271.851 64.1889 271.765 64.1889Z" fill="url(#paint58_linear)"/>
</g>
<g opacity="0.56">
<path opacity="0.55" d="M361.893 42.7062C361.549 42.7062 361.29 42.5337 361.204 42.1886C361.118 41.8435 361.376 41.4984 361.721 41.4121L370.338 39.514C370.682 39.4278 371.027 39.6866 371.113 40.0317C371.199 40.3768 370.941 40.7219 370.596 40.8082L361.98 42.7062H361.893Z" fill="url(#paint59_linear)"/>
</g>
<g opacity="0.56">
<path opacity="0.55" d="M285.034 87.0518C284.862 87.0518 284.689 86.9656 284.517 86.8793C284.259 86.6205 284.259 86.1891 284.517 85.9303L290.807 79.8047C291.066 79.5459 291.497 79.5459 291.755 79.8047C292.014 80.0635 292.014 80.4949 291.755 80.7537L285.465 86.8793C285.379 86.9656 285.206 87.0518 285.034 87.0518Z" fill="url(#paint60_linear)"/>
</g>
<g opacity="0.56">
<path opacity="0.55" d="M352.243 23.2943C352.071 23.2943 351.898 23.208 351.726 23.0355C351.467 22.7767 351.467 22.3453 351.726 22.0865L358.188 16.1335C358.447 15.8746 358.878 15.8746 359.136 16.1335C359.395 16.3923 359.395 16.8237 359.136 17.0825L352.674 23.0355C352.588 23.2943 352.415 23.2943 352.243 23.2943Z" fill="url(#paint61_linear)"/>
</g>
<g opacity="0.56">
<path opacity="0.55" d="M334.062 11.2158C333.976 11.2158 333.89 11.2158 333.89 11.2158C333.545 11.1296 333.373 10.6982 333.459 10.3531L336.13 1.98437C336.216 1.63927 336.647 1.46672 336.992 1.55299C337.336 1.63927 337.509 2.07064 337.422 2.41575L334.751 10.7845C334.665 11.0433 334.407 11.2158 334.062 11.2158Z" fill="url(#paint62_linear)"/>
</g>
<g opacity="0.56">
<path opacity="0.55" d="M312.176 9.92166C311.831 9.92166 311.573 9.74911 311.487 9.40401L309.591 0.776476C309.505 0.431374 309.763 0.0862731 310.108 -2.19978e-06C310.453 -0.0862775 310.797 0.172548 310.884 0.51765L312.779 9.14518C312.865 9.49028 312.607 9.83539 312.262 9.92166H312.176Z" fill="url(#paint63_linear)"/>
</g>
<path opacity="0.55" d="M319.328 95.593C318.466 95.593 317.863 95.593 317.088 95.593C316.915 92.4008 316.657 89.2086 316.484 86.0164C316.054 78.683 315.623 71.4359 315.192 64.1025C315.106 63.2398 314.761 62.9809 314.072 62.5496C312.348 61.6005 310.539 60.6515 309.074 59.3574C307.351 57.8044 306.748 55.7338 307.179 53.4044C307.609 50.9887 309.419 49.4357 311.918 49.4357C314.33 49.4357 316.312 50.9024 316.657 53.2318C317.001 55.475 317.088 57.7181 317.174 60.0476C317.174 60.9103 317.432 61.3417 318.294 61.3417C320.017 61.3417 321.827 61.3417 323.55 61.3417C324.498 61.3417 324.842 60.9966 324.842 59.9613C324.929 57.8044 325.015 55.6475 325.273 53.4044C325.532 51.5063 326.738 50.1259 328.547 49.6083C330.357 49.0906 332.166 49.3494 333.545 50.8161C335.182 52.4553 335.182 54.4397 334.579 56.5103C333.631 59.7025 331.132 61.3417 328.203 62.377C327.169 62.7221 326.738 63.2398 326.738 64.3613C326.307 73.0751 325.704 81.7889 325.273 90.5028C325.187 92.142 325.101 93.7812 324.929 95.4204C324.239 95.4204 323.636 95.4204 322.774 95.4204C323.378 84.8086 323.981 74.1967 324.584 63.4986C322.171 63.4986 319.845 63.4986 317.26 63.4986C318.122 74.1967 318.725 84.8086 319.328 95.593ZM327.255 60.3927C330.615 59.7025 333.028 57.0279 332.942 54.2671C332.856 52.8867 331.994 51.8514 330.615 51.6789C329.237 51.5063 327.858 52.3691 327.772 53.7495C327.427 55.9926 327.341 58.1495 327.255 60.3927ZM315.02 60.4789C314.847 58.2358 314.761 56.0789 314.589 54.0083C314.416 52.4553 313.21 51.5926 311.745 51.7651C310.28 51.8514 309.333 52.973 309.333 54.5259C309.333 57.1142 311.487 59.4436 315.02 60.4789Z" fill="white"/>
<path d="M447.024 365.894H430.136C430.136 365.894 423.329 373.572 421.003 376.074C418.504 378.749 417.901 382.717 419.624 385.996L427.637 401.008H449.523L457.537 385.996C459.26 382.717 458.657 378.749 456.158 376.074C453.918 373.572 447.024 365.894 447.024 365.894Z" fill="url(#paint64_linear)"/>
<path d="M450.73 353.47C450.04 352.003 448.317 351.399 446.852 352.09L444.87 353.039V351.054C444.87 347.603 442.113 344.842 438.666 344.842C435.22 344.842 432.463 347.603 432.463 351.054V365.98H444.87V359.595L449.351 357.439C450.816 356.662 451.419 354.937 450.73 353.47Z" fill="url(#paint65_linear)"/>
<path d="M427.81 375.988C428.19 375.988 428.499 375.679 428.499 375.298C428.499 374.916 428.19 374.607 427.81 374.607C427.429 374.607 427.12 374.916 427.12 375.298C427.12 375.679 427.429 375.988 427.81 375.988Z" fill="#840202"/>
<path d="M433.066 395.917C433.066 396.263 432.807 396.608 432.376 396.608C432.032 396.608 431.687 396.349 431.687 395.917C431.687 395.572 431.945 395.227 432.376 395.227C432.807 395.314 433.066 395.572 433.066 395.917Z" fill="#840202"/>
<path d="M433.583 373.658C434.249 373.658 434.789 373.118 434.789 372.451C434.789 371.783 434.249 371.243 433.583 371.243C432.916 371.243 432.376 371.783 432.376 372.451C432.376 373.118 432.916 373.658 433.583 373.658Z" fill="#840202"/>
<path d="M449.351 382.027C450.017 382.027 450.557 381.486 450.557 380.819C450.557 380.152 450.017 379.611 449.351 379.611C448.685 379.611 448.145 380.152 448.145 380.819C448.145 381.486 448.685 382.027 449.351 382.027Z" fill="#840202"/>
<path d="M446.852 389.36C446.852 389.878 446.421 390.396 445.818 390.396C445.215 390.396 444.784 389.964 444.784 389.36C444.784 388.843 445.215 388.325 445.818 388.325C446.421 388.325 446.852 388.843 446.852 389.36Z" fill="#840202"/>
<path d="M427.81 386.858C427.81 387.462 427.293 388.066 426.603 388.066C426 388.066 425.397 387.549 425.397 386.858C425.397 386.255 425.914 385.651 426.603 385.651C427.293 385.737 427.81 386.255 427.81 386.858Z" fill="#840202"/>
<path d="M434.789 383.407C434.789 383.753 434.53 384.098 434.1 384.098C433.755 384.098 433.41 383.839 433.41 383.407C433.41 383.062 433.669 382.717 434.1 382.717C434.444 382.717 434.789 383.062 434.789 383.407Z" fill="#840202"/>
<path d="M450.04 375.988C450.421 375.988 450.729 375.679 450.729 375.298C450.729 374.916 450.421 374.607 450.04 374.607C449.659 374.607 449.351 374.916 449.351 375.298C449.351 375.679 449.659 375.988 450.04 375.988Z" fill="#840202"/>
<path d="M436.857 392.035C436.857 392.38 436.598 392.725 436.168 392.725C435.823 392.725 435.478 392.466 435.478 392.035C435.478 391.69 435.737 391.345 436.168 391.345C436.598 391.431 436.857 391.69 436.857 392.035Z" fill="#840202"/>
<path d="M439.959 389.878C439.959 390.223 439.7 390.568 439.27 390.568C438.925 390.568 438.58 390.31 438.58 389.878C438.58 389.533 438.839 389.188 439.27 389.188C439.614 389.188 439.959 389.533 439.959 389.878Z" fill="#840202"/>
<path d="M447.8 398.678C447.8 399.023 447.541 399.368 447.111 399.368C446.766 399.368 446.421 399.11 446.421 398.678C446.421 398.333 446.68 397.988 447.111 397.988C447.541 398.074 447.8 398.333 447.8 398.678Z" fill="#840202"/>
<path d="M444.181 374.607C444.181 374.953 443.923 375.298 443.492 375.298C443.147 375.298 442.802 375.039 442.802 374.607C442.802 374.262 443.061 373.917 443.492 373.917C443.923 374.004 444.181 374.262 444.181 374.607Z" fill="#840202"/>
<path d="M443.492 382.027C443.492 382.372 443.233 382.717 442.802 382.717C442.458 382.717 442.113 382.458 442.113 382.027C442.113 381.682 442.372 381.337 442.802 381.337C443.233 381.337 443.492 381.596 443.492 382.027Z" fill="#840202"/>
<path d="M443.492 396.608C443.492 396.953 443.233 397.298 442.802 397.298C442.458 397.298 442.113 397.039 442.113 396.608C442.113 396.263 442.372 395.917 442.802 395.917C443.233 395.917 443.492 396.263 443.492 396.608Z" fill="#840202"/>
<path d="M450.557 388.757C450.938 388.757 451.247 388.448 451.247 388.066C451.247 387.685 450.938 387.376 450.557 387.376C450.176 387.376 449.868 387.685 449.868 388.066C449.868 388.448 450.176 388.757 450.557 388.757Z" fill="#840202"/>
<path d="M440.907 344.67C440.907 346.137 439.873 347.344 438.58 347.344C437.288 347.344 436.254 346.137 436.254 344.67C436.254 343.203 437.288 341.995 438.58 341.995C439.787 341.995 440.907 343.203 440.907 344.67Z" fill="#E63923"/>
<path d="M445.129 346.999C444.87 347.948 443.922 348.552 443.061 348.38C442.199 348.121 441.682 347.172 441.941 346.137C442.199 345.188 443.147 344.584 444.009 344.756C444.87 345.015 445.387 346.05 445.129 346.999Z" fill="#E63923"/>
<defs>
<linearGradient id="paint0_linear" x1="100.525" y1="301.09" x2="123.004" y2="301.09" gradientUnits="userSpaceOnUse">
<stop offset="0.0250244" stop-color="#B4BFEB"/>
<stop offset="0.3717" stop-color="#C3CDF0"/>
<stop offset="1" stop-color="#E9EFFD"/>
</linearGradient>
<linearGradient id="paint1_linear" x1="184.735" y1="251.921" x2="195.774" y2="347.404" gradientUnits="userSpaceOnUse">
<stop offset="0.0679902" stop-color="#E9DDCC"/>
<stop offset="0.8039" stop-color="#E58056"/>
</linearGradient>
<linearGradient id="paint2_linear" x1="178.015" y1="284.182" x2="359.072" y2="284.182" gradientUnits="userSpaceOnUse">
<stop offset="0.0203968" stop-color="#FF3E23"/>
<stop offset="0.2743" stop-color="#E83029"/>
<stop offset="0.804" stop-color="#AD0E38"/>
<stop offset="1" stop-color="#96003E"/>
</linearGradient>
<linearGradient id="paint3_linear" x1="272.692" y1="219.76" x2="265.257" y2="178.915" gradientUnits="userSpaceOnUse">
<stop offset="0.0679902" stop-color="#EBDECE"/>
<stop offset="0.8039" stop-color="#E58056"/>
</linearGradient>
<linearGradient id="paint4_linear" x1="243.372" y1="137.723" x2="295.089" y2="137.723" gradientUnits="userSpaceOnUse">
<stop offset="0.0679902" stop-color="#EBDECE"/>
<stop offset="0.8039" stop-color="#E58056"/>
</linearGradient>
<linearGradient id="paint5_linear" x1="267.469" y1="163.94" x2="265.328" y2="152.028" gradientUnits="userSpaceOnUse">
<stop offset="0.0679902" stop-color="#EBDECE"/>
<stop offset="0.8039" stop-color="#E58056"/>
</linearGradient>
<linearGradient id="paint6_linear" x1="214.48" y1="274.691" x2="309.697" y2="274.691" gradientUnits="userSpaceOnUse">
<stop stop-color="white"/>
<stop offset="1" stop-color="white"/>
</linearGradient>
<linearGradient id="paint7_linear" x1="214.48" y1="285.636" x2="309.697" y2="285.636" gradientUnits="userSpaceOnUse">
<stop stop-color="white"/>
<stop offset="1" stop-color="white"/>
</linearGradient>
<linearGradient id="paint8_linear" x1="214.48" y1="296.581" x2="309.697" y2="296.581" gradientUnits="userSpaceOnUse">
<stop stop-color="white"/>
<stop offset="1" stop-color="white"/>
</linearGradient>
<linearGradient id="paint9_linear" x1="214.48" y1="307.526" x2="309.697" y2="307.526" gradientUnits="userSpaceOnUse">
<stop stop-color="white"/>
<stop offset="1" stop-color="white"/>
</linearGradient>
<linearGradient id="paint10_linear" x1="294.839" y1="338.472" x2="432.287" y2="338.389" gradientUnits="userSpaceOnUse">
<stop stop-color="#011B46"/>
<stop offset="1" stop-color="#029DB1"/>
</linearGradient>
<linearGradient id="paint11_linear" x1="327.3" y1="285.795" x2="355.061" y2="410.114" gradientUnits="userSpaceOnUse">
<stop stop-color="#046D7C"/>
<stop offset="0.1223" stop-color="#035C72"/>
<stop offset="0.5244" stop-color="#022B54"/>
<stop offset="0.8296" stop-color="#000C41"/>
<stop offset="1" stop-color="#00003A"/>
</linearGradient>
<linearGradient id="paint12_linear" x1="385.405" y1="325.498" x2="415.364" y2="412.268" gradientUnits="userSpaceOnUse">
<stop offset="0.0679902" stop-color="#E9DDCC"/>
<stop offset="0.8039" stop-color="#E58056"/>
</linearGradient>
<linearGradient id="paint13_linear" x1="310.324" y1="248.179" x2="327.79" y2="248.179" gradientUnits="userSpaceOnUse">
<stop stop-color="white"/>
<stop offset="0.00398702" stop-color="#F7F7F7"/>
<stop offset="0.0313497" stop-color="#C7C7C6"/>
<stop offset="0.0585127" stop-color="#9F9F9E"/>
<stop offset="0.0849785" stop-color="#80807F"/>
<stop offset="0.1106" stop-color="#6A6A68"/>
<stop offset="0.1349" stop-color="#5D5D5B"/>
<stop offset="0.1565" stop-color="#585856"/>
<stop offset="0.1989" stop-color="#696968"/>
<stop offset="0.3663" stop-color="#A9A9A8"/>
<stop offset="0.5073" stop-color="#D8D8D7"/>
<stop offset="0.615" stop-color="#F4F4F4"/>
<stop offset="0.6766" stop-color="white"/>
<stop offset="0.7039" stop-color="#D4D4D3"/>
<stop offset="0.7358" stop-color="#A8A8A7"/>
<stop offset="0.7667" stop-color="#858584"/>
<stop offset="0.7956" stop-color="#6C6C6A"/>
<stop offset="0.8219" stop-color="#5D5D5B"/>
<stop offset="0.8432" stop-color="#585856"/>
</linearGradient>
<linearGradient id="paint14_linear" x1="276.135" y1="323.948" x2="299.758" y2="392.367" gradientUnits="userSpaceOnUse">
<stop offset="0.0679902" stop-color="#E9DDCC"/>
<stop offset="0.8039" stop-color="#E58056"/>
</linearGradient>
<linearGradient id="paint15_linear" x1="344.235" y1="298.348" x2="344.109" y2="256.288" gradientUnits="userSpaceOnUse">
<stop offset="0.0679902" stop-color="#E9DDCC"/>
<stop offset="0.8039" stop-color="#E58056"/>
</linearGradient>
<linearGradient id="paint16_linear" x1="337.215" y1="255.45" x2="337.071" y2="206.055" gradientUnits="userSpaceOnUse">
<stop offset="0.0679902" stop-color="#E9DDCC"/>
<stop offset="0.8039" stop-color="#E58056"/>
</linearGradient>
<linearGradient id="paint17_linear" x1="349.389" y1="193.392" x2="368.122" y2="193.392" gradientUnits="userSpaceOnUse">
<stop offset="0.0290577" stop-color="#884C5B"/>
<stop offset="0.1212" stop-color="#6E3F4E"/>
<stop offset="0.2737" stop-color="#482B3D"/>
<stop offset="0.415" stop-color="#2C1D30"/>
<stop offset="0.5396" stop-color="#1C1528"/>
<stop offset="0.6341" stop-color="#161225"/>
<stop offset="0.9464"/>
</linearGradient>
<linearGradient id="paint18_linear" x1="312.687" y1="248.66" x2="402.879" y2="248.66" gradientUnits="userSpaceOnUse">
<stop offset="0.0290577" stop-color="#884C5B"/>
<stop offset="0.1212" stop-color="#6E3F4E"/>
<stop offset="0.2737" stop-color="#482B3D"/>
<stop offset="0.415" stop-color="#2C1D30"/>
<stop offset="0.5396" stop-color="#1C1528"/>
<stop offset="0.6341" stop-color="#161225"/>
<stop offset="0.9464"/>
</linearGradient>
<linearGradient id="paint19_linear" x1="336.498" y1="248.179" x2="353.963" y2="248.179" gradientUnits="userSpaceOnUse">
<stop stop-color="white"/>
<stop offset="0.00398702" stop-color="#F7F7F7"/>
<stop offset="0.0313497" stop-color="#C7C7C6"/>
<stop offset="0.0585127" stop-color="#9F9F9E"/>
<stop offset="0.0849785" stop-color="#80807F"/>
<stop offset="0.1106" stop-color="#6A6A68"/>
<stop offset="0.1349" stop-color="#5D5D5B"/>
<stop offset="0.1565" stop-color="#585856"/>
<stop offset="0.1989" stop-color="#696968"/>
<stop offset="0.3663" stop-color="#A9A9A8"/>
<stop offset="0.5073" stop-color="#D8D8D7"/>
<stop offset="0.615" stop-color="#F4F4F4"/>
<stop offset="0.6766" stop-color="white"/>
<stop offset="0.7039" stop-color="#D4D4D3"/>
<stop offset="0.7358" stop-color="#A8A8A7"/>
<stop offset="0.7667" stop-color="#858584"/>
<stop offset="0.7956" stop-color="#6C6C6A"/>
<stop offset="0.8219" stop-color="#5D5D5B"/>
<stop offset="0.8432" stop-color="#585856"/>
</linearGradient>
<linearGradient id="paint20_linear" x1="300.085" y1="361.894" x2="387.541" y2="361.894" gradientUnits="userSpaceOnUse">
<stop stop-color="white"/>
<stop offset="1" stop-color="white"/>
</linearGradient>
<linearGradient id="paint21_linear" x1="300.085" y1="371.947" x2="387.541" y2="371.947" gradientUnits="userSpaceOnUse">
<stop stop-color="white"/>
<stop offset="1" stop-color="white"/>
</linearGradient>
<linearGradient id="paint22_linear" x1="300.085" y1="382" x2="387.541" y2="382" gradientUnits="userSpaceOnUse">
<stop stop-color="white"/>
<stop offset="1" stop-color="white"/>
</linearGradient>
<linearGradient id="paint23_linear" x1="300.085" y1="392.053" x2="387.541" y2="392.053" gradientUnits="userSpaceOnUse">
<stop stop-color="white"/>
<stop offset="1" stop-color="white"/>
</linearGradient>
<linearGradient id="paint24_linear" x1="266.508" y1="341.715" x2="168.685" y2="307.896" gradientUnits="userSpaceOnUse">
<stop stop-color="#0554C4"/>
<stop offset="0.9502" stop-color="#052A52"/>
</linearGradient>
<linearGradient id="paint25_linear" x1="129.688" y1="274.705" x2="165.112" y2="375.351" gradientUnits="userSpaceOnUse">
<stop stop-color="#1D8BB8"/>
<stop offset="1" stop-color="#0C1856"/>
</linearGradient>
<linearGradient id="paint26_linear" x1="150.443" y1="365.373" x2="163.01" y2="397.798" gradientUnits="userSpaceOnUse">
<stop stop-color="#EBDECE"/>
<stop offset="0.8284" stop-color="#E58056"/>
</linearGradient>
<linearGradient id="paint27_linear" x1="109.017" y1="272.91" x2="92.5223" y2="401.035" gradientUnits="userSpaceOnUse">
<stop stop-color="#1D8BB8"/>
<stop offset="1" stop-color="#0C1856"/>
</linearGradient>
<linearGradient id="paint28_linear" x1="267.181" y1="441.023" x2="265.525" y2="308.705" gradientUnits="userSpaceOnUse">
<stop offset="0.0547649" stop-color="#020202"/>
<stop offset="0.1111" stop-color="#272726"/>
<stop offset="0.1859" stop-color="#52514F"/>
<stop offset="0.2648" stop-color="#777573"/>
<stop offset="0.3467" stop-color="#959290"/>
<stop offset="0.4329" stop-color="#ACA9A6"/>
<stop offset="0.5251" stop-color="#BCB9B6"/>
<stop offset="0.6277" stop-color="#C6C3BF"/>
<stop offset="0.7612" stop-color="#C9C6C2"/>
<stop offset="0.8352" stop-color="#CFCCC9"/>
<stop offset="0.9445" stop-color="#DFDEDD"/>
<stop offset="1" stop-color="#EAEAEA"/>
</linearGradient>
<linearGradient id="paint29_linear" x1="146.93" y1="175.898" x2="148.186" y2="262.042" gradientUnits="userSpaceOnUse">
<stop offset="0.0422352" stop-color="#E63923"/>
<stop offset="0.2158" stop-color="#E13723"/>
<stop offset="0.408" stop-color="#D43322"/>
<stop offset="0.6092" stop-color="#BE2C20"/>
<stop offset="0.8151" stop-color="#9F211E"/>
<stop offset="1" stop-color="#7D161B"/>
</linearGradient>
<linearGradient id="paint30_linear" x1="149.83" y1="281.097" x2="149.83" y2="242.163" gradientUnits="userSpaceOnUse">
<stop stop-color="#EBDECE"/>
<stop offset="0.8284" stop-color="#E58056"/>
</linearGradient>
<linearGradient id="paint31_linear" x1="163.96" y1="238.105" x2="175.807" y2="238.105" gradientUnits="userSpaceOnUse">
<stop stop-color="#0B4F4D"/>
<stop offset="1" stop-color="#0F5B28"/>
</linearGradient>
<linearGradient id="paint32_linear" x1="150.034" y1="246.919" x2="151.721" y2="195.519" gradientUnits="userSpaceOnUse">
<stop stop-color="#EBDECE"/>
<stop offset="0.9048" stop-color="#E58056"/>
</linearGradient>
<linearGradient id="paint33_linear" x1="163.378" y1="175.658" x2="164.635" y2="261.801" gradientUnits="userSpaceOnUse">
<stop offset="0.0422352" stop-color="#E63923"/>
<stop offset="0.2158" stop-color="#E13723"/>
<stop offset="0.408" stop-color="#D43322"/>
<stop offset="0.6092" stop-color="#BE2C20"/>
<stop offset="0.8151" stop-color="#9F211E"/>
<stop offset="1" stop-color="#7D161B"/>
</linearGradient>
<linearGradient id="paint34_linear" x1="137.454" y1="176.036" x2="138.711" y2="262.18" gradientUnits="userSpaceOnUse">
<stop offset="0.0422352" stop-color="#E63923"/>
<stop offset="0.2158" stop-color="#E13723"/>
<stop offset="0.408" stop-color="#D43322"/>
<stop offset="0.6092" stop-color="#BE2C20"/>
<stop offset="0.8151" stop-color="#9F211E"/>
<stop offset="1" stop-color="#7D161B"/>
</linearGradient>
<linearGradient id="paint35_linear" x1="129.272" y1="231.401" x2="134.063" y2="231.401" gradientUnits="userSpaceOnUse">
<stop stop-color="#0B4F4D"/>
<stop offset="1" stop-color="#0F5B28"/>
</linearGradient>
<linearGradient id="paint36_linear" x1="125.354" y1="237.373" x2="137.201" y2="237.373" gradientUnits="userSpaceOnUse">
<stop stop-color="#0B4F4D"/>
<stop offset="1" stop-color="#0F5B28"/>
</linearGradient>
<linearGradient id="paint37_linear" x1="6.07301" y1="406.812" x2="484.688" y2="406.812" gradientUnits="userSpaceOnUse">
<stop offset="0.0257934" stop-color="#8D97EB"/>
<stop offset="0.065427" stop-color="#8691E8"/>
<stop offset="0.3163" stop-color="#5C6FDA"/>
<stop offset="0.5436" stop-color="#3E56D0"/>
<stop offset="0.7375" stop-color="#2C47C9"/>
<stop offset="0.8752" stop-color="#2542C7"/>
</linearGradient>
<linearGradient id="paint38_linear" x1="6.27043" y1="406.872" x2="485.391" y2="395.589" gradientUnits="userSpaceOnUse">
<stop stop-color="#28CADF"/>
<stop offset="1" stop-color="#001D4E"/>
</linearGradient>
<linearGradient id="paint39_linear" x1="358.407" y1="147.601" x2="450.643" y2="147.531" gradientUnits="userSpaceOnUse">
<stop stop-color="#011B46"/>
<stop offset="1" stop-color="#029DB1"/>
</linearGradient>
<linearGradient id="paint40_linear" x1="404.04" y1="130.827" x2="404.401" y2="155.736" gradientUnits="userSpaceOnUse">
<stop offset="0.00947604" stop-color="#1A1A1A"/>
<stop offset="1" stop-color="white"/>
</linearGradient>
<linearGradient id="paint41_linear" x1="404.04" y1="130.827" x2="404.401" y2="155.736" gradientUnits="userSpaceOnUse">
<stop offset="0.00947604" stop-color="#C3DFFE"/>
<stop offset="1" stop-color="#9DCFFE"/>
</linearGradient>
<linearGradient id="paint42_linear" x1="6.24715" y1="207.951" x2="92.7023" y2="207.89" gradientUnits="userSpaceOnUse">
<stop stop-color="#011B46"/>
<stop offset="1" stop-color="#029DB1"/>
</linearGradient>
<linearGradient id="paint43_linear" x1="15.3132" y1="209.88" x2="83.63" y2="209.88" gradientUnits="userSpaceOnUse">
<stop offset="0.2157" stop-color="white"/>
<stop offset="1"/>
</linearGradient>
<linearGradient id="paint44_linear" x1="15.3132" y1="209.88" x2="83.63" y2="209.88" gradientUnits="userSpaceOnUse">
<stop offset="0.2157" stop-color="white"/>
<stop offset="1" stop-color="white"/>
</linearGradient>
<linearGradient id="paint45_linear" x1="15.3132" y1="199.925" x2="83.63" y2="199.925" gradientUnits="userSpaceOnUse">
<stop offset="0.2157" stop-color="white"/>
<stop offset="1"/>
</linearGradient>
<linearGradient id="paint46_linear" x1="15.3132" y1="199.925" x2="83.63" y2="199.925" gradientUnits="userSpaceOnUse">
<stop offset="0.2157" stop-color="white"/>
<stop offset="1" stop-color="white"/>
</linearGradient>
<linearGradient id="paint47_linear" x1="15.3132" y1="189.97" x2="83.63" y2="189.97" gradientUnits="userSpaceOnUse">
<stop offset="0.2157" stop-color="white"/>
<stop offset="1"/>
</linearGradient>
<linearGradient id="paint48_linear" x1="15.3132" y1="189.97" x2="83.63" y2="189.97" gradientUnits="userSpaceOnUse">
<stop offset="0.2157" stop-color="white"/>
<stop offset="1" stop-color="white"/>
</linearGradient>
<linearGradient id="paint49_linear" x1="320.938" y1="95.8966" x2="320.938" y2="100.944" gradientUnits="userSpaceOnUse">
<stop offset="0.0679902" stop-color="#B4AFB9"/>
<stop offset="0.1702" stop-color="#A7A5B6"/>
<stop offset="0.4426" stop-color="#898DB0"/>
<stop offset="0.6762" stop-color="#777EAC"/>
<stop offset="0.8422" stop-color="#7079AB"/>
</linearGradient>
<linearGradient id="paint50_linear" x1="320.938" y1="99.1929" x2="320.938" y2="104.24" gradientUnits="userSpaceOnUse">
<stop offset="0.0679902" stop-color="#B4AFB9"/>
<stop offset="0.1702" stop-color="#A7A5B6"/>
<stop offset="0.4426" stop-color="#898DB0"/>
<stop offset="0.6762" stop-color="#777EAC"/>
<stop offset="0.8422" stop-color="#7079AB"/>
</linearGradient>
<linearGradient id="paint51_linear" x1="320.938" y1="102.489" x2="320.938" y2="107.536" gradientUnits="userSpaceOnUse">
<stop offset="0.0679902" stop-color="#B4AFB9"/>
<stop offset="0.1702" stop-color="#A7A5B6"/>
<stop offset="0.4426" stop-color="#898DB0"/>
<stop offset="0.6762" stop-color="#777EAC"/>
<stop offset="0.8422" stop-color="#7079AB"/>
</linearGradient>
<linearGradient id="paint52_linear" x1="320.938" y1="105.785" x2="320.938" y2="110.832" gradientUnits="userSpaceOnUse">
<stop offset="0.0679902" stop-color="#B4AFB9"/>
<stop offset="0.1702" stop-color="#A7A5B6"/>
<stop offset="0.4426" stop-color="#898DB0"/>
<stop offset="0.6762" stop-color="#777EAC"/>
<stop offset="0.8422" stop-color="#7079AB"/>
</linearGradient>
<linearGradient id="paint53_linear" x1="320.938" y1="109.148" x2="320.938" y2="123.028" gradientUnits="userSpaceOnUse">
<stop offset="0.0679902" stop-color="#B4AFB9"/>
<stop offset="0.1702" stop-color="#A7A5B6"/>
<stop offset="0.4426" stop-color="#898DB0"/>
<stop offset="0.6762" stop-color="#777EAC"/>
<stop offset="0.8422" stop-color="#7079AB"/>
</linearGradient>
<linearGradient id="paint54_linear" x1="284.703" y1="17.1129" x2="292.232" y2="17.1129" gradientUnits="userSpaceOnUse">
<stop offset="0.0250244" stop-color="#B4BFEB"/>
<stop offset="0.3717" stop-color="#C3CDF0"/>
<stop offset="1" stop-color="#E9EFFD"/>
</linearGradient>
<linearGradient id="paint55_linear" x1="348.432" y1="84.5388" x2="355.734" y2="84.5388" gradientUnits="userSpaceOnUse">
<stop offset="0.0250244" stop-color="#B4BFEB"/>
<stop offset="0.3717" stop-color="#C3CDF0"/>
<stop offset="1" stop-color="#E9EFFD"/>
</linearGradient>
<linearGradient id="paint56_linear" x1="271.187" y1="38.1639" x2="281.014" y2="38.1639" gradientUnits="userSpaceOnUse">
<stop offset="0.0250244" stop-color="#B4BFEB"/>
<stop offset="0.3717" stop-color="#C3CDF0"/>
<stop offset="1" stop-color="#E9EFFD"/>
</linearGradient>
<linearGradient id="paint57_linear" x1="359.966" y1="64.7061" x2="369.718" y2="64.7061" gradientUnits="userSpaceOnUse">
<stop offset="0.0250244" stop-color="#B4BFEB"/>
<stop offset="0.3717" stop-color="#C3CDF0"/>
<stop offset="1" stop-color="#E9EFFD"/>
</linearGradient>
<linearGradient id="paint58_linear" x1="271.132" y1="62.4672" x2="281.022" y2="62.4672" gradientUnits="userSpaceOnUse">
<stop offset="0.0250244" stop-color="#B4BFEB"/>
<stop offset="0.3717" stop-color="#C3CDF0"/>
<stop offset="1" stop-color="#E9EFFD"/>
</linearGradient>
<linearGradient id="paint59_linear" x1="361.196" y1="41.0382" x2="371.147" y2="41.0382" gradientUnits="userSpaceOnUse">
<stop offset="0.0250244" stop-color="#B4BFEB"/>
<stop offset="0.3717" stop-color="#C3CDF0"/>
<stop offset="1" stop-color="#E9EFFD"/>
</linearGradient>
<linearGradient id="paint60_linear" x1="284.366" y1="83.2944" x2="292.03" y2="83.2944" gradientUnits="userSpaceOnUse">
<stop offset="0.0250244" stop-color="#B4BFEB"/>
<stop offset="0.3717" stop-color="#C3CDF0"/>
<stop offset="1" stop-color="#E9EFFD"/>
</linearGradient>
<linearGradient id="paint61_linear" x1="351.585" y1="19.6621" x2="359.43" y2="19.6621" gradientUnits="userSpaceOnUse">
<stop offset="0.0250244" stop-color="#B4BFEB"/>
<stop offset="0.3717" stop-color="#C3CDF0"/>
<stop offset="1" stop-color="#E9EFFD"/>
</linearGradient>
<linearGradient id="paint62_linear" x1="333.426" y1="6.34645" x2="337.425" y2="6.34645" gradientUnits="userSpaceOnUse">
<stop offset="0.0250244" stop-color="#B4BFEB"/>
<stop offset="0.3717" stop-color="#C3CDF0"/>
<stop offset="1" stop-color="#E9EFFD"/>
</linearGradient>
<linearGradient id="paint63_linear" x1="309.553" y1="4.98136" x2="312.811" y2="4.98136" gradientUnits="userSpaceOnUse">
<stop offset="0.0250244" stop-color="#B4BFEB"/>
<stop offset="0.3717" stop-color="#C3CDF0"/>
<stop offset="1" stop-color="#E9EFFD"/>
</linearGradient>
<linearGradient id="paint64_linear" x1="438.529" y1="366.773" x2="438.739" y2="402.134" gradientUnits="userSpaceOnUse">
<stop stop-color="#F4FFF9"/>
<stop offset="0.1597" stop-color="#EBF5F0"/>
<stop offset="0.4299" stop-color="#D4DBD7"/>
<stop offset="0.7754" stop-color="#ADB0AE"/>
<stop offset="0.9461" stop-color="#989898"/>
</linearGradient>
<linearGradient id="paint65_linear" x1="441.444" y1="342.456" x2="441.863" y2="367.352" gradientUnits="userSpaceOnUse">
<stop offset="0.0996528" stop-color="#114833"/>
<stop offset="0.5031" stop-color="#15362A"/>
<stop offset="0.9167" stop-color="#19201E"/>
</linearGradient>
</defs>
</svg>
