<svg width="48" height="45" viewBox="0 0 48 45" fill="none" xmlns="http://www.w3.org/2000/svg">
<rect width="48" height="45" rx="8" fill="#00B1B5"/>
<g clip-path="url(#clip0)">
<path fill-rule="evenodd" clip-rule="evenodd" d="M23.2892 7.30326C23.604 7.1164 23.9956 7.11639 24.3103 7.30326L36.1103 14.3095C36.4138 14.4897 36.5998 14.8165 36.5998 15.1694V29.2309C36.5998 29.5838 36.4138 29.9106 36.1103 30.0907L25.3103 36.5032C24.6437 36.899 23.7998 36.4186 23.7998 35.6434V33.6265C23.7998 33.2736 23.9858 32.9468 24.2892 32.7666L32.4532 27.9193C32.7566 27.7391 32.9426 27.4124 32.9426 27.0595V17.3406C32.9426 16.9878 32.7567 16.6611 32.4534 16.4809L21.5944 10.029C20.942 9.64137 20.9422 8.69685 21.5947 8.30943L23.2892 7.30326Z" fill="#F5F7FA"/>
<path fill-rule="evenodd" clip-rule="evenodd" d="M11 29.2309C11 29.5838 11.186 29.9106 11.4895 30.0908L13.1466 31.0747C13.8132 31.4705 14.6571 30.9901 14.6571 30.2148V17.3408C14.6571 16.9879 14.8432 16.6611 15.1466 16.481L15.9828 15.9845C16.2976 15.7976 16.6894 15.7976 17.0042 15.9847L25.1394 20.8187C25.4427 20.9989 25.6286 21.3256 25.6286 21.6784L25.6286 26.3549C25.6286 27.1281 26.4684 27.6088 27.1351 27.2171L28.7922 26.2436C29.0979 26.064 29.2857 25.736 29.2857 25.3814V19.5071C29.2857 19.1542 29.0997 18.8275 28.7963 18.6473L17.0019 11.6429C16.6871 11.456 16.2954 11.456 15.9807 11.6429L11.4895 14.3096C11.186 14.4897 11 14.8165 11 15.1694V29.2309Z" fill="#F5F7FA"/>
<path fill-rule="evenodd" clip-rule="evenodd" d="M18.3145 33.5739C18.3145 33.9268 18.5005 34.2536 18.8039 34.4337L20.4611 35.4177C21.1277 35.8135 21.9716 35.3331 21.9716 34.5578V31.362C21.9716 31.009 21.7855 30.6821 21.482 30.502L19.8248 29.5185C19.1582 29.1229 18.3145 29.6034 18.3145 30.3785V33.5739Z" fill="#F5F7FA"/>
<path fill-rule="evenodd" clip-rule="evenodd" d="M18 24.6675C18 25.0571 18.2262 25.4112 18.5798 25.5749L20.2369 26.3424C20.8996 26.6493 21.6572 26.1653 21.6572 25.435V23.3321C21.6572 22.9424 21.4308 22.5882 21.0772 22.4246L19.4201 21.6575C18.7574 21.3507 18 21.8347 18 22.565V24.6675Z" fill="#F5F7FA"/>
</g>
<defs>
<clipPath id="clip0">
<rect width="25.6" height="30.4" fill="white" transform="translate(11 7.00012)"/>
</clipPath>
</defs>
</svg>
