<svg width="1194" height="800" viewBox="0 0 1194 800" fill="none" xmlns="http://www.w3.org/2000/svg">
<path fill-rule="evenodd" clip-rule="evenodd" d="M1135.38 91.265C1196.98 169.358 1263.22 254.142 1261.28 355.165C1259.34 456.532 1187.14 544.041 1125.09 628.326C1065.09 709.819 1004.61 801.634 908.403 834.472C814.558 866.505 718.457 822.944 624.96 799.039C542.819 778.038 468.178 747.109 396.837 703.679C313.767 653.11 205.523 616.989 175.296 525.303C144.982 433.353 196.502 330.286 244.58 241.847C287.157 163.526 366.404 116.548 431.456 54.1002C502.278 -13.8875 549.242 -116.29 643.84 -141.434C739.806 -166.942 834.532 -117.081 921.173 -76.0652C1005.54 -36.1245 1078.43 19.0466 1135.38 91.265Z" fill="white" fill-opacity="0.05"/>
<path fill-rule="evenodd" clip-rule="evenodd" d="M743.073 -428.72C822.216 -423.421 864.627 -329.561 935.461 -293.884C1004.74 -258.989 1099.38 -277.245 1153.7 -221.892C1207.71 -166.865 1206.61 -79.341 1220.44 -3.51056C1233.84 69.962 1257.7 146.563 1233.82 217.327C1210.22 287.207 1137.66 325.574 1090.26 382.097C1044 437.259 1021.24 516.778 956.409 548.124C891.581 579.471 813.97 562.627 743.073 549.977C678.787 538.506 626.352 495.796 563.518 478.019C486.746 456.299 391.279 486.191 331.387 433.503C273.339 382.436 276.296 290.961 264.127 214.636C252.481 141.595 240.474 66.4413 261.559 -4.4566C282.23 -73.9655 334.423 -127.662 382.162 -182.269C428.418 -235.179 479.813 -280.866 537.859 -320.504C602.53 -364.665 664.924 -433.952 743.073 -428.72Z" fill="white" fill-opacity="0.05"/>
</svg>
